<?xml version="1.0" encoding="utf-8"?>
<!-- Generator: Adobe Illustrator 22.0.1, SVG Export Plug-In . SVG Version: 6.00 Build 0)  -->
<svg version="1.1" xmlns="http://www.w3.org/2000/svg" xmlns:xlink="http://www.w3.org/1999/xlink" x="0px" y="0px" width="719.7px"
	 height="602.6px" viewBox="0 0 719.7 602.6" style="enable-background:new 0 0 719.7 602.6;" xml:space="preserve">
<style type="text/css">
	.st0{fill:#D6EAFA;}
	.st1{fill:#EAF5FE;}
	.st2{fill:#FFFFFF;}
	.st3{fill:#92D0EF;}
	.st4{fill:#54AAE3;}
	.st5{fill:#0072CD;}
	.st6{fill-rule:evenodd;clip-rule:evenodd;fill:#54AAE3;}
	.st7{fill-rule:evenodd;clip-rule:evenodd;fill:#FFFFFF;}
	.st8{fill:#CBE1EF;}
	.st9{fill:#B1B2F1;}
	.st10{fill:url(#SVGID_1_);}
	.st11{fill:#1C2B6B;}
	.st12{fill:#D4D6F4;}
	.st13{fill:url(#SVGID_2_);}
	.st14{fill:url(#SVGID_3_);}
	.st15{fill:url(#SVGID_4_);}
	.st16{fill:url(#SVGID_5_);}
	.st17{fill:#E09D14;}
	.st18{fill:url(#SVGID_6_);}
	.st19{fill:url(#SVGID_7_);}
	.st20{fill:url(#SVGID_8_);}
	.st21{fill:url(#SVGID_9_);}
	.st22{fill:url(#SVGID_10_);}
	.st23{fill:url(#SVGID_11_);}
</style>
<g id="Layer_3">
	<g>
		<g>
			<g>
				
					<ellipse transform="matrix(0.7071 -0.7071 0.7071 0.7071 -112.8001 343.2504)" class="st0" cx="357.9" cy="307.8" rx="273.1" ry="273.1"/>
			</g>
			<g>
				<path class="st1" d="M357.9,540.1c-128.1,0-232.3-104.2-232.3-232.3c0-128.1,104.2-232.3,232.3-232.3s232.3,104.2,232.3,232.3
					C590.2,435.9,486,540.1,357.9,540.1z M357.9,83.6c-123.6,0-224.2,100.6-224.2,224.2c0,123.6,100.6,224.2,224.2,224.2
					c123.6,0,224.2-100.6,224.2-224.2C582.1,184.2,481.5,83.6,357.9,83.6z"/>
			</g>
			<g>
				<path class="st0" d="M131.9,465.9h134.5c5.4,0,9.7,4.4,9.7,9.7V498c0,5.4-4.4,9.7-9.7,9.7H131.9c-5.4,0-9.7-4.4-9.7-9.7v-22.4
					C122.2,470.2,126.6,465.9,131.9,465.9z"/>
			</g>
			<g>
				<path class="st0" d="M98.6,547.9h222.9c7.6,0,13.8,6.2,13.8,13.8l0,0c0,7.6-6.2,13.8-13.8,13.8H98.6c-7.6,0-13.8-6.2-13.8-13.8
					l0,0C84.9,554.1,91,547.9,98.6,547.9z"/>
			</g>
			<g>
				<path class="st0" d="M478.9,575.5h25.3c7.5,0,13.6,6.1,13.6,13.6l0,0c0,7.5-6.1,13.6-13.6,13.6h-25.3c-7.5,0-13.6-6.1-13.6-13.6
					l0,0C465.4,581.6,471.4,575.5,478.9,575.5z"/>
			</g>
			<g>
				<path class="st0" d="M466.3,495.3h123.4c12.3,0,22.2,10,22.2,22.2l0,0c0,12.3-10,22.2-22.2,22.2H466.3
					c-12.3,0-22.2-10-22.2-22.2l0,0C444.1,505.2,454.1,495.3,466.3,495.3z"/>
			</g>
			<g>
				<path class="st0" d="M162.5,507.4h78.1c-5.8,0-11,2.5-14.8,6.3c-3.8,3.8-6.1,8.3-6.1,14.1c0,11.6,9.4,20.2,20.9,20.2h-78.1
					c5.8,0,11-1.5,14.8-5.3c3.8-3.8,6.1-8.8,6.1-14.5C183.4,516.5,174,507.4,162.5,507.4z"/>
			</g>
			<g>
				<path class="st0" d="M468.6,268.5H670c20.8,0,37.6,16.8,37.6,37.6l0,0c0,20.8-16.8,37.6-37.6,37.6H468.6
					c-20.8,0-37.6-16.8-37.6-37.6l0,0C431.1,285.3,447.9,268.5,468.6,268.5z"/>
			</g>
			<g>
				<path class="st0" d="M396.9,416.6h298.3c13.5,0,24.4,10.9,24.4,24.4l0,0c0,13.5-10.9,24.4-24.4,24.4H396.9
					c-13.5,0-24.4-10.9-24.4-24.4l0,0C372.6,427.6,383.5,416.6,396.9,416.6z"/>
			</g>
			<g>
				<path class="st0" d="M520,343.6h140.3c-10.4,0-19.8,4.1-26.6,11c-6.8,6.9-11,15-11,25.5c0,21,16.8,36.6,37.6,36.6H520
					c10.4,0,19.8-3,26.6-9.8c6.8-6.9,11-15.6,11-26.1C557.5,359.8,540.7,343.6,520,343.6z"/>
			</g>
			<g>
				<path class="st0" d="M300.4,235.8H64.4c-22,0-39.9-17.9-39.9-39.9l0,0c0-22,17.9-39.9,39.9-39.9h235.9c22,0,39.9,17.9,39.9,39.9
					l0,0C340.3,217.9,322.4,235.8,300.4,235.8z"/>
			</g>
			<g>
				<path class="st0" d="M398.6,466.8h-341C25.8,466.8,0,441,0,409.1l0,0c0-31.8,25.8-57.7,57.7-57.7h341
					c31.8,0,57.7,25.8,57.7,57.7v0C456.3,441,430.5,466.8,398.6,466.8z"/>
			</g>
			<g>
				<path class="st0" d="M591.6,144.1H403.3c-17.6,0-31.8-14.3-31.8-31.8l0,0c0-17.6,14.3-31.8,31.8-31.8h188.2
					c17.6,0,31.8,14.3,31.8,31.8l0,0C623.4,129.8,609.1,144.1,591.6,144.1z"/>
			</g>
			<g>
				<path class="st0" d="M340.6,58.9c3.9,0,7.6,0.3,11.3,0.8c-1.6-13.2-12.8-23.4-26.5-23.4H182.3c-14.7,0-26.7,12-26.7,26.7
					c0,14.8,12,26.7,26.7,26.7h96C293.3,71.2,316.6,58.9,340.6,58.9z"/>
			</g>
			<g>
				<path class="st0" d="M533.7,34.7H489c-9.6,0-17.3-7.8-17.3-17.3l0,0C471.6,7.8,479.4,0,489,0h44.7c9.6,0,17.3,7.8,17.3,17.3l0,0
					C551,26.9,543.2,34.7,533.7,34.7z"/>
			</g>
		</g>
		<g>
			<g>
				<rect x="121.3" y="277.5" class="st2" width="120.2" height="176.1"/>
			</g>
			<g>
				<rect x="121.3" y="401.6" class="st3" width="120.2" height="40.7"/>
			</g>
			<g>
				<rect x="121.3" y="277.5" class="st0" width="120.2" height="34"/>
			</g>
			<g>
				<path class="st4" d="M157.5,338.2c0,7.9-6.4,14.3-14.3,14.3c-7.9,0-14.3-6.4-14.3-14.3c0-7.9,6.4-14.3,14.3-14.3
					C151.1,323.9,157.5,330.3,157.5,338.2z"/>
			</g>
			<g>
				<path class="st0" d="M157.5,380.1c0,7.9-6.4,14.3-14.3,14.3c-7.9,0-14.3-6.4-14.3-14.3c0-7.9,6.4-14.3,14.3-14.3
					C151.1,365.8,157.5,372.2,157.5,380.1z"/>
			</g>
			<g>
				<circle class="st0" cx="143.2" cy="421.9" r="14.3"/>
			</g>
			<g>
				<path class="st5" d="M143.2,438.2c-9,0-16.3-7.3-16.3-16.3c0-9,7.3-16.3,16.3-16.3c9,0,16.3,7.3,16.3,16.3
					C159.5,430.9,152.2,438.2,143.2,438.2z M143.2,409.7c-6.7,0-12.2,5.5-12.2,12.2c0,6.7,5.5,12.2,12.2,12.2
					c6.7,0,12.2-5.5,12.2-12.2C155.5,415.2,150,409.7,143.2,409.7z"/>
			</g>
			<g>
				<path class="st5" d="M241.6,455.6H121.3c-1.1,0-2-0.9-2-2V277.5c0-1.1,0.9-2,2-2h120.2c1.1,0,2,0.9,2,2v176.1
					C243.6,454.7,242.7,455.6,241.6,455.6z M123.4,451.6h116.2v-172H123.4V451.6z"/>
			</g>
			<g>
				<path class="st5" d="M232,307.8c-1.1,0-2.2-0.5-3-1.3l-4.3-4.6l-0.9,0.2c-1.8,0.3-3.5,0.2-5-0.4c-2-0.7-3.7-2.1-4.8-3.9
					c-0.4-0.6-0.6-1.1-0.8-1.7c-0.3-0.8-0.5-1.7-0.6-2.7c0-0.3-0.1-0.5-0.1-0.7c0-5.2,4.3-9.5,9.5-9.5c5.2,0,9.5,4.2,9.5,9.5
					c0,1.3-0.3,2.6-0.8,3.7l4,4.4c0.7,0.8,1.2,1.9,1.1,3c0,1.1-0.5,2.1-1.2,2.8C233.9,307.4,233,307.8,232,307.8z M228.9,300.4
					l3.1,3.3v2l0-2L228.9,300.4z M222,290.3c-1.4,0-2.6,1.1-2.6,2.5c0,1.4,1.1,2.6,2.6,2.6c1.4,0,2.6-1.1,2.6-2.6
					C224.6,291.5,223.4,290.3,222,290.3z"/>
			</g>
			<g>
				<rect x="132.4" y="302.8" class="st5" width="79" height="4.1"/>
			</g>
			<g>
				<rect x="164.8" y="331.2" class="st5" width="60.8" height="4.1"/>
			</g>
			<g>
				<rect x="175" y="341.3" class="st5" width="40.5" height="4.1"/>
			</g>
			<g>
				<rect x="164.8" y="373.7" class="st5" width="60.8" height="4.1"/>
			</g>
			<g>
				<rect x="175" y="383.8" class="st5" width="40.5" height="4.1"/>
			</g>
			<g>
				<rect x="164.8" y="416.2" class="st5" width="60.8" height="4.1"/>
			</g>
			<g>
				<rect x="175" y="426.4" class="st5" width="40.5" height="4.1"/>
			</g>
		</g>
		<g>
			<g>
				<g>
					<path class="st3" d="M236.1,425.3v11.5c0,8.7,7,15.7,15.7,15.7l0,0c8.7,0,15.7-7,15.7-15.7v-11.5H236.1z"/>
				</g>
			</g>
			<g>
				<g>
					<path class="st3" d="M236.1,425.3v11.5c0,8.7,7,15.7,15.7,15.7l0,0c8.7,0,15.7-7,15.7-15.7v-11.5H236.1z"/>
				</g>
			</g>
			<g>
				<g>
					<path class="st5" d="M251.8,454.5c-9.8,0-17.7-8-17.7-17.7v-11.5c0-1.1,0.9-2,2-2h31.4c1.1,0,2,0.9,2,2v11.5
						C269.6,446.6,261.6,454.5,251.8,454.5z M238.1,427.3v9.4c0,7.6,6.1,13.7,13.7,13.7c7.6,0,13.7-6.1,13.7-13.7v-9.4H238.1z"/>
				</g>
			</g>
			<g>
				<g>
					<path class="st4" d="M262.5,298.9L262.5,298.9v-20.9h-21.4v20.9l0,0c-2.8,0-5,2.3-5,5v121.4h31.4V303.9
						C267.5,301.1,265.3,298.9,262.5,298.9z"/>
				</g>
			</g>
			<g>
				<g>
					<path class="st5" d="M267.5,427.3h-31.4c-1.1,0-2-0.9-2-2V303.9c0-3.2,2.1-5.9,5-6.8v-19.2c0-1.1,0.9-2,2-2h21.4
						c1.1,0,2,0.9,2,2v19.2c2.9,0.9,5,3.6,5,6.8v121.4C269.6,426.4,268.6,427.3,267.5,427.3z M238.1,423.3h27.4V303.9
						c0-1.7-1.4-3-3-3c-1.1,0-2-0.9-2-2V280h-17.3v18.9c0,1.1-0.9,2-2,2c-1.7,0-3,1.4-3,3V423.3z"/>
				</g>
			</g>
			<g>
				<path class="st2" d="M251.8,148.9L251.8,148.9c-8.4,0-15.3,6.9-15.3,15.3v24c0,4.3,3.5,7.9,7.9,7.9l0,0v67.7h14.7V196h0.2
					c4.2,0,7.7-3.5,7.7-7.7v-24.3C267,155.7,260.2,148.9,251.8,148.9z"/>
			</g>
			<g>
				<path class="st5" d="M259.1,265.7h-14.7c-1.1,0-2-0.9-2-2v-65.9c-4.5-0.9-7.9-4.9-7.9-9.7v-24c0-9.5,7.8-17.3,17.3-17.3
					c9.5,0,17.2,7.7,17.2,17.2v24.3c0,4.7-3.4,8.7-7.9,9.5v65.8C261.2,264.8,260.3,265.7,259.1,265.7z M246.5,261.7h10.6V196
					c0-1.1,0.9-2,2-2h0.2c3.1,0,5.6-2.5,5.6-5.6v-24.3c0-7.3-5.9-13.2-13.2-13.2c-7.3,0-13.2,5.9-13.2,13.2v24
					c0,3.2,2.6,5.9,5.9,5.9c1.1,0,2,0.9,2,2V261.7z"/>
			</g>
			<g>
				<path class="st2" d="M261,277.9h-18.3c-4.4,0-7.9-3.5-7.9-7.9l0,0c0-4.4,3.5-7.9,7.9-7.9H261c4.4,0,7.9,3.5,7.9,7.9l0,0
					C268.9,274.4,265.3,277.9,261,277.9z"/>
			</g>
			<g>
				<path class="st5" d="M261,280h-18.3c-5.5,0-9.9-4.4-9.9-9.9c0-5.5,4.4-9.9,9.9-9.9H261c5.5,0,9.9,4.4,9.9,9.9
					C270.9,275.5,266.4,280,261,280z M242.6,264.2c-3.2,0-5.9,2.6-5.9,5.9c0,3.2,2.6,5.9,5.9,5.9H261c3.2,0,5.9-2.6,5.9-5.9
					c0-3.2-2.6-5.9-5.9-5.9H242.6z"/>
			</g>
			<g>
				<rect x="251.9" y="296.7" class="st5" width="10.1" height="4.1"/>
			</g>
		</g>
		<g>
			<g>
				<rect x="43.3" y="452.7" class="st5" width="30.4" height="8.1"/>
			</g>
			<g>
				<rect x="644.9" y="452.7" class="st5" width="30.4" height="8.1"/>
			</g>
			<g>
				<rect x="90.9" y="452.7" class="st5" width="527.7" height="8.1"/>
			</g>
		</g>
		<g>
			<path class="st5" d="M527,413.3c-4.7,0-8.5-3.8-8.5-8.5c0-4.7,3.8-8.5,8.5-8.5c4.7,0,8.5,3.8,8.5,8.5
				C535.5,409.5,531.7,413.3,527,413.3z M527,400.4c-2.5,0-4.4,2-4.4,4.4c0,2.5,2,4.4,4.4,4.4c2.5,0,4.4-2,4.4-4.4
				C531.4,402.4,529.4,400.4,527,400.4z"/>
		</g>
		<g>
			<path class="st5" d="M155.6,262c-4.7,0-8.5-3.8-8.5-8.5c0-4.7,3.8-8.5,8.5-8.5c4.7,0,8.5,3.8,8.5,8.5
				C164.1,258.2,160.2,262,155.6,262z M155.6,249.1c-2.5,0-4.4,2-4.4,4.4c0,2.5,2,4.4,4.4,4.4c2.5,0,4.4-2,4.4-4.4
				C160,251.1,158,249.1,155.6,249.1z"/>
		</g>
		<g>
			<path class="st5" d="M65,393c-4.7,0-8.5-3.8-8.5-8.5c0-4.7,3.8-8.5,8.5-8.5c4.7,0,8.5,3.8,8.5,8.5C73.5,389.1,69.6,393,65,393z
				 M65,380c-2.5,0-4.4,2-4.4,4.4s2,4.4,4.4,4.4c2.5,0,4.4-2,4.4-4.4S67.4,380,65,380z"/>
		</g>
		<g>
			<path class="st5" d="M400.5,143.9c-4.7,0-8.5-3.8-8.5-8.5c0-4.7,3.8-8.5,8.5-8.5c4.7,0,8.5,3.8,8.5,8.5
				C409,140,405.2,143.9,400.5,143.9z M400.5,130.9c-2.5,0-4.4,2-4.4,4.4c0,2.5,2,4.4,4.4,4.4c2.5,0,4.4-2,4.4-4.4
				C404.9,132.9,402.9,130.9,400.5,130.9z"/>
		</g>
		<g>
			<path class="st5" d="M496.8,138.8h-4.1c-1.1,0-2-0.9-2-2c0-1.1,0.9-2,2-2h4.1c1.1,0,2,0.9,2,2
				C498.8,137.8,497.9,138.8,496.8,138.8z M484.6,138.8h-4.1c-1.1,0-2-0.9-2-2c0-1.1,0.9-2,2-2h4.1c1.1,0,2,0.9,2,2
				C486.6,137.8,485.7,138.8,484.6,138.8z M472.5,138.8h-4.1c-1.1,0-2-0.9-2-2c0-1.1,0.9-2,2-2h4.1c1.1,0,2,0.9,2,2
				C474.5,137.8,473.6,138.8,472.5,138.8z M460.3,138.8h-4.1c-1.1,0-2-0.9-2-2c0-1.1,0.9-2,2-2h4.1c1.1,0,2,0.9,2,2
				C462.3,137.8,461.4,138.8,460.3,138.8z M448.2,138.8h-4.1c-1.1,0-2-0.9-2-2c0-1.1,0.9-2,2-2h4.1c1.1,0,2,0.9,2,2
				C450.2,137.8,449.3,138.8,448.2,138.8z M436,138.8h-2c-1.1,0-2-0.9-2-2c0-1.1,0.9-2,2-2h2c1.1,0,2,0.9,2,2
				C438,137.8,437.1,138.8,436,138.8z"/>
		</g>
		<g>
			<path class="st5" d="M355.7,138.8h-4.1c-1.1,0-2-0.9-2-2c0-1.1,0.9-2,2-2h4.1c1.1,0,2,0.9,2,2
				C357.7,137.8,356.8,138.8,355.7,138.8z M343.5,138.8h-4.1c-1.1,0-2-0.9-2-2c0-1.1,0.9-2,2-2h4.1c1.1,0,2,0.9,2,2
				C345.5,137.8,344.6,138.8,343.5,138.8z M331.4,138.8h-4.1c-1.1,0-2-0.9-2-2c0-1.1,0.9-2,2-2h4.1c1.1,0,2,0.9,2,2
				C333.4,137.8,332.5,138.8,331.4,138.8z M319.2,138.8h-4.1c-1.1,0-2-0.9-2-2c0-1.1,0.9-2,2-2h4.1c1.1,0,2,0.9,2,2
				C321.2,137.8,320.3,138.8,319.2,138.8z M307.1,138.8H303c-1.1,0-2-0.9-2-2c0-1.1,0.9-2,2-2h4.1c1.1,0,2,0.9,2,2
				C309.1,137.8,308.2,138.8,307.1,138.8z M294.9,138.8h-2c-1.1,0-2-0.9-2-2c0-1.1,0.9-2,2-2h2c1.1,0,2,0.9,2,2
				C296.9,137.8,296,138.8,294.9,138.8z"/>
		</g>
		<g>
			<path class="st5" d="M662.5,308.1h-4.1c-1.1,0-2-0.9-2-2c0-1.1,0.9-2,2-2h4.1c1.1,0,2,0.9,2,2
				C664.5,307.2,663.6,308.1,662.5,308.1z M650.3,308.1h-4.1c-1.1,0-2-0.9-2-2c0-1.1,0.9-2,2-2h4.1c1.1,0,2,0.9,2,2
				C652.3,307.2,651.4,308.1,650.3,308.1z M638.2,308.1h-4.1c-1.1,0-2-0.9-2-2c0-1.1,0.9-2,2-2h4.1c1.1,0,2,0.9,2,2
				C640.2,307.2,639.3,308.1,638.2,308.1z M626,308.1H622c-1.1,0-2-0.9-2-2c0-1.1,0.9-2,2-2h4.1c1.1,0,2,0.9,2,2
				C628,307.2,627.1,308.1,626,308.1z M613.9,308.1h-4.1c-1.1,0-2-0.9-2-2c0-1.1,0.9-2,2-2h4.1c1.1,0,2,0.9,2,2
				C615.9,307.2,615,308.1,613.9,308.1z M601.7,308.1h-2c-1.1,0-2-0.9-2-2c0-1.1,0.9-2,2-2h2c1.1,0,2,0.9,2,2
				C603.7,307.2,602.8,308.1,601.7,308.1z"/>
		</g>
		<g>
			<path class="st5" d="M143.2,203.6h-4.1c-1.1,0-2-0.9-2-2c0-1.1,0.9-2,2-2h4.1c1.1,0,2,0.9,2,2
				C145.2,202.7,144.3,203.6,143.2,203.6z M131.1,203.6H127c-1.1,0-2-0.9-2-2c0-1.1,0.9-2,2-2h4.1c1.1,0,2,0.9,2,2
				C133.1,202.7,132.2,203.6,131.1,203.6z M118.9,203.6h-4.1c-1.1,0-2-0.9-2-2c0-1.1,0.9-2,2-2h4.1c1.1,0,2,0.9,2,2
				C120.9,202.7,120,203.6,118.9,203.6z M106.8,203.6h-4.1c-1.1,0-2-0.9-2-2c0-1.1,0.9-2,2-2h4.1c1.1,0,2,0.9,2,2
				C108.8,202.7,107.9,203.6,106.8,203.6z M94.6,203.6h-4.1c-1.1,0-2-0.9-2-2c0-1.1,0.9-2,2-2h4.1c1.1,0,2,0.9,2,2
				C96.6,202.7,95.7,203.6,94.6,203.6z M82.4,203.6h-2c-1.1,0-2-0.9-2-2c0-1.1,0.9-2,2-2h2c1.1,0,2,0.9,2,2
				C84.5,202.7,83.6,203.6,82.4,203.6z"/>
		</g>
		<g>
			<g>
				<path class="st5" d="M550.2,255.6c-0.5,0-1-0.2-1.4-0.6l-8.1-8.1c-0.8-0.8-0.8-2.1,0-2.9c0.8-0.8,2.1-0.8,2.9,0l8.1,8.1
					c0.8,0.8,0.8,2.1,0,2.9C551.2,255.4,550.7,255.6,550.2,255.6z"/>
			</g>
			<g>
				<path class="st5" d="M542.1,255.6c-0.5,0-1-0.2-1.4-0.6c-0.8-0.8-0.8-2.1,0-2.9l8.1-8.1c0.8-0.8,2.1-0.8,2.9,0
					c0.8,0.8,0.8,2.1,0,2.9l-8.1,8.1C543.1,255.4,542.6,255.6,542.1,255.6z"/>
			</g>
		</g>
		<g>
			<g>
				<path class="st5" d="M221.5,154.9c-0.5,0-1-0.2-1.4-0.6l-8.1-8.1c-0.8-0.8-0.8-2.1,0-2.9c0.8-0.8,2.1-0.8,2.9,0l8.1,8.1
					c0.8,0.8,0.8,2.1,0,2.9C222.5,154.7,222,154.9,221.5,154.9z"/>
			</g>
			<g>
				<path class="st5" d="M213.4,154.9c-0.5,0-1-0.2-1.4-0.6c-0.8-0.8-0.8-2.1,0-2.9l8.1-8.1c0.8-0.8,2.1-0.8,2.9,0
					c0.8,0.8,0.8,2.1,0,2.9l-8.1,8.1C214.5,154.7,213.9,154.9,213.4,154.9z"/>
			</g>
		</g>
		<g>
			<g>
				<path class="st5" d="M605.9,386.2c-0.5,0-1-0.2-1.4-0.6l-8.1-8.1c-0.8-0.8-0.8-2.1,0-2.9c0.8-0.8,2.1-0.8,2.9,0l8.1,8.1
					c0.8,0.8,0.8,2.1,0,2.9C607,386,606.5,386.2,605.9,386.2z"/>
			</g>
			<g>
				<path class="st5" d="M597.9,386.2c-0.5,0-1-0.2-1.4-0.6c-0.8-0.8-0.8-2.1,0-2.9l8.1-8.1c0.8-0.8,2.1-0.8,2.9,0
					c0.8,0.8,0.8,2.1,0,2.9l-8.1,8.1C598.9,386,598.4,386.2,597.9,386.2z"/>
			</g>
		</g>
		<g>
			<g>
				<path class="st5" d="M92.9,432.3c-0.5,0-1-0.2-1.4-0.6l-8.1-8.1c-0.8-0.8-0.8-2.1,0-2.9c0.8-0.8,2.1-0.8,2.9,0l8.1,8.1
					c0.8,0.8,0.8,2.1,0,2.9C93.9,432.1,93.4,432.3,92.9,432.3z"/>
			</g>
			<g>
				<path class="st5" d="M84.8,432.3c-0.5,0-1-0.2-1.4-0.6c-0.8-0.8-0.8-2.1,0-2.9l8.1-8.1c0.8-0.8,2.1-0.8,2.9,0
					c0.8,0.8,0.8,2.1,0,2.9l-8.1,8.1C85.8,432.1,85.3,432.3,84.8,432.3z"/>
			</g>
		</g>
		<g>
			<g>
				<path class="st5" d="M207.9,263.6c-0.5,0-1-0.2-1.4-0.6l-8.1-8.1c-0.8-0.8-0.8-2.1,0-2.9c0.8-0.8,2.1-0.8,2.9,0l8.1,8.1
					c0.8,0.8,0.8,2.1,0,2.9C208.9,263.4,208.4,263.6,207.9,263.6z"/>
			</g>
			<g>
				<path class="st5" d="M199.8,263.6c-0.5,0-1-0.2-1.4-0.6c-0.8-0.8-0.8-2.1,0-2.9l8.1-8.1c0.8-0.8,2.1-0.8,2.9,0
					c0.8,0.8,0.8,2.1,0,2.9l-8.1,8.1C200.8,263.4,200.3,263.6,199.8,263.6z"/>
			</g>
		</g>
		<g>
			<g>
				<g>
					<path class="st4" d="M500.7,164.2c0,0.3,0.4,0.6,0.4,0.9v43.2c0,3.2-2.9,5.8-6.1,5.8l-26.5,0.1c-3.2,0-5.9-2.5-5.9-5.8v-43.3
						c0-0.3-0.1-0.6,0-0.9c-15.6,6.8-26.1,21.8-26.1,39.1c0,17.1,11.9,34.3,26.1,42.6v187.5c0,10.9,7.7,19.2,18.6,19.2h0
						c10.9,0,19.9-8.4,19.9-19.2V246c16.2-8.3,25.9-25.5,25.9-42.6C527,186,516.3,171,500.7,164.2z M481.4,441.5
						c-4.2,0-7.6-3.4-7.6-7.6c0-4.2,3.4-7.6,7.6-7.6c4.2,0,7.6,3.4,7.6,7.6C489,438.1,485.6,441.5,481.4,441.5z"/>
				</g>
			</g>
			<g>
				<g>
					<path class="st5" d="M481.2,454.7L481.2,454.7c-11.8,0-20.6-9.1-20.6-21.3V247.1c-15.4-9.5-26.1-27.4-26.1-43.8
						c0-17.7,10.7-33.7,27.3-41c0.7-0.3,1.5-0.2,2,0.3c0.6,0.5,0.9,1.2,0.8,1.9c0,0.2,0.1,0.4,0.1,0.6v43.3c0,2.1,1.7,3.7,3.8,3.7
						L495,212c2.2,0,4.1-1.7,4.1-3.7v-42.8c-0.1-0.3-0.3-0.6-0.4-1c-0.1-0.7,0.2-1.5,0.8-1.9c0.6-0.4,1.4-0.5,2-0.2
						c16.7,7.3,27.5,23.4,27.5,41c0,18.1-10.1,35.2-25.9,43.9v186.3C503.1,445.2,493.3,454.7,481.2,454.7z M460.6,167.4
						c-13.7,7.1-22.1,20.6-22.1,35.9c0,15.2,10.6,32.4,25.1,40.9c0.6,0.4,1,1,1,1.7v187.5c0,10,7,17.2,16.5,17.2h0
						c10,0,17.9-7.6,17.9-17.2V246c0-0.8,0.4-1.5,1.1-1.8c15.1-7.7,24.8-23.8,24.8-40.8c0-14.8-8.5-28.5-21.9-35.7v40.7
						c0,4.2-3.7,7.8-8.1,7.8l-26.5,0.1c-4.3,0-7.9-3.5-7.9-7.8V167.4z M481.4,443.5c-5.3,0-9.6-4.3-9.6-9.6c0-5.3,4.3-9.6,9.6-9.6
						s9.6,4.3,9.6,9.6C491.1,439.2,486.7,443.5,481.4,443.5z M481.4,428.3c-3.1,0-5.6,2.5-5.6,5.6c0,3.1,2.5,5.6,5.6,5.6
						c3.1,0,5.6-2.5,5.6-5.6C487,430.8,484.5,428.3,481.4,428.3z"/>
				</g>
			</g>
		</g>
		<g id="XMLID_204_">
			<g id="XMLID_209_">
				<g>
					<g>
						<g>
							<path class="st6" d="M198.1,177.4c17.9,0,32.4,12.5,32.4,27.9c0,9.3-5.2,17.5-13.3,22.6l4.6,11.5l-11.2-8.3
								c-3.8,1.4-8.1,2.2-12.5,2.2c-17.9,0-32.4-12.5-32.4-27.9C165.7,189.9,180.2,177.4,198.1,177.4z"/>
						</g>
					</g>
				</g>
			</g>
			<g id="XMLID_220_">
				<g>
					<g>
						<g>
							<path class="st5" d="M221.8,241.5c-0.4,0-0.8-0.1-1.2-0.4l-10.3-7.7c-3.9,1.3-8,1.9-12.1,1.9c-19,0-34.4-13.4-34.4-30
								c0-16.5,15.4-30,34.4-30c19,0,34.4,13.4,34.4,30c0,9.1-4.8,17.7-12.8,23.3l4,10c0.3,0.8,0.1,1.8-0.7,2.4
								C222.6,241.4,222.2,241.5,221.8,241.5z M210.6,229.1c0.4,0,0.9,0.1,1.2,0.4l5.5,4.1l-1.9-4.9c-0.4-0.9,0-1.9,0.8-2.5
								c7.7-4.9,12.3-12.7,12.3-20.9c0-14.3-13.6-25.9-30.4-25.9c-16.7,0-30.4,11.6-30.4,25.9c0,14.3,13.6,25.9,30.4,25.9
								c4.1,0,8.1-0.7,11.8-2C210.1,229.2,210.3,229.1,210.6,229.1z"/>
						</g>
					</g>
				</g>
			</g>
			<g id="XMLID_205_">
				<g id="XMLID_208_">
					<g>
						<g>
							<g>
								<path class="st7" d="M212.2,210.3c-2.4,0-4.4-2-4.4-4.4c0-2.4,2-4.4,4.4-4.4c2.4,0,4.4,2,4.4,4.4
									C216.6,208.3,214.7,210.3,212.2,210.3z"/>
							</g>
						</g>
					</g>
				</g>
				<g id="XMLID_207_">
					<g>
						<g>
							<g>
								<path class="st7" d="M198.1,210.3c-2.4,0-4.4-2-4.4-4.4c0-2.4,2-4.4,4.4-4.4c2.4,0,4.4,2,4.4,4.4
									C202.5,208.3,200.5,210.3,198.1,210.3z"/>
							</g>
						</g>
					</g>
				</g>
				<g id="XMLID_206_">
					<g>
						<g>
							<g>
								<path class="st7" d="M183.9,210.3c-2.4,0-4.4-2-4.4-4.4c0-2.4,2-4.4,4.4-4.4s4.4,2,4.4,4.4
									C188.3,208.3,186.3,210.3,183.9,210.3z"/>
							</g>
						</g>
					</g>
				</g>
			</g>
			<g id="XMLID_221_">
				<g id="XMLID_259_">
					<g>
						<g>
							<g>
								<path class="st5" d="M212.2,212.3c-3.5,0-6.4-2.9-6.4-6.4c0-3.5,2.9-6.4,6.4-6.4c3.5,0,6.4,2.9,6.4,6.4
									C218.7,209.5,215.8,212.3,212.2,212.3z M212.2,203.6c-1.3,0-2.4,1.1-2.4,2.4c0,1.3,1.1,2.4,2.4,2.4c1.3,0,2.4-1.1,2.4-2.4
									C214.6,204.6,213.6,203.6,212.2,203.6z"/>
							</g>
						</g>
					</g>
				</g>
				<g id="XMLID_258_">
					<g>
						<g>
							<g>
								<path class="st5" d="M198.1,212.3c-3.5,0-6.4-2.9-6.4-6.4c0-3.5,2.9-6.4,6.4-6.4c3.5,0,6.4,2.9,6.4,6.4
									C204.5,209.5,201.6,212.3,198.1,212.3z M198.1,203.6c-1.3,0-2.4,1.1-2.4,2.4c0,1.3,1.1,2.4,2.4,2.4c1.3,0,2.4-1.1,2.4-2.4
									C200.4,204.6,199.4,203.6,198.1,203.6z"/>
							</g>
						</g>
					</g>
				</g>
				<g id="XMLID_222_">
					<g>
						<g>
							<g>
								<path class="st5" d="M183.9,212.3c-3.5,0-6.4-2.9-6.4-6.4c0-3.5,2.9-6.4,6.4-6.4c3.5,0,6.4,2.9,6.4,6.4
									C190.3,209.5,187.5,212.3,183.9,212.3z M183.9,203.6c-1.3,0-2.4,1.1-2.4,2.4c0,1.3,1.1,2.4,2.4,2.4s2.4-1.1,2.4-2.4
									C186.3,204.6,185.2,203.6,183.9,203.6z"/>
							</g>
						</g>
					</g>
				</g>
			</g>
		</g>
		<g>
			<g>
				<rect x="425.2" y="429.6" class="st4" width="113.1" height="25.2"/>
			</g>
			<g>
				<path class="st5" d="M538.3,456.8H425.2c-1.1,0-2-0.9-2-2v-25.2c0-1.1,0.9-2,2-2h113.1c1.1,0,2,0.9,2,2v25.2
					C540.3,455.9,539.4,456.8,538.3,456.8z M427.2,452.7h109.1v-21.1H427.2V452.7z"/>
			</g>
			<g>
				<rect x="538.3" y="429.6" class="st8" width="24.8" height="25.2"/>
			</g>
			<g>
				<path class="st5" d="M563.1,456.8h-24.8c-1.1,0-2-0.9-2-2v-25.2c0-1.1,0.9-2,2-2h24.8c1.1,0,2,0.9,2,2v25.2
					C565.1,455.9,564.2,456.8,563.1,456.8z M540.3,452.7h20.7v-21.1h-20.7V452.7z"/>
			</g>
			<g>
				<path class="st2" d="M445.1,445.7c0,1.8-1.5,3.3-3.3,3.3c-1.8,0-3.3-1.5-3.3-3.3c0-1.8,1.5-3.3,3.3-3.3
					C443.6,442.3,445.1,443.8,445.1,445.7z"/>
			</g>
			<g>
				<path class="st2" d="M461.5,445.7c0,1.8-1.5,3.3-3.3,3.3c-1.8,0-3.3-1.5-3.3-3.3c0-1.8,1.5-3.3,3.3-3.3
					C460,442.3,461.5,443.8,461.5,445.7z"/>
			</g>
			<g>
				<path class="st2" d="M478,445.7c0,1.8-1.5,3.3-3.3,3.3c-1.8,0-3.3-1.5-3.3-3.3c0-1.8,1.5-3.3,3.3-3.3
					C476.5,442.3,478,443.8,478,445.7z"/>
			</g>
			<g>
				<path class="st2" d="M494.5,445.7c0,1.8-1.5,3.3-3.3,3.3c-1.8,0-3.3-1.5-3.3-3.3c0-1.8,1.5-3.3,3.3-3.3
					C493,442.3,494.5,443.8,494.5,445.7z"/>
			</g>
		</g>
		<g>
			<g>
				<g>
					<g>
						<g>
							<g>
								<path class="st5" d="M565.5,399c-3.6,0-6.9-2.2-8.2-5.6l-4.4-11.4c-1.8-4.5,0.4-9.7,4.9-11.5c0.1,0,0.1,0,0.2-0.1
									c1-0.4,2-0.6,3.1-0.6c3.6,0,6.9,2.2,8.2,5.6l4.4,11.4c1.8,4.5-0.4,9.6-4.9,11.5C567.7,398.8,566.6,399,565.5,399z
									 M559.2,374.4c-2.4,1-3.5,3.8-2.5,6.2L561,392c0.9,2.4,3.8,3.6,6.2,2.7c2.5-1,3.7-3.8,2.7-6.2l-4.4-11.4
									c-0.9-2.4-3.8-3.6-6.2-2.7C559.3,374.3,559.3,374.3,559.2,374.4z"/>
							</g>
						</g>
					</g>
				</g>
			</g>
			<g>
				<g>
					<g>
						<path class="st2" d="M495.8,311.9c-10.4,24.2-0.4,52.7,22.9,65c1.2,0.6,2.5,1.2,3.7,1.8c6.4,2.8,13.1,4.2,20,4.2
							c4.3,0,8.5-0.6,12.7-1.6c2.1-0.6,4.3-1.3,6.3-2.1c2-0.8,3.9-1.7,5.8-2.8c9.9-5.5,17.5-13.9,22-24.3c5.4-12.5,5.5-26.3,0.5-39
							c-4.5-11.2-12.8-20.5-23.4-26.1c-1.2-0.6-2.5-1.3-3.8-1.8c-12.5-5.4-26.4-5.5-39-0.5C511,289.9,501.1,299.5,495.8,311.9z
							 M526.8,293c10.5-4.2,22-4.1,32.3,0.4c1,0.5,2.1,1,3.1,1.5c8.8,4.7,15.6,12.3,19.3,21.6c4.2,10.5,4.1,21.9-0.4,32.2
							c-4.4,10.3-12.6,18.2-23,22.4l-1,0.4c-10.4,3.8-21.5,3.5-31.4-0.8c-1-0.5-2.1-0.9-3.1-1.5c-19.2-10.2-27.5-33.8-18.9-53.8
							C508.3,305.1,516.4,297.1,526.8,293z"/>
					</g>
				</g>
			</g>
			<g>
				<g>
					<g>
						<path class="st5" d="M542.4,384.9C542.4,384.9,542.4,384.9,542.4,384.9c-7.2,0-14.2-1.5-20.9-4.3c-1.3-0.6-2.6-1.2-3.9-1.9
							c-24.2-12.8-34.6-42.5-23.8-67.6c5.5-12.9,15.8-22.9,28.9-28.2c13.1-5.2,27.6-5.1,40.6,0.5c1.3,0.6,2.7,1.2,3.9,1.9
							c11,5.8,19.7,15.5,24.3,27.2c5.2,13.2,5,27.5-0.5,40.5c-4.7,10.9-12.6,19.6-22.9,25.3c-1.9,1.1-3.9,2-6,2.8
							c-2.1,0.8-4.3,1.6-6.6,2.2C551.3,384.4,546.9,384.9,542.4,384.9z M542.5,283.1c-6.2,0-12.3,1.2-18.2,3.5
							c-12.1,4.9-21.6,14.1-26.7,26c-10,23.2-0.3,50.6,22,62.5c1.2,0.6,2.4,1.2,3.6,1.7c6.1,2.6,12.6,4,19.2,4l0,2v-2
							c4.1,0,8.2-0.5,12.1-1.6c2.1-0.5,4.1-1.2,6.1-2c1.9-0.8,3.8-1.7,5.5-2.6c9.5-5.3,16.8-13.3,21.2-23.4
							c5.2-12,5.3-25.3,0.5-37.4c-4.3-10.8-12.3-19.7-22.4-25.1c-1.2-0.6-2.4-1.2-3.6-1.7C555.6,284.5,549.2,283.1,542.5,283.1z
							 M542.4,376.1L542.4,376.1c-6,0-11.8-1.2-17.3-3.6c-1.1-0.5-2.2-1-3.2-1.6c-20.1-10.7-28.9-35.4-19.9-56.4
							c4.7-10.8,13.2-19.1,24.1-23.5c10.9-4.4,23.1-4.2,33.8,0.4c1.1,0.5,2.2,1,3.3,1.6c9.2,4.9,16.4,12.9,20.3,22.7
							c4.4,11,4.2,23-0.4,33.8c-4.6,10.8-13.2,19.1-24.1,23.5l-1,0.4C552.8,375.2,547.6,376.1,542.4,376.1z M542.6,291.9
							c-5.1,0-10.1,1-15,2.9c-9.9,4-17.7,11.6-21.9,21.4c-8.2,19-0.3,41.5,18,51.2c1,0.5,2,1,2.9,1.4c9.4,4.1,20,4.3,29.8,0.7l1-0.4
							c9.9-4,17.7-11.5,21.9-21.3c4.2-9.8,4.4-20.7,0.4-30.7c-3.5-8.8-10.1-16.2-18.4-20.6c-1-0.5-2-1-3-1.4
							C553.3,293,548,291.9,542.6,291.9z"/>
					</g>
				</g>
			</g>
			<g>
				<g>
					<g>
						<path class="st2" d="M555.2,392.8l20.2-8.1l21.3,53.1c2.2,5.6-0.5,11.9-6,14.1l0,0c-5.6,2.2-11.9-0.5-14.1-6L555.2,392.8z"/>
					</g>
				</g>
			</g>
			<g>
				<g>
					<g>
						<path class="st5" d="M586.5,454.7c-5.3,0-10-3.2-12-8.1l-21.3-53.1c-0.2-0.5-0.2-1.1,0-1.5c0.2-0.5,0.6-0.9,1.1-1.1l20.2-8.1
							c1-0.4,2.2,0.1,2.6,1.1l21.3,53.1c1.3,3.2,1.2,6.7-0.1,9.9c-1.4,3.2-3.9,5.6-7.1,6.9C589.8,454.4,588.2,454.7,586.5,454.7z
							 M557.8,393.9l20.5,51.2c1.4,3.4,4.6,5.6,8.2,5.6c1.1,0,2.2-0.2,3.3-0.6c2.2-0.9,3.9-2.6,4.8-4.7s1-4.6,0.1-6.8l-20.5-51.2
							L557.8,393.9z"/>
					</g>
				</g>
			</g>
			<g>
				<g>
					<path class="st4" d="M550.2,353.8h-15.4c-12,0-21.8-9.8-21.8-21.8l0,0c0-12,9.8-21.8,21.8-21.8h15.4c12,0,21.8,9.8,21.8,21.8
						l0,0C572,344,562.2,353.8,550.2,353.8z"/>
				</g>
				<g>
					<path class="st5" d="M550.2,355.8h-15.4c-13.2,0-23.8-10.7-23.8-23.8s10.7-23.8,23.8-23.8h15.4c13.2,0,23.8,10.7,23.8,23.8
						S563.4,355.8,550.2,355.8z M534.8,312.2c-10.9,0-19.8,8.9-19.8,19.8c0,10.9,8.9,19.8,19.8,19.8h15.4c10.9,0,19.8-8.9,19.8-19.8
						c0-10.9-8.9-19.8-19.8-19.8H534.8z"/>
				</g>
				<g>
					<polygon class="st2" points="558.5,332.4 537,344.8 537,320 					"/>
				</g>
			</g>
		</g>
		<g>
			<path class="st2" d="M424.2,99.1h-9.3c-3,0-5.5,2.5-5.5,5.5l0,0c0,4.5-3.6,8.1-8.1,8.1h-71.9c-4.5,0-8.1-3.6-8.1-8.1l0,0
				c0-3-2.5-5.5-5.5-5.5h-9.3c-11.2,0-20.2,9.1-20.2,20.2v305.9c0,8.7,7.1,15.8,15.8,15.8h126.6c8.7,0,15.8-7.1,15.8-15.8V119.3
				C444.4,108.2,435.4,99.1,424.2,99.1z"/>
			<path class="st9" d="M351.6,449.2h-48.3c-4.1,0-7.4-3.3-7.4-7.4v-32.7c0-4.1,3.3-7.4,7.4-7.4h48.3c4.1,0,7.4,3.3,7.4,7.4v32.7
				C359,445.9,355.7,449.2,351.6,449.2z"/>
			<g>
				<g>
					<path class="st9" d="M429.4,416.3H376c-1.1,0-2-0.9-2-2l0,0c0-1.1,0.9-2,2-2h53.3c1.1,0,2,0.9,2,2l0,0
						C431.3,415.4,430.5,416.3,429.4,416.3z"/>
				</g>
				<g>
					<path class="st9" d="M399.7,428.7H376c-1.1,0-2-0.9-2-2l0,0c0-1.1,0.9-2,2-2h23.7c1.1,0,2,0.9,2,2l0,0
						C401.7,427.8,400.8,428.7,399.7,428.7z"/>
				</g>
				<g>
					
						<ellipse transform="matrix(0.7071 -0.7071 0.7071 0.7071 -193.4456 413.7251)" class="st9" cx="402.7" cy="440.4" rx="5.7" ry="5.7"/>
					
						<ellipse transform="matrix(0.2298 -0.9732 0.9732 0.2298 -131.9775 713.9835)" class="st9" cx="385.1" cy="440.4" rx="5.7" ry="5.7"/>
					
						<ellipse transform="matrix(0.7071 -0.7071 0.7071 0.7071 -188.2911 426.1692)" class="st9" cx="420.3" cy="440.4" rx="5.7" ry="5.7"/>
				</g>
			</g>
			<linearGradient id="SVGID_1_" gradientUnits="userSpaceOnUse" x1="282.4411" y1="163.1885" x2="451.0174" y2="163.1885">
				<stop  offset="0" style="stop-color:#B1B2F1"/>
				<stop  offset="0.9988" style="stop-color:#9CA4FD"/>
			</linearGradient>
			<path class="st10" d="M421.1,93.7H312.4c-16.5,0-30,13.4-30,30v108.9H451V123.7C451,107.1,437.6,93.7,421.1,93.7z"/>
			<path class="st11" d="M428.1,89.8H302.7c-14.8,0-26.7,12-26.7,26.7v305.4c0,16.6,13.4,30,30,30h118.8c16.6,0,30-13.4,30-30V116.5
				C454.8,101.7,442.8,89.8,428.1,89.8z M444.4,425.3c0,8.7-7.1,15.8-15.8,15.8H302.1c-8.7,0-15.8-7.1-15.8-15.8V119.3
				c0-11.2,9.1-20.2,20.2-20.2h9.3c3,0,5.5,2.5,5.5,5.5c0,4.5,3.6,8.1,8.1,8.1h71.9c4.5,0,8.1-3.6,8.1-8.1c0-3,2.5-5.5,5.5-5.5h9.3
				c11.2,0,20.2,9.1,20.2,20.2V425.3z"/>
			<path class="st2" d="M374.7,105.6H356c-0.9,0-1.7-0.8-1.7-1.7l0,0c0-0.9,0.8-1.7,1.7-1.7h18.7c0.9,0,1.7,0.8,1.7,1.7l0,0
				C376.4,104.9,375.7,105.6,374.7,105.6z"/>
			<path class="st2" d="M307.8,107.8h-7.5c-0.6,0-1.1-0.5-1.1-1.1l0,0c0-0.6,0.5-1.1,1.1-1.1h7.5c0.6,0,1.1,0.5,1.1,1.1l0,0
				C308.9,107.3,308.4,107.8,307.8,107.8z"/>
			<path class="st2" d="M314.3,107.8h-2c-0.6,0-1.1-0.5-1.1-1.1l0,0c0-0.6,0.5-1.1,1.1-1.1h2c0.6,0,1.1,0.5,1.1,1.1l0,0
				C315.4,107.3,314.9,107.8,314.3,107.8z"/>
			<path class="st2" d="M416.5,105.5h2c0.6,0,1.1,0.5,1.1,1.1l0,0c0,0.6-0.5,1.1-1.1,1.1h-2c-0.6,0-1.1-0.5-1.1-1.1l0,0
				C415.3,106,415.8,105.5,416.5,105.5z"/>
			<path class="st2" d="M423,105.5h2c0.6,0,1.1,0.5,1.1,1.1l0,0c0,0.6-0.5,1.1-1.1,1.1h-2c-0.6,0-1.1-0.5-1.1-1.1l0,0
				C421.8,106,422.4,105.5,423,105.5z"/>
			<path class="st2" d="M429.5,105.5h1c0.6,0,1.1,0.5,1.1,1.1l0,0c0,0.6-0.5,1.1-1.1,1.1h-1c-0.6,0-1.1-0.5-1.1-1.1l0,0
				C428.4,106,428.9,105.5,429.5,105.5z"/>
			<g>
				<path class="st2" d="M388.4,142.2H345c-2.5,0-4.5,2-4.5,4.5v26.7c0,2.5,2,4.5,4.5,4.5h43.4c2.5,0,4.5-2,4.5-4.5v-26.7
					C393,144.3,390.9,142.2,388.4,142.2z M345,144.2h43.4c1.4,0,2.6,1.2,2.6,2.6v22.2l-10.2-8.7c-0.4-0.3-0.9-0.3-1.3,0l-11.1,9.5
					L354,153.4c-0.3-0.4-0.9-0.4-1.3-0.1l-10.2,8.6v-15.1C342.4,145.3,343.6,144.2,345,144.2z M342.4,173.5v-9.1l10.8-9l18.5,20.7
					H345C343.6,176.1,342.4,174.9,342.4,173.5z M388.4,176.1h-14.2l-4.4-5l10.4-8.9l10.8,9.2v2C391,174.9,389.9,176.1,388.4,176.1z"
					/>
				<path class="st2" d="M369.3,160.1c2.7,0,5-2.2,5-5c0-2.7-2.2-5-5-5c-2.7,0-5,2.2-5,5C364.4,157.8,366.6,160.1,369.3,160.1z
					 M369.3,152c1.7,0,3,1.4,3,3.1c0,1.7-1.4,3-3,3c-1.7,0-3.1-1.4-3.1-3C366.3,153.4,367.7,152,369.3,152z"/>
			</g>
			<path class="st2" d="M411.9,201.5h-90.3c-1.1,0-2-0.9-2-2l0,0c0-1.1,0.9-2,2-2h90.3c1.1,0,2,0.9,2,2l0,0
				C413.9,200.6,413,201.5,411.9,201.5z"/>
			<path class="st2" d="M382.1,214.5h-30.8c-1.1,0-2-0.9-2-2l0,0c0-1.1,0.9-2,2-2h30.8c1.1,0,2,0.9,2,2l0,0
				C384.1,213.6,383.2,214.5,382.1,214.5z"/>
			<g>
				<path class="st12" d="M382.1,244.8h-30.8c-1.1,0-2-0.9-2-2l0,0c0-1.1,0.9-2,2-2h30.8c1.1,0,2,0.9,2,2l0,0
					C384.1,243.9,383.2,244.8,382.1,244.8z"/>
				<path class="st12" d="M429.3,244.8h-30.8c-1.1,0-2-0.9-2-2l0,0c0-1.1,0.9-2,2-2h30.8c1.1,0,2,0.9,2,2l0,0
					C431.2,243.9,430.4,244.8,429.3,244.8z"/>
				<path class="st9" d="M335,244.8h-30.8c-1.1,0-2-0.9-2-2l0,0c0-1.1,0.9-2,2-2H335c1.1,0,2,0.9,2,2l0,0
					C337,243.9,336.1,244.8,335,244.8z"/>
			</g>
			<path class="st9" d="M351.6,315.3h-48.3c-4.1,0-7.4-3.3-7.4-7.4v-40.1c0-4.1,3.3-7.4,7.4-7.4h48.3c4.1,0,7.4,3.3,7.4,7.4v40.1
				C359,311.9,355.7,315.3,351.6,315.3z"/>
			<g>
				<g>
					<path class="st9" d="M429.4,274.9H376c-1.1,0-2-0.9-2-2l0,0c0-1.1,0.9-2,2-2h53.3c1.1,0,2,0.9,2,2l0,0
						C431.3,274,430.5,274.9,429.4,274.9z"/>
				</g>
				<g>
					<path class="st9" d="M399.7,287.3H376c-1.1,0-2-0.9-2-2v-0.1c0-1.1,0.9-2,2-2h23.8c1.1,0,2,0.9,2,2v0.1
						C401.7,286.4,400.8,287.3,399.7,287.3z"/>
				</g>
				<g>
					
						<ellipse transform="matrix(0.7071 -0.7071 0.7071 0.7071 -93.457 372.3085)" class="st9" cx="402.7" cy="299" rx="5.7" ry="5.7"/>
					
						<ellipse transform="matrix(0.2298 -0.9732 0.9732 0.2298 5.645 605.0663)" class="st9" cx="385.1" cy="299" rx="5.7" ry="5.7"/>
					
						<ellipse transform="matrix(0.7071 -0.7071 0.7071 0.7071 -88.3025 384.7525)" class="st9" cx="420.3" cy="299" rx="5.7" ry="5.7"/>
				</g>
			</g>
			<path class="st9" d="M351.6,386h-48.3c-4.1,0-7.4-3.3-7.4-7.4v-40.1c0-4.1,3.3-7.4,7.4-7.4h48.3c4.1,0,7.4,3.3,7.4,7.4v40.1
				C359,382.6,355.7,386,351.6,386z"/>
			<g>
				<g>
					<path class="st9" d="M429.4,345.6H376c-1.1,0-2-0.9-2-2l0,0c0-1.1,0.9-2,2-2h53.3c1.1,0,2,0.9,2,2l0,0
						C431.3,344.7,430.5,345.6,429.4,345.6z"/>
				</g>
				<g>
					<path class="st9" d="M399.7,358H376c-1.1,0-2-0.9-2-2l0,0c0-1.1,0.9-2,2-2h23.7c1.1,0,2,0.9,2,2l0,0
						C401.7,357.1,400.8,358,399.7,358z"/>
				</g>
				<g>
					
						<ellipse transform="matrix(0.7071 -0.7071 0.7071 0.7071 -143.4513 393.0168)" class="st9" cx="402.7" cy="369.7" rx="5.7" ry="5.7"/>
					
						<ellipse transform="matrix(0.2298 -0.9732 0.9732 0.2298 -63.1663 659.5249)" class="st9" cx="385.1" cy="369.7" rx="5.7" ry="5.7"/>
					
						<ellipse transform="matrix(0.7071 -0.7071 0.7071 0.7071 -138.2968 405.4608)" class="st9" cx="420.3" cy="369.7" rx="5.7" ry="5.7"/>
				</g>
			</g>
			<g>
				<path class="st2" d="M341,276.6h-27.1c-1.6,0-2.8,1.3-2.8,2.8v16.7c0,1.6,1.3,2.8,2.8,2.8H341c1.6,0,2.8-1.3,2.8-2.8v-16.7
					C343.8,277.9,342.6,276.6,341,276.6z M313.9,277.8H341c0.9,0,1.6,0.7,1.6,1.6v13.8l-6.4-5.4c-0.2-0.2-0.6-0.2-0.8,0l-6.9,5.9
					l-9.1-10.2c-0.2-0.2-0.6-0.3-0.8-0.1l-6.4,5.4v-9.4C312.3,278.6,313,277.8,313.9,277.8z M312.3,296.1v-5.7l6.7-5.6l11.5,12.9
					h-16.6C313,297.8,312.3,297,312.3,296.1z M341,297.8h-8.9l-2.8-3.1l6.5-5.5l6.8,5.8v1.3C342.6,297,341.9,297.8,341,297.8z"/>
				<path class="st2" d="M329.1,287.8c1.7,0,3.1-1.4,3.1-3.1c0-1.7-1.4-3.1-3.1-3.1c-1.7,0-3.1,1.4-3.1,3.1
					C326,286.4,327.4,287.8,329.1,287.8z M329.1,282.7c1,0,1.9,0.9,1.9,1.9c0,1-0.9,1.9-1.9,1.9c-1,0-1.9-0.9-1.9-1.9
					C327.2,283.6,328,282.7,329.1,282.7z"/>
			</g>
			<g>
				<path class="st2" d="M341,347.3h-27.1c-1.6,0-2.8,1.3-2.8,2.8v16.7c0,1.6,1.3,2.8,2.8,2.8H341c1.6,0,2.8-1.3,2.8-2.8v-16.7
					C343.8,348.6,342.6,347.3,341,347.3z M313.9,348.5H341c0.9,0,1.6,0.7,1.6,1.6V364l-6.4-5.4c-0.2-0.2-0.6-0.2-0.8,0l-6.9,5.9
					l-9.1-10.2c-0.2-0.2-0.6-0.3-0.8-0.1l-6.4,5.4v-9.4C312.3,349.3,313,348.5,313.9,348.5z M312.3,366.8v-5.7l6.7-5.6l11.5,12.9
					h-16.6C313,368.5,312.3,367.7,312.3,366.8z M341,368.5h-8.9l-2.8-3.1l6.5-5.5l6.8,5.8v1.3C342.6,367.7,341.9,368.5,341,368.5z"
					/>
				<path class="st2" d="M329.1,358.5c1.7,0,3.1-1.4,3.1-3.1c0-1.7-1.4-3.1-3.1-3.1c-1.7,0-3.1,1.4-3.1,3.1
					C326,357.1,327.4,358.5,329.1,358.5z M329.1,353.4c1,0,1.9,0.9,1.9,1.9c0,1-0.9,1.9-1.9,1.9c-1,0-1.9-0.9-1.9-1.9
					C327.2,354.3,328,353.4,329.1,353.4z"/>
			</g>
		</g>
	</g>
</g>
<g id="Layer_2">
	<g>
		<linearGradient id="SVGID_2_" gradientUnits="userSpaceOnUse" x1="645.067" y1="253.8753" x2="628.0781" y2="215.7805">
			<stop  offset="0" style="stop-color:#4E9CFF"/>
			<stop  offset="1" style="stop-color:#176AD4"/>
		</linearGradient>
		<circle class="st13" cx="629.9" cy="219.9" r="20.9"/>
		<g>
			<path class="st2" d="M624.4,231h-3.2c-1.2,0-2.2-1-2.2-2.2V221c0-1.2,1-2.2,2.2-2.2h3.2c0.4,0,0.7,0.3,0.7,0.7v10.7
				C625.1,230.7,624.8,231,624.4,231z M621.2,220.3c-0.4,0-0.7,0.3-0.7,0.7v7.9c0,0.4,0.3,0.7,0.7,0.7h2.5v-9.3H621.2z"/>
			<path class="st2" d="M630.2,231.6c-1.3,0-2.3-0.1-2.8-0.4c-1.4-0.8-2.9-0.5-3-0.5c-0.2,0-0.4,0-0.6-0.2s-0.3-0.3-0.3-0.6v-9.6
				c0-0.3,0.1-0.5,0.4-0.6c0,0,1.4-0.8,2.1-2c0.3-0.5,0.5-1,0.8-1.6c0.5-1.1,0.9-2.2,1.7-2.7c0.6-0.4,0.8-1.1,0.9-2.2
				c0.1-0.5,0.1-1.1,0.3-1.6c0.3-0.6,0.7-1.1,1.4-1.2l0,0c0.9-0.2,1.7-0.1,2.3,0.5c0.8,0.7,1.2,1.7,1.4,2.5c0.2,0.8,0.3,1.7,0.3,2.3
				c-0.1,0.9-0.6,1.9-1,2.6c1.2,0,3,0.1,4,0.2c0.7,0.1,1.4,0.5,1.9,1.2c0.5,0.7,0.8,1.5,0.7,2.1c-0.1,0.4-0.2,0.8-0.4,1.1
				c-0.1,0.2-0.2,0.5-0.2,0.6c0,0,0,0.1,0.1,0.2c0.2,0.7,0.8,2.5-0.4,3.4c-0.1,0.1-0.1,0.4,0,0.7c0.1,0.7,0.2,1.7-0.8,2.4
				c-0.2,0.1-0.2,0.1-0.1,0.6c0.1,0.3,0.2,0.6,0.1,0.9c-0.1,0.3-0.3,0.8-0.9,1c-0.7,0.3-3,0.6-5.1,0.9
				C632,231.5,631.1,231.6,630.2,231.6z M625.1,229.1c0.8,0,1.9,0.1,3,0.7c0.4,0.2,1.9,0.4,4.8,0.1c2.1-0.2,4.1-0.6,4.6-0.7
				c0-0.1,0-0.1,0-0.2c-0.1-0.5-0.4-1.5,0.6-2.2c0.2-0.2,0.2-0.3,0.2-1c-0.1-0.6-0.2-1.5,0.6-2.1c0.4-0.3,0-1.4-0.1-1.8
				c0-0.1-0.1-0.2-0.1-0.3c-0.1-0.5,0.1-0.9,0.3-1.4c0.1-0.3,0.2-0.6,0.3-0.8c0-0.1-0.1-0.5-0.4-1c-0.2-0.2-0.5-0.6-0.9-0.6
				c-1.5-0.2-4.7-0.2-5-0.2c-0.3,0-0.5-0.1-0.7-0.4c-0.3-0.4,0-0.8,0.4-1.5c0.4-0.6,0.9-1.6,1-2.3c0.1-0.6-0.3-2.7-1.2-3.5
				c-0.3-0.2-0.6-0.3-1-0.2l0,0c-0.4,0.1-0.5,0.5-0.6,1.6c-0.1,1.1-0.3,2.4-1.5,3.3c-0.4,0.3-0.8,1.2-1.2,2.1
				c-0.3,0.6-0.5,1.2-0.8,1.8c-0.7,1.1-1.7,1.9-2.2,2.3V229.1z"/>
		</g>
	</g>
	<g>
		
			<linearGradient id="SVGID_3_" gradientUnits="userSpaceOnUse" x1="-50.1391" y1="29.1694" x2="-61.7811" y2="3.0642" gradientTransform="matrix(0.8033 -0.5955 0.5955 0.8033 136.393 10.4497)">
			<stop  offset="0" style="stop-color:#4E9CFF"/>
			<stop  offset="1" style="stop-color:#176AD4"/>
		</linearGradient>
		<path class="st14" d="M102.7,42.7c4.7,6.3,3.4,15.3-3,20c-6.3,4.7-15.3,3.4-20-3c-4.7-6.3-3.4-15.3,3-20
			C89.1,35,98,36.4,102.7,42.7z"/>
		<g>
			<path class="st2" d="M92.8,59.6L91,60.9c-0.7,0.5-1.6,0.3-2.1-0.3l-3.2-4.3c-0.5-0.7-0.3-1.6,0.3-2.1l1.8-1.3
				c0.2-0.2,0.5-0.1,0.7,0.1l4.4,5.9C93,59.1,93,59.4,92.8,59.6z M86.6,55c-0.2,0.2-0.3,0.4-0.1,0.7l3.2,4.3
				c0.2,0.2,0.4,0.3,0.7,0.1l1.4-1L88,54L86.6,55z"/>
			<path class="st2" d="M96.2,57.5c-0.7,0.5-1.3,0.8-1.7,0.9c-1.1,0.2-1.8,0.9-1.9,0.9c-0.1,0.1-0.2,0.2-0.4,0.2
				c-0.1,0-0.3-0.1-0.4-0.2L88,54c-0.1-0.1-0.1-0.3-0.1-0.5c0,0,0.4-1,0.3-2c0-0.4-0.1-0.8-0.2-1.2c-0.2-0.8-0.4-1.6-0.2-2.2
				c0.2-0.5,0-0.9-0.4-1.6c-0.2-0.3-0.4-0.6-0.5-1c-0.1-0.5,0-0.9,0.3-1.2l0,0c0.4-0.5,0.9-0.7,1.5-0.7c0.7,0.1,1.4,0.5,1.8,0.8
				c0.5,0.4,0.9,0.8,1.1,1.2c0.3,0.5,0.4,1.3,0.5,1.8c0.7-0.5,1.7-1.2,2.3-1.5c0.4-0.2,1-0.3,1.5-0.1c0.5,0.2,1,0.5,1.2,0.9
				c0.1,0.2,0.2,0.5,0.3,0.8c0,0.1,0.1,0.3,0.1,0.4c0,0,0.1,0.1,0.1,0.1c0.4,0.3,1.4,1,1.1,2c0,0.1,0.1,0.2,0.3,0.4
				c0.3,0.3,0.8,0.9,0.5,1.6c0,0.1,0,0.1,0.2,0.4c0.2,0.1,0.3,0.3,0.4,0.5c0.1,0.2,0.2,0.5-0.1,0.9c-0.3,0.4-1.4,1.6-2.4,2.5
				C97.2,56.8,96.7,57.2,96.2,57.5z M92.4,58.2c0.4-0.3,1.1-0.7,2-0.8c0.3-0.1,1.2-0.6,2.7-1.9c1.1-1,2-2,2.2-2.3
				c0,0-0.1-0.1-0.1-0.1c-0.3-0.2-0.8-0.7-0.5-1.5c0.1-0.2,0-0.3-0.3-0.6c-0.3-0.3-0.7-0.7-0.5-1.4c0.1-0.3-0.5-0.8-0.8-0.9
				c-0.1-0.1-0.1-0.1-0.2-0.2c-0.2-0.2-0.3-0.5-0.4-0.9c-0.1-0.2-0.1-0.4-0.2-0.5c0-0.1-0.3-0.3-0.6-0.4c-0.2,0-0.5-0.1-0.8,0
				c-0.9,0.5-2.7,1.8-2.8,1.9c-0.2,0.1-0.4,0.1-0.5,0.1c-0.3-0.1-0.4-0.4-0.4-1c-0.1-0.5-0.2-1.2-0.4-1.7c-0.2-0.4-1.3-1.4-2.1-1.5
				c-0.3,0-0.4,0.1-0.6,0.3l0,0c-0.2,0.2-0.1,0.5,0.3,1.1c0.4,0.6,0.8,1.5,0.5,2.4c-0.1,0.3,0,1,0.2,1.6c0.1,0.4,0.2,0.9,0.3,1.3
				c0.1,0.9-0.1,1.8-0.3,2.2L92.4,58.2z"/>
		</g>
	</g>
	<g>
		
			<linearGradient id="SVGID_4_" gradientUnits="userSpaceOnUse" x1="927.0297" y1="232.9399" x2="894.5735" y2="256.0728" gradientTransform="matrix(0.2724 0.9622 -0.9622 0.2724 631.7118 -444.7985)">
			<stop  offset="0" style="stop-color:#FFEA17"/>
			<stop  offset="0.9987" style="stop-color:#FFB217"/>
		</linearGradient>
		<path class="st15" d="M622.6,510.3c13.3-3.8,26.8-17.7,30.2-31c1.8-7.1,0.4-12.5-3.3-15.6l0,0l-6.5-6.4l-1,3.6
			c-2.1-0.1-4.5,0.2-7.1,0.9c-13.3,3.8-26.8,17.7-30.2,31c-0.6,2.3-0.8,4.5-0.8,6.4l-3.5,2l6.4,6.2l0,0
			C610,511.1,615.6,512.3,622.6,510.3z"/>
		
			<linearGradient id="SVGID_5_" gradientUnits="userSpaceOnUse" x1="1010.1335" y1="-91.8838" x2="1051.8936" y2="-53.7826" gradientTransform="matrix(-0.2452 0.9694 -1.111 0.3145 778.0585 -481.8037)">
			<stop  offset="0" style="stop-color:#FFEA17"/>
			<stop  offset="0.9987" style="stop-color:#FFB217"/>
		</linearGradient>
		<path class="st16" d="M615.6,503.5c-13.3,3.8-21.3-4-17.9-17.4c3.4-13.4,16.9-27.3,30.2-31c13.3-3.8,21.3,4,17.9,17.4
			C642.4,485.8,628.9,499.7,615.6,503.5z"/>
		<g>
			<path class="st17" d="M606.9,483.1L606.9,483.1c0.1-0.2,0.3-0.4,0.5-0.5l2.9-0.8c0.8-2.2,1.7-4,2.6-5.2c1-1.2,2.1-2.3,3.5-3.1
				c1.4-0.8,3.1,0.4,2.7,2l0,0c-0.1,0.6-0.5,1-1.1,1.2c-1,0.4-1.6,0.8-2.1,1.1c-0.8,0.6-1.5,1.6-2.1,2.9l7-2l0.7-1.4
				c1.1-2.3,2.4-4,3.7-5.1c1.3-1.2,2.7-2,4.3-2.4c1-0.3,1.9-0.4,2.6-0.3c0.7,0.1,1.3,0.4,1.8,0.8c0.6,0.6,0.9,1.3,0.9,2.1
				c0,0.5,0,1.3-0.2,2.4l1-0.3c0.5-0.1,1,0.3,0.9,0.9l0,0c-0.1,0.2-0.3,0.4-0.5,0.5l-1.8,0.5c-0.6,1.8-1.4,3.3-2.4,4.6
				c-0.8,1.1-1.8,2.1-2.9,2.8c-1.3,0.9-3-0.3-2.6-1.8l0,0c0.1-0.5,0.5-0.9,1-1.1c0.6-0.3,1.1-0.5,1.5-0.8c0.9-0.6,1.5-1.5,1.8-2.6
				l-6.2,1.8c-1.5,2.8-2.8,4.8-3.7,5.9c-1.5,1.8-3.3,3-5.4,3.6c-2.7,0.8-4.5,0.3-5.2-1.4c-0.4-1-0.5-2.4-0.2-4l-2.1,0.6
				C607.3,484.1,606.8,483.7,606.9,483.1z M631,476c0.2-0.9,0.1-1.6-0.2-1.9c-0.4-0.3-1-0.4-1.8-0.1c-0.9,0.3-1.7,0.8-2.4,1.6
				c-0.4,0.5-0.8,1.1-1.3,2L631,476z M613.5,482.4c-0.1,0.8-0.1,1.4,0.1,1.7c0.3,0.5,1.1,0.6,2.3,0.3c0.9-0.3,1.8-0.8,2.5-1.6
				c0.4-0.5,0.9-1.2,1.5-2.2L613.5,482.4z"/>
		</g>
	</g>
	<g>
		
			<linearGradient id="SVGID_6_" gradientUnits="userSpaceOnUse" x1="891.0264" y1="238.03" x2="852.0184" y2="265.8326" gradientTransform="matrix(6.070000e-02 0.9982 0.9982 -6.070000e-02 -278.9836 -408.4846)">
			<stop  offset="0" style="stop-color:#FFEA17"/>
			<stop  offset="0.9987" style="stop-color:#FFB217"/>
		</linearGradient>
		<path class="st18" d="M55.1,451.2c-16.6,1-37.4-9.4-46.6-23.2c-4.8-7.3-5.4-14.1-2.5-19l0,0l4.8-9.8l2.6,3.7
			c2.4-1,5.2-1.6,8.5-1.8c16.6-1,37.4,9.4,46.6,23.2c1.6,2.4,2.7,4.7,3.4,7l4.7,0.9l-4.8,9.5l0,0C69.7,447.1,63.9,450.7,55.1,451.2z
			"/>
		
			<linearGradient id="SVGID_7_" gradientUnits="userSpaceOnUse" x1="956.5433" y1="-61.6729" x2="1006.7321" y2="-15.8814" gradientTransform="matrix(0.5516 0.8341 1.1526 -7.010000e-02 -429.2025 -394.444)">
			<stop  offset="0" style="stop-color:#FFEA17"/>
			<stop  offset="0.9987" style="stop-color:#FFB217"/>
		</linearGradient>
		<path class="st19" d="M60.4,440.7c16.6-1,22.6-13,13.4-26.9c-9.2-13.8-30-24.2-46.6-23.2c-16.6,1-22.6,13-13.4,26.9
			C23,431.3,43.8,441.7,60.4,440.7z"/>
		<g>
			<path class="st17" d="M61.5,415.5l-2.6,0.2c1,1.8,1.4,3.3,1.3,4.7c-0.2,2.2-1.9,3.4-5.4,3.6c-2.6,0.2-5.1-0.5-7.5-1.9
				c-1.5-0.9-3.6-2.6-6.5-5.2l-7.7,0.5c0.8,1.1,1.9,1.9,3.1,2.2c0.5,0.2,1.2,0.3,2,0.3c0.6,0,1.2,0.4,1.6,0.9l0,0
				c1,1.5-0.4,3.6-2.2,3.1c-1.6-0.4-3-1.1-4.4-2c-1.6-1-3.1-2.4-4.5-4.2l-2.3,0.1c-0.3,0-0.6-0.1-0.8-0.4l0,0
				c-0.4-0.5,0-1.3,0.7-1.3l1.2-0.1c-0.7-1.2-1.1-2.1-1.2-2.7c-0.3-1-0.2-1.9,0.2-2.8c0.3-0.7,0.9-1.2,1.7-1.6
				c0.8-0.4,1.8-0.7,3.1-0.7c1.9-0.1,3.8,0.2,5.8,1c1.9,0.8,4,2.3,6.2,4.4l1.4,1.3l8.7-0.5c-1.1-1.3-2.3-2.1-3.5-2.5
				c-0.6-0.2-1.5-0.3-2.8-0.4c-0.7,0-1.3-0.4-1.7-1l0,0c-1.1-1.6,0.4-3.8,2.3-3.4c1.9,0.4,3.6,1.1,5.1,2.1c1.6,1,3.3,2.7,5.1,4.9
				l3.6-0.2c0.3,0,0.6,0.1,0.8,0.4l0,0C62.5,414.7,62.1,415.5,61.5,415.5z M39.1,415.1c-0.9-0.8-1.6-1.4-2.2-1.8
				c-1.1-0.7-2.3-1-3.4-0.9c-1,0.1-1.7,0.4-2,0.9c-0.3,0.5-0.1,1.3,0.5,2.2L39.1,415.1z M46.4,416.4c1,0.9,1.9,1.6,2.5,1.9
				c1.1,0.6,2.3,0.9,3.4,0.8c1.5-0.1,2.4-0.5,2.5-1.3c0.1-0.4-0.1-1.1-0.5-2L46.4,416.4z"/>
		</g>
	</g>
	<g>
		
			<linearGradient id="SVGID_8_" gradientUnits="userSpaceOnUse" x1="353.1902" y1="491.2768" x2="334.5548" y2="504.559" gradientTransform="matrix(-0.8598 0.5107 -0.5107 -0.8598 1028.34 371.9644)">
			<stop  offset="0" style="stop-color:#FFEA17"/>
			<stop  offset="0.9987" style="stop-color:#FFB217"/>
		</linearGradient>
		<path class="st20" d="M468.4,109.1c4,6.8,13.8,12.3,21.7,12.2c4.2-0.1,7-1.6,8.2-4.1l0,0l2.6-4.5l-2.2,0c-0.3-1.2-0.8-2.5-1.6-3.8
			c-4-6.8-13.8-12.3-21.7-12.2c-1.4,0-2.6,0.2-3.7,0.5l-1.6-1.6l-2.5,4.5l0,0C466.1,102.2,466.3,105.5,468.4,109.1z"/>
		
			<linearGradient id="SVGID_9_" gradientUnits="userSpaceOnUse" x1="370.7726" y1="402.2372" x2="394.7487" y2="424.1126" gradientTransform="matrix(-0.9999 1.230000e-02 -0.5897 -0.9928 1100.996 503.1616)">
			<stop  offset="0" style="stop-color:#FFEA17"/>
			<stop  offset="0.9987" style="stop-color:#FFB217"/>
		</linearGradient>
		<path class="st21" d="M471.2,104.2c-4-6.8-0.9-12.4,7-12.5c7.9-0.1,17.6,5.3,21.7,12.2c4,6.8,0.9,12.4-7,12.5
			C484.9,116.4,475.2,111,471.2,104.2z"/>
		<g>
			<path class="st17" d="M481.2,96.4L481.2,96.4c0.1,0,0.3,0.1,0.4,0.2l0.9,1.5c1.4,0.1,2.4,0.3,3.3,0.7c0.8,0.3,1.6,0.8,2.2,1.5
				c0.7,0.7,0.2,1.8-0.7,1.8l0,0c-0.3,0-0.6-0.2-0.8-0.4c-0.4-0.5-0.7-0.8-0.9-1c-0.5-0.4-1.1-0.6-1.9-0.7l2.1,3.6l0.9,0.2
				c1.4,0.3,2.6,0.7,3.4,1.3c0.8,0.6,1.5,1.2,2,2c0.3,0.5,0.5,1,0.5,1.4c0.1,0.4,0,0.8-0.2,1.1c-0.2,0.4-0.6,0.7-1.1,0.8
				c-0.3,0.1-0.7,0.2-1.4,0.2l0.3,0.5c0.2,0.3,0,0.6-0.3,0.6l0,0c-0.1,0-0.3-0.1-0.4-0.2l-0.6-0.9c-1.1-0.1-2.1-0.3-2.9-0.6
				c-0.7-0.3-1.4-0.7-2-1.2c-0.7-0.6-0.2-1.7,0.6-1.7l0,0c0.3,0,0.6,0.1,0.8,0.4c0.2,0.3,0.4,0.5,0.6,0.7c0.5,0.4,1.1,0.6,1.7,0.6
				l-1.9-3.2c-1.8-0.4-3.1-0.8-3.8-1.2c-1.2-0.6-2.1-1.4-2.8-2.5c-0.8-1.4-0.8-2.4,0-3.1c0.5-0.4,1.2-0.6,2.2-0.7l-0.6-1.1
				C480.7,96.7,480.9,96.4,481.2,96.4z M488.7,108.7c0.6,0,0.9-0.2,1-0.4c0.1-0.3,0.1-0.6-0.2-1c-0.3-0.5-0.7-0.8-1.3-1.1
				c-0.3-0.1-0.7-0.3-1.3-0.4L488.7,108.7z M482.6,99.9c-0.5,0.1-0.8,0.2-0.9,0.3c-0.3,0.3-0.2,0.7,0.2,1.3c0.3,0.5,0.7,0.9,1.2,1.1
				c0.3,0.2,0.8,0.3,1.4,0.5L482.6,99.9z"/>
		</g>
	</g>
	<g>
		
			<linearGradient id="SVGID_10_" gradientUnits="userSpaceOnUse" x1="619.9921" y1="1035.087" x2="605.2619" y2="1045.5858" gradientTransform="matrix(0.9844 -0.1757 0.1757 0.9844 -634.3407 -754.3871)">
			<stop  offset="0" style="stop-color:#FFEA17"/>
			<stop  offset="0.9987" style="stop-color:#FFB217"/>
		</linearGradient>
		<path class="st22" d="M156,172.5c-1.1-6.2-6.8-12.9-12.7-15c-3.1-1.1-5.6-0.7-7.2,0.8l0,0l-3.2,2.6l1.6,0.6
			c-0.1,1-0.1,2.1,0.1,3.3c1.1,6.2,6.8,12.9,12.7,15c1,0.4,2,0.6,2.9,0.6l0.7,1.7l3.1-2.6l0,0C155.8,178.2,156.6,175.8,156,172.5z"
			/>
		
			<linearGradient id="SVGID_11_" gradientUnits="userSpaceOnUse" x1="684.3584" y1="736.5681" x2="703.3098" y2="753.8591" gradientTransform="matrix(0.9404 0.34 0.2029 1.1367 -655.4405 -903.7294)">
			<stop  offset="0" style="stop-color:#FFEA17"/>
			<stop  offset="0.9987" style="stop-color:#FFB217"/>
		</linearGradient>
		<path class="st23" d="M152.6,175.4c1.1,6.2-2.8,9.4-8.7,7.3c-5.9-2.1-11.6-8.9-12.7-15c-1.1-6.2,2.8-9.4,8.7-7.3
			C145.8,162.5,151.5,169.2,152.6,175.4z"/>
		<g>
			<path class="st17" d="M143,178.4L143,178.4c-0.1,0-0.2-0.1-0.2-0.2l-0.2-1.3c-1-0.5-1.7-0.9-2.2-1.4c-0.5-0.5-0.9-1.1-1.2-1.7
				c-0.3-0.7,0.3-1.4,1-1.1l0,0c0.2,0.1,0.4,0.3,0.5,0.5c0.1,0.5,0.3,0.8,0.4,1c0.2,0.4,0.7,0.8,1.2,1.1l-0.6-3.2l-0.6-0.4
				c-1-0.6-1.7-1.2-2.2-1.9c-0.5-0.6-0.8-1.3-0.9-2c-0.1-0.5-0.1-0.9,0-1.2c0.1-0.3,0.2-0.6,0.4-0.8c0.3-0.2,0.6-0.3,1-0.3
				c0.2,0,0.6,0.1,1.1,0.2l-0.1-0.5c0-0.2,0.2-0.4,0.4-0.4l0,0c0.1,0,0.2,0.1,0.2,0.2l0.1,0.8c0.8,0.3,1.4,0.8,2,1.3
				c0.5,0.4,0.9,0.9,1.1,1.5c0.3,0.6-0.3,1.3-0.9,1.1l0,0c-0.2-0.1-0.4-0.3-0.5-0.5c-0.1-0.3-0.2-0.5-0.3-0.7
				c-0.2-0.4-0.6-0.7-1.1-0.9l0.5,2.9c1.2,0.8,2.1,1.5,2.5,1.9c0.7,0.8,1.2,1.6,1.4,2.6c0.2,1.3-0.1,2-0.8,2.3
				c-0.5,0.2-1.1,0.1-1.8-0.1l0.2,1C143.5,178.3,143.3,178.5,143,178.4z M140.9,167.2c-0.4-0.1-0.7-0.1-0.9,0
				c-0.2,0.2-0.2,0.4-0.1,0.8c0.1,0.4,0.3,0.8,0.6,1.2c0.2,0.2,0.5,0.4,0.8,0.7L140.9,167.2z M143,175.4c0.4,0.1,0.6,0.1,0.8,0
				c0.3-0.1,0.3-0.5,0.2-1c-0.1-0.4-0.3-0.8-0.6-1.2c-0.2-0.2-0.5-0.5-0.9-0.8L143,175.4z"/>
		</g>
	</g>
</g>
</svg>
