<svg width="440" height="321" viewBox="0 0 440 321" fill="none" xmlns="http://www.w3.org/2000/svg">
<path d="M345.595 133H94.4045C42.2664 133 0 174.933 0 226.659C0 278.386 42.2664 320.319 94.4045 320.319H345.595C397.734 320.319 440 278.386 440 226.659C440 174.933 397.734 133 345.595 133Z" fill="#EBFFFC"/>
<path d="M440 319H0V320H440V319Z" fill="#2A2A2A"/>
<path d="M165 0H164V256.5H165V0Z" fill="#EBFFFC"/>
<path d="M175.01 0H174.01V256.5H175.01V0Z" fill="#EBFFFC"/>
<path d="M185.02 0H184.02V256.5H185.02V0Z" fill="#EBFFFC"/>
<path d="M195.029 0H194.029V256.5H195.029V0Z" fill="#EBFFFC"/>
<path d="M205.039 0H204.039V256.5H205.039V0Z" fill="#EBFFFC"/>
<path d="M215.051 0H214.051V256.5H215.051V0Z" fill="#EBFFFC"/>
<path d="M225.061 0H224.061V256.5H225.061V0Z" fill="#EBFFFC"/>
<path d="M235.07 0H234.07V256.5H235.07V0Z" fill="#EBFFFC"/>
<path d="M245.09 0H244.09V256.5H245.09V0Z" fill="#EBFFFC"/>
<path d="M255 0H254V13H255V0Z" fill="#EBFFFC"/>
<path d="M265 0H264V13H265V0Z" fill="#EBFFFC"/>
<path d="M275 0H274V13H275V0Z" fill="#EBFFFC"/>
<rect x="248.4" y="13.4" width="97.2" height="65.2" rx="3.6" fill="white" stroke="#2A2A2A" stroke-width="0.8"/>
<path d="M346 25H248V26H346V25Z" fill="#2A2A2A"/>
<path d="M255.5 21.4C256.499 21.4 257.4 20.621 257.4 19.5037C257.4 18.4493 256.639 17.5034 255.48 17.6075C254.489 17.6178 253.6 18.394 253.6 19.5037C253.6 20.5022 254.382 21.4 255.5 21.4Z" fill="white" stroke="#2A2A2A" stroke-width="0.8"/>
<path d="M261.5 21.4C262.499 21.4 263.4 20.621 263.4 19.5037C263.4 18.4493 262.639 17.5034 261.48 17.6075C260.489 17.6178 259.6 18.394 259.6 19.5037C259.6 20.5022 260.382 21.4 261.5 21.4Z" fill="white" stroke="#2A2A2A" stroke-width="0.8"/>
<path d="M267.5 21.4C268.499 21.4 269.4 20.621 269.4 19.5037C269.4 18.4368 268.541 17.5039 267.478 17.6076C266.488 17.6189 265.6 18.3947 265.6 19.5037C265.6 20.5022 266.382 21.4 267.5 21.4Z" fill="white" stroke="#2A2A2A" stroke-width="0.8"/>
<path d="M223.928 13H206.042H194.328H185.889C184.882 13 184 13.8817 184 14.8893V35.5461C184 36.5537 184.882 37.4354 185.889 37.4354H194.958H195.084H206.546C206.672 37.4354 206.798 37.4354 206.924 37.5613L216.497 47.6378C216.748 48.0157 217.378 47.7637 217.378 47.2599V37.9392C217.378 37.6873 217.63 37.4354 217.882 37.4354H224.18C225.062 37.4354 225.691 36.6797 225.691 35.798V14.7634C225.565 13.7557 224.81 13 223.928 13Z" fill="#FFDA88"/>
<path d="M190.171 19.8007H219.141C219.393 19.8007 219.518 19.6747 219.518 19.4228C219.518 19.1709 219.393 19.0449 219.141 19.0449H190.171C189.919 19.0449 189.793 19.1709 189.793 19.4228C189.919 19.6747 190.045 19.8007 190.171 19.8007Z" fill="white"/>
<path d="M199.995 31.0116H219.14C219.392 31.0116 219.518 30.8856 219.518 30.6337C219.518 30.3818 219.392 30.2559 219.14 30.2559H199.995C199.743 30.2559 199.617 30.3818 199.617 30.6337C199.617 30.8856 199.869 31.0116 199.995 31.0116Z" fill="white"/>
<path d="M206.042 25.2167H219.267C219.519 25.2167 219.645 25.0907 219.645 24.8388C219.645 24.5869 219.519 24.4609 219.267 24.4609H206.042C205.79 24.4609 205.664 24.5869 205.664 24.8388C205.664 25.0907 205.79 25.2167 206.042 25.2167Z" fill="white"/>
<path d="M190.171 25.2167H203.396C203.648 25.2167 203.774 25.0907 203.774 24.8388C203.774 24.5869 203.648 24.4609 203.396 24.4609H190.171C189.919 24.4609 189.793 24.5869 189.793 24.8388C189.793 25.0907 189.919 25.2167 190.171 25.2167Z" fill="white"/>
<path d="M323.22 229.723H117.787C112.68 229.723 108.74 226.088 108.74 221.558V78.3465V62.3501C108.74 57.946 112.806 54.1852 117.787 54.1852H323.346C328.453 54.1852 332.393 57.8204 332.393 62.3501V221.684C332.393 226.078 328.338 229.723 323.22 229.723Z" fill="white" stroke="#2A2A2A" stroke-width="0.8"/>
<path d="M298.787 189.314H288.711V196.998H298.787V189.314Z" fill="#FFDA88"/>
<path d="M288.709 189.314H278.633V196.998H288.709V189.314Z" fill="#FFC064"/>
<path d="M308.737 189.314H298.66V196.998H308.737V189.314Z" fill="#02D2B6"/>
<path d="M268.684 189.314H258.607V196.998H268.684V189.314Z" fill="#FFDA88"/>
<path d="M258.733 189.314H248.656V196.998H258.733V189.314Z" fill="#FFC064"/>
<path d="M278.76 189.314H268.684V196.998H278.76V189.314Z" fill="#02D2B6"/>
<path d="M298.787 204.807H288.711V212.49H298.787V204.807Z" fill="#FFDA88"/>
<path d="M288.709 204.807H278.633V212.49H288.709V204.807Z" fill="#FFC064"/>
<path d="M308.737 204.807H298.66V212.49H308.737V204.807Z" fill="#02D2B6"/>
<path d="M268.684 204.807H258.607V212.49H268.684V204.807Z" fill="#FFDA88"/>
<path d="M258.733 204.807H248.656V212.49H258.733V204.807Z" fill="#FFC064"/>
<path d="M278.76 204.807H268.684V212.49H278.76V204.807Z" fill="#02D2B6"/>
<path d="M298.787 173.947H288.711V181.631H298.787V173.947Z" fill="#FFDA88"/>
<path d="M288.709 173.947H278.633V181.631H288.709V173.947Z" fill="#FFC064"/>
<path d="M308.737 173.947H298.66V181.631H308.737V173.947Z" fill="#02D2B6"/>
<path d="M268.684 173.947H258.607V181.631H268.684V173.947Z" fill="#FFDA88"/>
<path d="M258.733 173.947H248.656V181.631H258.733V173.947Z" fill="#FFC064"/>
<path d="M278.76 173.947H268.684V181.631H278.76V173.947Z" fill="#02D2B6"/>
<path d="M298.787 159.463H288.711V167.146H298.787V159.463Z" fill="#FFDA88"/>
<path d="M288.709 159.463H278.633V167.146H288.709V159.463Z" fill="#FFC064"/>
<path d="M308.737 159.463H298.66V167.146H308.737V159.463Z" fill="#02D2B6"/>
<path d="M268.684 159.463H258.607V167.146H268.684V159.463Z" fill="#FFDA88"/>
<path d="M258.733 159.463H248.656V167.146H258.733V159.463Z" fill="#FFC064"/>
<path d="M278.76 159.463H268.684V167.146H278.76V159.463Z" fill="#02D2B6"/>
<path d="M211.749 184.023H201.547V214.631H211.749V184.023Z" fill="#FFC064"/>
<path d="M224.345 170.42H214.143V214.63H224.345V170.42Z" fill="#FFDA88"/>
<path d="M237.318 160.344H227.115V214.631H237.318V160.344Z" fill="#02D2B6"/>
<path d="M108.615 81.3471V62.3501C108.615 57.946 112.681 54.1852 117.662 54.1852H323.221C328.328 54.1852 332.268 57.8204 332.268 62.3501V81.2216L108.615 81.3471Z" fill="#02D2B6" stroke="#2A2A2A" stroke-width="0.8"/>
<path d="M124.462 72.4266C126.41 72.4266 127.989 70.8476 127.989 68.8998C127.989 66.952 126.41 65.373 124.462 65.373C122.515 65.373 120.936 66.952 120.936 68.8998C120.936 70.8476 122.515 72.4266 124.462 72.4266Z" fill="#02D2B6"/>
<path d="M124.463 73.0572C122.196 73.0572 120.307 71.1679 120.307 68.9007C120.307 66.6335 122.196 64.7441 124.463 64.7441C126.73 64.7441 128.62 66.6335 128.62 68.9007C128.62 71.1679 126.73 73.0572 124.463 73.0572ZM124.463 66.0037C122.826 66.0037 121.566 67.2632 121.566 68.9007C121.566 70.5381 122.826 71.7977 124.463 71.7977C126.101 71.7977 127.36 70.5381 127.36 68.9007C127.36 67.2632 126.101 66.0037 124.463 66.0037Z" fill="white"/>
<path d="M137.689 72.4266C139.637 72.4266 141.216 70.8476 141.216 68.8998C141.216 66.952 139.637 65.373 137.689 65.373C135.741 65.373 134.162 66.952 134.162 68.8998C134.162 70.8476 135.741 72.4266 137.689 72.4266Z" fill="#02D2B6"/>
<path d="M137.688 73.0572C135.421 73.0572 133.531 71.1679 133.531 68.9007C133.531 66.6335 135.421 64.7441 137.688 64.7441C139.955 64.7441 141.844 66.6335 141.844 68.9007C141.844 71.1679 139.955 73.0572 137.688 73.0572ZM137.688 66.0037C136.05 66.0037 134.791 67.2632 134.791 68.9007C134.791 70.5381 136.05 71.7977 137.688 71.7977C139.325 71.7977 140.585 70.5381 140.585 68.9007C140.585 67.2632 139.325 66.0037 137.688 66.0037Z" fill="white"/>
<path d="M150.662 72.4266C152.609 72.4266 154.188 70.8476 154.188 68.8998C154.188 66.952 152.609 65.373 150.662 65.373C148.714 65.373 147.135 66.952 147.135 68.8998C147.135 70.8476 148.714 72.4266 150.662 72.4266Z" fill="#02D2B6"/>
<path d="M150.662 73.0572C148.395 73.0572 146.506 71.1679 146.506 68.9007C146.506 66.6335 148.395 64.7441 150.662 64.7441C152.93 64.7441 154.819 66.6335 154.819 68.9007C154.819 71.1679 153.056 73.0572 150.662 73.0572ZM150.662 66.0037C149.025 66.0037 147.765 67.2632 147.765 68.9007C147.765 70.5381 149.025 71.7977 150.662 71.7977C152.3 71.7977 153.559 70.5381 153.559 68.9007C153.559 67.2632 152.3 66.0037 150.662 66.0037Z" fill="white"/>
<path d="M159.73 120.712V93.7578C144.867 93.7578 132.775 105.85 132.775 120.712C132.775 135.575 144.867 147.667 159.73 147.667C174.593 147.667 186.684 135.575 186.684 120.712H159.73Z" fill="#02D2B6"/>
<path d="M185.677 117.69C185.677 104.969 175.348 94.6406 162.627 94.6406V117.69H185.677Z" fill="#FFDA88"/>
<path d="M388.017 276.575H260.928C257.767 276.575 255.408 274.645 255.408 272.44V196.615V188.05C255.408 185.845 257.767 183.916 260.928 183.916H388.017C391.177 183.916 393.537 185.845 393.537 188.05V272.44C393.537 274.645 391.177 276.575 388.017 276.575Z" fill="#FFDA88" stroke="#2A2A2A" stroke-width="0.8"/>
<path d="M393.541 197.748L255.408 198.56V189.425C255.408 187.726 255.887 186.201 256.938 185.103C257.985 184.009 259.651 183.285 262.138 183.285H387.81C390.033 183.285 391.439 183.999 392.3 185.076C393.175 186.17 393.541 187.701 393.541 189.425V197.748Z" fill="white" stroke="#2A2A2A" stroke-width="0.8"/>
<path d="M265.532 193.594C266.922 193.594 268.173 192.507 268.173 190.953C268.173 189.477 267.114 188.165 265.507 188.312C264.127 188.324 262.891 189.407 262.891 190.953C262.891 192.343 263.977 193.594 265.532 193.594Z" fill="white" stroke="#2A2A2A"/>
<path d="M273.719 193.594C275.11 193.594 276.361 192.507 276.361 190.953C276.361 189.477 275.302 188.165 273.694 188.312C272.314 188.324 271.078 189.407 271.078 190.953C271.078 192.343 272.165 193.594 273.719 193.594Z" fill="white" stroke="#2A2A2A"/>
<path d="M281.78 193.594C283.17 193.594 284.421 192.507 284.421 190.953C284.421 189.461 283.223 188.166 281.752 188.312C280.373 188.326 279.139 189.408 279.139 190.953C279.139 192.343 280.225 193.594 281.78 193.594Z" fill="white" stroke="#2A2A2A"/>
<path d="M320.322 223.17H269.563C269.562 223.17 269.557 223.169 269.547 223.165C269.533 223.158 269.515 223.147 269.499 223.13C269.482 223.113 269.471 223.096 269.464 223.082C269.46 223.072 269.459 223.067 269.459 223.066V212.235C269.459 212.234 269.46 212.228 269.464 212.218C269.471 212.204 269.482 212.187 269.499 212.171C269.515 212.154 269.533 212.143 269.547 212.136C269.557 212.132 269.562 212.131 269.563 212.13H320.322C320.323 212.131 320.328 212.132 320.338 212.136C320.352 212.143 320.37 212.154 320.386 212.171C320.403 212.187 320.414 212.204 320.421 212.218C320.425 212.228 320.426 212.234 320.426 212.235V223.066C320.426 223.067 320.425 223.072 320.421 223.082C320.414 223.096 320.403 223.113 320.386 223.13C320.37 223.147 320.352 223.158 320.338 223.165C320.328 223.169 320.323 223.17 320.322 223.17Z" fill="white" stroke="#2A2A2A" stroke-width="0.8"/>
<path d="M308.23 223.17H269.563C269.562 223.17 269.557 223.169 269.547 223.165C269.533 223.158 269.515 223.147 269.499 223.13C269.482 223.113 269.471 223.096 269.464 223.082C269.46 223.072 269.459 223.067 269.459 223.066V212.235C269.459 212.234 269.46 212.228 269.464 212.218C269.471 212.204 269.482 212.187 269.499 212.171C269.515 212.154 269.533 212.143 269.547 212.136C269.557 212.132 269.562 212.131 269.563 212.13H308.23C308.231 212.131 308.237 212.132 308.247 212.136C308.261 212.143 308.278 212.154 308.294 212.171C308.311 212.187 308.322 212.204 308.329 212.218C308.334 212.228 308.334 212.234 308.335 212.235V223.066C308.334 223.067 308.334 223.072 308.329 223.082C308.322 223.096 308.311 223.113 308.294 223.13C308.278 223.147 308.261 223.158 308.247 223.165C308.237 223.169 308.231 223.17 308.23 223.17Z" fill="white" stroke="#2A2A2A" stroke-width="0.8"/>
<path d="M283.417 223.17H269.563C269.562 223.17 269.557 223.169 269.547 223.165C269.533 223.158 269.515 223.147 269.499 223.13C269.482 223.113 269.471 223.096 269.464 223.082C269.46 223.072 269.459 223.067 269.459 223.066V212.235C269.459 212.234 269.46 212.228 269.464 212.218C269.471 212.204 269.482 212.187 269.499 212.171C269.515 212.154 269.533 212.143 269.547 212.136C269.557 212.132 269.562 212.131 269.563 212.13H283.417C283.418 212.131 283.423 212.132 283.433 212.136C283.447 212.143 283.465 212.154 283.481 212.171C283.498 212.187 283.509 212.204 283.516 212.218C283.52 212.228 283.521 212.234 283.521 212.235V223.066C283.521 223.067 283.52 223.072 283.516 223.082C283.509 223.096 283.498 223.113 283.481 223.13C283.465 223.147 283.447 223.158 283.433 223.165C283.423 223.169 283.418 223.17 283.417 223.17Z" fill="white" stroke="#2A2A2A" stroke-width="0.8"/>
<path d="M293.243 236.462H269.059C268.682 236.462 268.43 236.302 268.43 236.062C268.43 235.822 268.682 235.662 269.059 235.662H293.243C293.621 235.662 293.873 235.822 293.873 236.062C293.873 236.302 293.495 236.462 293.243 236.462Z" fill="#2A2A2A"/>
<path d="M320.827 236.462H296.643C296.266 236.462 296.014 236.302 296.014 236.062C296.014 235.822 296.266 235.662 296.643 235.662H320.827C321.205 235.662 321.457 235.822 321.457 236.062C321.457 236.302 321.205 236.462 320.827 236.462Z" fill="#2A2A2A"/>
<path d="M293.243 246.915H269.059C268.682 246.915 268.43 246.755 268.43 246.515C268.43 246.275 268.682 246.115 269.059 246.115H293.243C293.621 246.115 293.873 246.275 293.873 246.515C293.873 246.755 293.495 246.915 293.243 246.915Z" fill="#2A2A2A"/>
<path d="M320.827 246.915H296.643C296.266 246.915 296.014 246.755 296.014 246.515C296.014 246.275 296.266 246.115 296.643 246.115H320.827C321.205 246.115 321.457 246.275 321.457 246.515C321.457 246.755 321.205 246.915 320.827 246.915Z" fill="#2A2A2A"/>
<path d="M293.243 256.991H269.059C268.682 256.991 268.43 256.831 268.43 256.591C268.43 256.351 268.682 256.191 269.059 256.191H293.243C293.621 256.191 293.873 256.351 293.873 256.591C293.873 256.751 293.495 256.991 293.243 256.991Z" fill="#2A2A2A"/>
<path d="M320.827 256.991H296.643C296.266 256.991 296.014 256.831 296.014 256.591C296.014 256.351 296.266 256.191 296.643 256.191H320.827C321.205 256.191 321.457 256.351 321.457 256.591C321.457 256.751 321.205 256.991 320.827 256.991Z" fill="#2A2A2A"/>
<g style="mix-blend-mode:multiply">
<path d="M332.856 154.925H287.701C286.567 154.925 285.686 154.043 285.686 152.909V126.711C285.686 125.577 286.567 124.695 287.701 124.695H332.856V154.925Z" fill="#ECECEC"/>
</g>
<path d="M383.427 161.202H293.117C292.204 161.202 291.502 160.5 291.502 159.587V133.388C291.502 132.476 292.204 131.773 293.117 131.773H383.427C384.34 131.773 385.042 132.476 385.042 133.388V159.587C385.042 160.5 384.34 161.202 383.427 161.202Z" fill="white" stroke="#2A2A2A" stroke-width="0.8"/>
<path d="M313.773 145.858C313.773 149.637 310.75 152.66 306.972 152.66C303.193 152.66 300.17 149.637 300.17 145.858C300.17 142.08 303.193 139.057 306.972 139.057C310.75 139.057 313.773 142.08 313.773 145.858Z" fill="#FFDA88"/>
<path d="M306.972 155.682C301.556 155.682 297.273 151.274 297.273 145.984C297.273 140.568 301.682 136.285 306.972 136.285C312.262 136.285 316.671 140.694 316.671 145.984C316.671 151.274 312.262 155.682 306.972 155.682ZM306.972 136.789C301.934 136.789 297.903 140.82 297.903 145.858C297.903 150.896 301.934 154.927 306.972 154.927C312.01 154.927 316.041 150.896 316.041 145.858C316.041 140.82 311.884 136.789 306.972 136.789Z" fill="#2A2A2A"/>
<path d="M306.09 148.629L302.815 144.221C302.689 144.095 302.689 143.843 302.941 143.717C303.067 143.591 303.319 143.591 303.445 143.843L306.216 147.622L318.308 135.53C318.434 135.404 318.686 135.404 318.812 135.53C318.937 135.656 318.937 135.908 318.812 136.034L306.09 148.629Z" fill="#2A2A2A"/>
<path d="M373.224 142.078H324.983C324.605 142.078 324.354 141.826 324.354 141.448C324.354 141.07 324.605 140.818 324.983 140.818H373.224C373.602 140.818 373.854 141.07 373.854 141.448C373.854 141.826 373.602 142.078 373.224 142.078Z" fill="#2A2A2A"/>
<path d="M346.522 147.873H324.983C324.605 147.873 324.354 147.621 324.354 147.243C324.354 146.865 324.605 146.613 324.983 146.613H346.522C346.9 146.613 347.151 146.865 347.151 147.243C347.151 147.495 346.9 147.873 346.522 147.873Z" fill="#2A2A2A"/>
<path d="M373.225 147.873H351.686C351.309 147.873 351.057 147.621 351.057 147.243C351.057 146.865 351.309 146.613 351.686 146.613H373.225C373.603 146.613 373.855 146.865 373.855 147.243C373.855 147.495 373.603 147.873 373.225 147.873Z" fill="#2A2A2A"/>
<path d="M373.224 153.791H324.983C324.605 153.791 324.354 153.539 324.354 153.161C324.354 152.783 324.605 152.531 324.983 152.531H373.224C373.602 152.531 373.854 152.783 373.854 153.161C373.854 153.539 373.602 153.791 373.224 153.791Z" fill="#2A2A2A"/>
<path d="M198.674 238.528C218.208 238.528 234.044 222.693 234.044 203.159C234.044 183.625 218.208 167.789 198.674 167.789C179.14 167.789 163.305 183.625 163.305 203.159C163.305 222.693 179.14 238.528 198.674 238.528Z" fill="white" fill-opacity="0.8"/>
<path d="M198.674 157.684C173.547 157.684 153.199 178.031 153.199 203.159C153.199 215.449 158.115 226.648 166.036 234.841L125.887 287.554L133.534 293.427L173.41 240.987C180.648 245.766 189.252 248.634 198.674 248.634C223.802 248.634 244.15 228.286 244.15 203.159C244.15 178.031 223.802 157.684 198.674 157.684ZM198.674 238.529C179.146 238.529 163.305 222.687 163.305 203.159C163.305 183.63 179.146 167.789 198.674 167.789C218.203 167.789 234.044 183.63 234.044 203.159C234.044 222.687 218.203 238.529 198.674 238.529Z" fill="#FFC064"/>
<path d="M166.354 235.084L166.562 234.81L166.324 234.563C158.472 226.441 153.599 215.341 153.599 203.159C153.599 178.252 173.768 158.084 198.674 158.084C223.581 158.084 243.75 178.252 243.75 203.159C243.75 228.065 223.581 248.234 198.674 248.234C189.335 248.234 180.808 245.392 173.631 240.653L173.319 240.447L173.092 240.745L133.459 292.865L126.446 287.48L166.354 235.084ZM162.905 203.159C162.905 222.908 178.925 238.929 198.674 238.929C218.424 238.929 234.444 222.908 234.444 203.159C234.444 183.41 218.424 167.389 198.674 167.389C178.925 167.389 162.905 183.41 162.905 203.159Z" fill="#FFC064" stroke="#2A2A2A" stroke-width="0.8"/>
<path d="M132.213 313.632L132.211 313.635C127.832 320.004 119.209 321.465 112.971 317.087C106.728 312.568 105.274 303.938 109.516 297.84C109.516 297.84 109.516 297.839 109.516 297.839L143.11 249.907L143.112 249.904C147.491 243.535 156.115 242.074 162.354 246.454L162.357 246.456C168.727 250.835 170.187 259.46 165.807 265.698L165.807 265.699L132.213 313.632Z" fill="#02D2B6" stroke="#2A2A2A" stroke-width="0.8"/>
<path opacity="0.4" d="M195.862 198.609C201.501 196.259 204.168 189.783 201.819 184.144C199.469 178.504 192.993 175.838 187.354 178.187C181.714 180.537 179.047 187.013 181.397 192.652C183.746 198.292 190.223 200.959 195.862 198.609Z" fill="white"/>
<path d="M148.246 213.118V213.131L148.247 213.144C148.355 214.768 146.94 216.118 145.245 216.118H50.4008C48.7324 216.118 47.4 214.786 47.4 213.118V160.846C47.4 159.178 48.7324 157.845 50.4008 157.845H145.245C146.914 157.845 148.246 159.178 148.246 160.846V213.118Z" fill="white" stroke="#2A2A2A" stroke-width="0.8"/>
<path d="M148.246 164.1L47.4 164.475V160.468C47.4 159.052 48.6064 157.845 50.0229 157.845H145.623C147.04 157.845 148.246 159.052 148.246 160.468V164.1Z" fill="#FFDA88" stroke="#2A2A2A" stroke-width="0.8"/>
<path d="M51.157 162.484C50.5273 162.484 50.0234 161.98 50.0234 161.35C50.0234 160.721 50.5273 160.217 51.157 160.217C51.7868 160.217 52.2906 160.721 52.2906 161.35C52.2906 161.98 51.7868 162.484 51.157 162.484ZM51.157 160.595C50.7792 160.595 50.4013 160.973 50.4013 161.35C50.4013 161.728 50.7792 162.106 51.157 162.106C51.5349 162.106 51.9128 161.728 51.9128 161.35C51.9128 160.973 51.6609 160.595 51.157 160.595Z" fill="white"/>
<path d="M54.6824 162.484C54.0527 162.484 53.5488 161.98 53.5488 161.35C53.5488 160.721 54.0527 160.217 54.6824 160.217C55.3122 160.217 55.816 160.721 55.816 161.35C55.816 161.98 55.3122 162.484 54.6824 162.484ZM54.6824 160.595C54.3046 160.595 53.9267 160.973 53.9267 161.35C53.9267 161.728 54.3046 162.106 54.6824 162.106C55.0603 162.106 55.4382 161.728 55.4382 161.35C55.4382 160.973 55.0603 160.595 54.6824 160.595Z" fill="white"/>
<path d="M57.9578 162.484C57.328 162.484 56.8242 161.98 56.8242 161.35C56.8242 160.721 57.328 160.217 57.9578 160.217C58.5876 160.217 59.0914 160.721 59.0914 161.35C59.0914 161.98 58.5876 162.484 57.9578 162.484ZM57.9578 160.595C57.58 160.595 57.2021 160.973 57.2021 161.35C57.2021 161.728 57.58 162.106 57.9578 162.106C58.3357 162.106 58.7136 161.728 58.7136 161.35C58.7136 160.973 58.3357 160.595 57.9578 160.595Z" fill="white"/>
<path d="M136.429 174.953H87.6845C87.4326 174.953 87.3066 174.827 87.3066 174.575C87.3066 174.323 87.4326 174.197 87.6845 174.197H136.429C136.681 174.197 136.807 174.323 136.807 174.575C136.807 174.827 136.555 174.953 136.429 174.953Z" fill="#2A2A2A"/>
<path d="M136.429 187.801H87.6845C87.4326 187.801 87.3066 187.675 87.3066 187.423C87.3066 187.171 87.4326 187.045 87.6845 187.045H136.429C136.681 187.045 136.807 187.171 136.807 187.423C136.807 187.549 136.555 187.801 136.429 187.801Z" fill="#2A2A2A"/>
<path d="M109.097 180.873H87.6845C87.4326 180.873 87.3066 180.747 87.3066 180.495C87.3066 180.243 87.4326 180.117 87.6845 180.117H109.097C109.349 180.117 109.475 180.243 109.475 180.495C109.475 180.747 109.349 180.873 109.097 180.873Z" fill="#2A2A2A"/>
<path d="M136.429 180.873H115.017C114.765 180.873 114.639 180.747 114.639 180.495C114.639 180.243 114.765 180.117 115.017 180.117H136.429C136.681 180.117 136.807 180.243 136.807 180.495C136.807 180.747 136.555 180.873 136.429 180.873Z" fill="#2A2A2A"/>
<path d="M109.097 194.476H87.6845C87.4326 194.476 87.3066 194.35 87.3066 194.099C87.3066 193.847 87.4326 193.721 87.6845 193.721H109.097C109.349 193.721 109.475 193.847 109.475 194.099C109.475 194.35 109.349 194.476 109.097 194.476Z" fill="#2A2A2A"/>
<path d="M136.429 194.476H115.017C114.765 194.476 114.639 194.35 114.639 194.099C114.639 193.847 114.765 193.721 115.017 193.721H136.429C136.681 193.721 136.807 193.847 136.807 194.099C136.807 194.35 136.555 194.476 136.429 194.476Z" fill="#2A2A2A"/>
<path d="M128.494 201.025H120.307V207.323H128.494V201.025Z" fill="#FFDA88"/>
<path d="M120.181 201.025H111.994V207.323H120.181V201.025Z" fill="#FFC064"/>
<path d="M136.681 201.025H128.494V207.323H136.681V201.025Z" fill="#02D2B6"/>
<path d="M103.806 201.025H95.6191V207.323H103.806V201.025Z" fill="#FFDA88"/>
<path d="M95.4938 201.025H87.3066V207.323H95.4938V201.025Z" fill="#FFC064"/>
<path d="M111.994 201.025H103.807V207.323H111.994V201.025Z" fill="#02D2B6"/>
<path d="M61.2323 187.172H54.5566V207.325H61.2323V187.172Z" fill="#FFC064"/>
<path d="M69.5448 178.229H62.8691V207.324H69.5448V178.229Z" fill="#FFDA88"/>
<path d="M77.9842 171.553H71.3086V207.324H77.9842V171.553Z" fill="#02D2B6"/>
<path d="M99.0198 99.7578H76.2219H61.2332H50.401C49.1414 99.7578 48.0078 100.765 48.0078 102.151V128.476C48.0078 129.735 49.0155 130.869 50.401 130.869H61.9889C62.1148 130.869 62.1148 130.869 62.2408 130.869H76.8516C76.9776 130.869 77.2295 130.995 77.3555 131.121L89.4472 143.968C89.8251 144.346 90.4549 144.094 90.4549 143.464V131.499C90.4549 131.121 90.7068 130.869 91.0846 130.869H99.1458C100.279 130.869 101.161 129.987 101.161 128.728V101.899C101.035 100.64 100.153 99.7578 99.0198 99.7578Z" fill="#FFC064"/>
<path d="M56.0676 108.449H92.9726C93.2245 108.449 93.3505 108.197 93.3505 108.071C93.3505 107.819 93.0986 107.693 92.9726 107.693H56.0676C55.8157 107.693 55.6898 107.945 55.6898 108.071C55.5638 108.197 55.8157 108.449 56.0676 108.449Z" fill="white"/>
<path d="M68.538 122.682H92.9734C93.2253 122.682 93.3513 122.43 93.3513 122.304C93.3513 122.178 93.0994 121.926 92.9734 121.926H68.538C68.2861 121.926 68.1602 122.178 68.1602 122.304C68.1602 122.43 68.2861 122.682 68.538 122.682Z" fill="white"/>
<path d="M76.2219 115.25H92.974C93.2259 115.25 93.3519 114.998 93.3519 114.872C93.3519 114.62 93.1 114.494 92.974 114.494H76.2219C75.97 114.494 75.844 114.746 75.844 114.872C75.7181 114.998 75.97 115.25 76.2219 115.25Z" fill="white"/>
<path d="M55.9426 115.25H72.8207C73.0726 115.25 73.1985 114.998 73.1985 114.872C73.1985 114.62 72.9466 114.494 72.8207 114.494H55.9426C55.6907 114.494 55.5648 114.746 55.5648 114.872C55.4388 114.998 55.6907 115.25 55.9426 115.25Z" fill="white"/>
<path d="M391.511 99L367.354 99" stroke="#2A2A2A" stroke-miterlimit="10" stroke-linecap="round" stroke-linejoin="round"/>
<path d="M361.93 99L357 99" stroke="#2A2A2A" stroke-miterlimit="10" stroke-linecap="round" stroke-linejoin="round"/>
<path d="M130.511 31L106.354 31" stroke="#2A2A2A" stroke-miterlimit="10" stroke-linecap="round" stroke-linejoin="round"/>
<path d="M100.93 31L96 31" stroke="#2A2A2A" stroke-miterlimit="10" stroke-linecap="round" stroke-linejoin="round"/>
<path d="M111.511 248L87.3535 248" stroke="#2A2A2A" stroke-miterlimit="10" stroke-linecap="round" stroke-linejoin="round"/>
<path d="M81.93 248L77 248" stroke="#2A2A2A" stroke-miterlimit="10" stroke-linecap="round" stroke-linejoin="round"/>
<rect x="201.4" y="98.4" width="114.2" height="5.2" rx="2.6" fill="white" stroke="#2A2A2A" stroke-width="0.8"/>
<rect x="201.4" y="111.4" width="114.2" height="5.2" rx="2.6" fill="white" stroke="#2A2A2A" stroke-width="0.8"/>
<rect x="201.4" y="124.4" width="71.2" height="5.2" rx="2.6" fill="white" stroke="#2A2A2A" stroke-width="0.8"/>
<rect x="201.4" y="137.4" width="71.2" height="5.2" rx="2.6" fill="white" stroke="#2A2A2A" stroke-width="0.8"/>
<line x1="356.4" y1="231.4" x2="356.4" y2="248.6" stroke="#2A2A2A" stroke-width="0.8" stroke-linecap="round" stroke-linejoin="round"/>
<line x1="337.4" y1="238.401" x2="374.6" y2="238.401" stroke="#2A2A2A" stroke-width="0.8" stroke-linecap="round" stroke-linejoin="round"/>
<line x1="337.4" y1="238.4" x2="337.4" y2="248.6" stroke="#2A2A2A" stroke-width="0.8" stroke-linecap="round" stroke-linejoin="round"/>
<line x1="374.599" y1="238.4" x2="374.599" y2="248.6" stroke="#2A2A2A" stroke-width="0.8" stroke-linecap="round" stroke-linejoin="round"/>
<rect x="341.4" y="214.4" width="29.2" height="17.2" rx="8.6" fill="white" stroke="#2A2A2A" stroke-width="0.8"/>
<circle cx="337" cy="254" r="5.6" fill="white" stroke="#2A2A2A" stroke-width="0.8"/>
<circle cx="356" cy="254" r="5.6" fill="#FFC064" stroke="#2A2A2A" stroke-width="0.8"/>
<circle cx="375" cy="254" r="5.6" fill="white" stroke="#2A2A2A" stroke-width="0.8"/>
</svg>
