<svg xmlns="http://www.w3.org/2000/svg" xmlns:xlink="http://www.w3.org/1999/xlink" width="664" height="580">
  <defs>
    <linearGradient id="a" x1="53.67%" x2="27.89%" y1="80.41%" y2="13.38%">
      <stop offset="0%" stop-color="#4415B8" stop-opacity="0"/>
      <stop offset="100%" stop-color="#5028BF"/>
    </linearGradient>
    <linearGradient id="b" x1="-8.83%" x2="97.79%" y1="-10.26%" y2="54.38%">
      <stop offset="0%" stop-color="#7629A9"/>
      <stop offset="100%" stop-color="#151B4E"/>
    </linearGradient>
    <linearGradient id="c" x1="5.84%" x2="117.2%" y1="69.09%" y2="75.74%">
      <stop offset="0%" stop-color="#F7EDFD"/>
      <stop offset="66.8%" stop-color="#C5CEEF"/>
      <stop offset="99.62%" stop-color="#C7D0DB"/>
      <stop offset="100%" stop-color="#C6DBD9"/>
    </linearGradient>
    <linearGradient id="d" x1="143.07%" x2="-42.31%" y1="91.91%" y2="-37.84%">
      <stop offset="0%" stop-color="#5937F4"/>
      <stop offset="100%" stop-color="#80FBFF"/>
    </linearGradient>
    <linearGradient id="e" x1="-20.22%" x2="82.9%" y1="50%" y2="71.66%">
      <stop offset="0%" stop-color="#A2F8E4"/>
      <stop offset="100%" stop-color="#2EA6B4"/>
    </linearGradient>
    <linearGradient id="f" x1="170.97%" x2="27.89%" y1="177.36%" y2="13.38%">
      <stop offset="0%" stop-color="#4415B8" stop-opacity="0"/>
      <stop offset="100%" stop-color="#5028BF"/>
    </linearGradient>
    <linearGradient id="g" x1="-28.98%" x2="164.36%" y1="97.54%" y2="-55.37%">
      <stop offset="0%" stop-color="#CCA0E8"/>
      <stop offset="100%" stop-color="#C5CEEF"/>
    </linearGradient>
    <linearGradient id="h" x1="64.88%" x2="-15.83%" y1="-3.17%" y2="133.76%">
      <stop offset="0%" stop-color="#F7EDFD"/>
      <stop offset="100%" stop-color="#FFF"/>
    </linearGradient>
    <linearGradient id="i" x1="5.35%" x2="187.98%" y1="113.11%" y2="-112.36%">
      <stop offset="0%" stop-color="#5937F4"/>
      <stop offset="100%" stop-color="#80FBFF"/>
    </linearGradient>
    <linearGradient id="j" x1="100%" x2="-14.33%" y1="4.04%" y2="50%">
      <stop offset="0%" stop-color="#E6A9FF"/>
      <stop offset="100%" stop-color="#9B54FF"/>
    </linearGradient>
    <linearGradient id="k" x1="0%" x2="177.58%" y1="24.59%" y2="100%">
      <stop offset="0%" stop-color="#CC7DFF"/>
      <stop offset="100%" stop-color="#151B4E"/>
    </linearGradient>
    <linearGradient id="l" x1="68.76%" x2="359%" y1="19.96%" y2="310.83%">
      <stop offset="0%" stop-color="#E5BDFF"/>
      <stop offset="100%" stop-color="#151B4E"/>
    </linearGradient>
    <linearGradient id="m" x1="47.21%" x2="74.42%" y1="38.86%" y2="79.09%">
      <stop offset="0%" stop-color="#151C4F"/>
      <stop offset="100%" stop-color="#4A237F" stop-opacity="0"/>
    </linearGradient>
    <linearGradient id="n" x1="100%" x2="-21.64%" y1="57.81%" y2="25.38%">
      <stop offset="0%" stop-color="#4415B8"/>
      <stop offset="100%" stop-color="#9B54FF"/>
    </linearGradient>
    <linearGradient id="o" x1="111.82%" x2="0%" y1="-9.1%" y2="182.78%">
      <stop offset="0%" stop-color="#4415B8"/>
      <stop offset="100%" stop-color="#9B54FF"/>
    </linearGradient>
    <linearGradient id="p" x1="21.99%" y1="-71.13%" y2="129.09%">
      <stop offset="0%" stop-color="#FCD3BB"/>
      <stop offset="100%" stop-color="#E45664"/>
    </linearGradient>
    <path id="q" d="M.9 8.07c-.37 8.45.4 14.57 2.33 18.37 1.93 3.8 6.38 2.5 13.36-3.95l4.31-11.03C22.3 3.82 19.61 0 12.82 0 6.02 0 2.05 2.7.9 8.07z"/>
    <linearGradient id="s" x1="88.18%" x2="0%" y1="113.18%" y2="-26.04%">
      <stop offset="0%" stop-color="#414141"/>
      <stop offset="100%" stop-color="#DCA790"/>
    </linearGradient>
    <linearGradient id="t" x1="32.21%" x2="-262.12%" y1="106.6%" y2="-100.24%">
      <stop offset="0%" stop-color="#A2F8E4"/>
      <stop offset="100%" stop-color="#4BC39D"/>
    </linearGradient>
    <linearGradient id="u" x1="23.2%" x2="68.86%" y1="-65.94%" y2="142.45%">
      <stop offset="0%" stop-color="#FCD3BB"/>
      <stop offset="100%" stop-color="#F86D7A"/>
    </linearGradient>
    <linearGradient id="v" x1="58.04%" x2="276.66%" y1="0%" y2="187.45%">
      <stop offset="0%" stop-color="#CC7DFF"/>
      <stop offset="100%" stop-color="#151B4E"/>
    </linearGradient>
    <linearGradient id="w" x1="-149.66%" x2="86.04%" y1="21.93%" y2="58.71%">
      <stop offset="0%" stop-color="#FF895B"/>
      <stop offset="100%" stop-color="#FFEC9E"/>
    </linearGradient>
    <linearGradient id="x" x1="147.81%" x2="-58.41%" y1="0%" y2="143.76%">
      <stop offset="0%" stop-color="#00A1C3"/>
      <stop offset="100%" stop-color="#002192"/>
    </linearGradient>
    <path id="y" d="M.88 99.49v114.14l167.64-96.69V3.8a2.86 2.86 0 0 0-4.3-2.47L3.74 94.53A5.73 5.73 0 0 0 .88 99.5z"/>
    <linearGradient id="A" x1="115.54%" x2="-17.13%" y1="100%" y2="50%">
      <stop offset="0%" stop-color="#00A1C3"/>
      <stop offset="100%" stop-color="#002192"/>
    </linearGradient>
    <linearGradient id="B" x1="118.97%" x2="31.03%" y1="43.17%" y2="5.09%">
      <stop offset="0%" stop-color="#FF895B"/>
      <stop offset="100%" stop-color="#FFEC9E"/>
    </linearGradient>
    <path id="C" d="M2.7.22C1.39 5.32.64 8.51.47 9.79c-.11.8 1.53.87 1.73 1.57.45 1.58-.55 4.42 0 5.21 1.32 1.88 4.14 2.5 8.47 1.85l2.83 7.13 7.8-2.43-2.44-6.55-2.13-8.97-3.23-4.2-6.71-2.13L2.7.22z"/>
    <path id="E" d="M1.55-6.13c4.01-4.03 7.85-1.67 14.48 0 6.63 1.68 6.53 8.1 5.7 11.66-.85 3.56-1.37 7.1-3.43 9.34-2.06 2.25-3.58-.47-5.55-1.96-1.96-1.5-1.8-7.56-5.36-9.02C3.84 2.43-2.45-2.1 1.55-6.13z"/>
    <linearGradient id="G" x1="-8.11%" x2="608.54%" y1="66.5%" y2="328.04%">
      <stop offset="0%" stop-color="#5937F4"/>
      <stop offset="100%" stop-color="#80FBFF"/>
    </linearGradient>
    <linearGradient id="H" x1="27.6%" x2="-195.85%" y1="7.54%" y2="295.28%">
      <stop offset="0%" stop-color="#5937F4"/>
      <stop offset="100%" stop-color="#80FBFF"/>
    </linearGradient>
    <linearGradient id="I" x1="-8.11%" x2="550.91%" y1="66.5%" y2="333.2%">
      <stop offset="0%" stop-color="#5937F4"/>
      <stop offset="100%" stop-color="#80FBFF"/>
    </linearGradient>
    <linearGradient id="J" x1="5.35%" x2="129.43%" y1="113.11%" y2="-173.75%">
      <stop offset="0%" stop-color="#5937F4"/>
      <stop offset="100%" stop-color="#80FBFF"/>
    </linearGradient>
    <path id="K" d="M14.72 4.62C21.28 1.54 24.72 0 25.02 0c3.7.01 6.47 2.45 7.89 5.11 1.17 2.2 1.6 3.4 1.6 10.6 0 4.8.47 18.15 1.4 40.04a128.02 128.02 0 0 1-17.96 10.8C9.33 70.74.03 66.25.03 62.23v-41.9l1.4-2.8A28.35 28.35 0 0 1 14.72 4.63z"/>
    <linearGradient id="L" x1="37.02%" x2="79.68%" y1="89.7%" y2="25.22%">
      <stop offset="0%" stop-color="#5C78FF" stop-opacity="0"/>
      <stop offset="100%" stop-color="#3A54D4"/>
    </linearGradient>
  </defs>
  <g fill="none" fill-rule="evenodd">
    <path fill="url(#a)" d="M190.26 348.58l234.72 134.75c1.54.88 3.44.9 4.99.02l210.09-117.8a3.82 3.82 0 0 0 .04-6.63L401.64 221.26a1.9 1.9 0 0 0-1.92 0L190.24 344.21a2.53 2.53 0 0 0 .02 4.37z" opacity=".1" transform="translate(74.98 117.98)"/>
    <g transform="translate(75.37 219.34)">
      <path fill="url(#b)" d="M1.52 139.11l269.25 155.9c1.57.9 3.49.9 5.05 0L489.6 172.36a3.82 3.82 0 0 0 0-6.62L218.82 9.56a1.9 1.9 0 0 0-1.91 0L1.5 134.74a2.53 2.53 0 0 0 0 4.37z" opacity=".3"/>
      <path fill="url(#c)" d="M1.52 130.3l269.25 155.9c1.57.9 3.49.9 5.05.01L489.6 163.55a3.82 3.82 0 0 0 0-6.61L218.82.75a1.9 1.9 0 0 0-1.91 0L1.5 125.94a2.53 2.53 0 0 0 0 4.38z"/>
      <ellipse cx="369" cy="210" fill="#ACB4DE" opacity=".9" rx="9" ry="6"/>
      <path fill="#FFF" d="M36.98 130.64l215.56 122.73a4.3 4.3 0 0 0 4.27 0l180.94-104.14a3.24 3.24 0 0 0-.01-5.63L221.8 20.5a1.62 1.62 0 0 0-1.62 0L36.96 126.93a2.15 2.15 0 0 0 .02 3.72z"/>
      <path fill="url(#d)" d="M130.53 92.3L245.1 158.7c.67.38 1.48.39 2.15 0l90.95-52.25a1.62 1.62 0 0 0 0-2.81L223 37.1a.81.81 0 0 0-.82 0l-91.64 53.33a1.07 1.07 0 0 0 0 1.86z" opacity=".2"/>
      <path fill="url(#e)" d="M162.53 174.3l116.04 67.18 94.13-54.11L255 119.11a.81.81 0 0 0-.82 0l-91.64 53.33a1.07 1.07 0 0 0 0 1.86z" opacity=".2"/>
      <path stroke="#70A8FB" stroke-linecap="round" stroke-width="2" d="M279.74 183.93l-29.1 17.35" opacity=".5"/>
      <path stroke="#70A8FB" stroke-linecap="round" stroke-width="2" d="M290.74 190.93l-29.1 17.35M286.74 207.3l-15.07 8.98" opacity=".2"/>
      <path fill="url(#f)" d="M218.51 111.93l142.27 81.45 11.54-6.46-142.26-81.36a11.73 11.73 0 0 0-11.5-.1 3.7 3.7 0 0 0-.05 6.47z" opacity=".2"/>
    </g>
    <g transform="translate(274.3 117.98)">
      <path fill="url(#g)" d="M31.2 55.26v204.26a2.94 2.94 0 0 0 4.41 2.55l85.47-49.02a5.89 5.89 0 0 0 2.96-5.1V3.54a2.94 2.94 0 0 0-4.4-2.55L34.15 50.15a5.89 5.89 0 0 0-2.95 5.1z" transform="matrix(-1 0 0 1 155.25 0)"/>
      <path fill="#C7BDEC" d="M27.63 3.55l5-2.52.75 2.11-1.73 2.34-2.52-.64z"/>
      <path fill="#CCA1E9" d="M122.16 262.29l-4.82 2.42-1.73-2.89 5.53-4.41z"/>
      <path fill="url(#h)" d="M26 57.86v204.26a2.94 2.94 0 0 0 4.41 2.55l85.47-49.02a5.89 5.89 0 0 0 2.96-5.1V6.14a2.94 2.94 0 0 0-4.4-2.55L28.95 52.75a5.89 5.89 0 0 0-2.96 5.1z" transform="matrix(-1 0 0 1 144.85 0)"/>
      <path fill="url(#i)" d="M31.2 60.03v169.98a2.6 2.6 0 0 0 3.86 2.26l75.4-42.13a5.18 5.18 0 0 0 2.66-4.53V15.6a2.6 2.6 0 0 0-3.86-2.26L33.86 55.5a5.18 5.18 0 0 0-2.65 4.52z" transform="matrix(-1 0 0 1 144.32 0)"/>
      <path fill="url(#b)" d="M31.39 129.45v59.24a1.05 1.05 0 0 0 1.57.91l43.65-24.95v-62.27l-44.16 25.24a2.1 2.1 0 0 0-1.06 1.83z" opacity=".2" transform="matrix(-1 0 0 1 108 0)"/>
      <path fill="url(#b)" d="M53.75 67.39v58.27l58.78-33.48a1 1 0 0 0 .5-.87V35.34a1 1 0 0 0-1.49-.87L53.75 67.4z" opacity=".2" transform="matrix(-1 0 0 1 166.8 0)"/>
      <path stroke="#FFF" stroke-linecap="round" stroke-width="2.5" d="M89.48 203.23l10.93 6.74" opacity=".15"/>
      <path fill="url(#j)" d="M0 40.44v61.23a1.05 1.05 0 0 0 1.58.91L66.56 64.9a2.1 2.1 0 0 0 1.05-1.82V1.62A1.05 1.05 0 0 0 66.03.7L1.04 38.62A2.1 2.1 0 0 0 0 40.44z" transform="matrix(-1 0 0 1 67.61 93)"/>
      <g opacity=".6">
        <path fill="url(#k)" d="M17.76 32.4c-.8.44-2.18-.24-3.07-1.53a3.6 3.6 0 0 1-.7-2.1c.15-2.97-2.19-6.83-5.23-8.65a8.13 8.13 0 0 0-.56-.3 4.38 4.38 0 0 1-2.27-3.3c-.04-.68.23-1.17.7-1.34 2.27-.81 2.44-4.2.4-7.58-.12-.2-.25-.4-.4-.61-.88-1.29-.95-2.7-.15-3.15.44-.25 1.07-.17 1.72.22 3.04 1.82 5.63.89 5.78-2.07.01-.18.01-.37 0-.56-.06-1.23.86-1.75 2.06-1.16.65.33 1.28.93 1.72 1.66 2.03 3.37 5.52 5.45 7.77 4.64.14-.05.27-.1.4-.18.8-.45 2.17.23 3.06 1.52.49.7.75 1.48.72 2.11-.16 2.96 2.18 6.83 5.21 8.64.19.12.38.22.56.31 1.2.6 2.22 2.07 2.28 3.3.03.67-.23 1.16-.71 1.34-2.26.8-2.44 4.2-.4 7.57l.4.61c.89 1.3.96 2.7.15 3.16-.43.24-1.06.16-1.72-.23-3.03-1.81-5.62-.89-5.77 2.07-.01.18-.01.37 0 .56.06 1.24-.86 1.75-2.06 1.16a4.41 4.41 0 0 1-1.72-1.65c-2.04-3.38-5.52-5.46-7.78-4.65-.13.05-.27.11-.4.18zm4.18-7.26c3 1.65 5.44.54 5.44-2.47 0-3-2.44-6.78-5.44-8.42-3-1.64-5.44-.53-5.44 2.48 0 3 2.44 6.77 5.44 8.41z" transform="rotate(15 -442.64 123.78)"/>
        <path fill="#65469B" d="M43.95 162.14l-6.29.43-.96-3.22 3.97-.76 2.28 1.27z"/>
        <path fill="#BA74EE" d="M32.14 125.94l-6.06 1.82-1.02-4.7 6.11-.39zM23.5 127.45l-6.06 1.81-1.22-4.74 6.13-.37z"/>
        <path fill="#6E4BA4" d="M34.84 163.65l-6.05.38-.69-3.36 3.97-.76 2.28 1.28z"/>
      </g>
      <path fill="url(#l)" d="M11.93 34.34c-.8.45-2.17-.23-3.06-1.52a3.6 3.6 0 0 1-.71-2.11c.15-2.96-2.18-6.83-5.22-8.64a8.13 8.13 0 0 0-.56-.31 4.38 4.38 0 0 1-2.28-3.3c-.03-.67.23-1.16.71-1.34 2.26-.8 2.44-4.2.4-7.57l-.4-.62c-.88-1.29-.95-2.7-.15-3.15.44-.25 1.07-.16 1.72.23C5.42 7.82 8 6.9 8.16 3.94v-.56c-.06-1.24.86-1.75 2.05-1.16.65.32 1.29.93 1.72 1.65 2.04 3.38 5.52 5.46 7.78 4.65.14-.05.27-.11.4-.18.8-.45 2.17.22 3.06 1.51.48.7.74 1.48.71 2.12-.15 2.95 2.18 6.82 5.22 8.64.19.11.37.21.56.3 1.2.6 2.22 2.08 2.28 3.3.03.68-.23 1.17-.72 1.34-2.25.81-2.43 4.2-.4 7.58l.4.61c.9 1.29.96 2.7.16 3.15-.44.25-1.07.17-1.72-.22-3.04-1.82-5.62-.9-5.78 2.07v.56c.06 1.23-.86 1.75-2.05 1.16a4.41 4.41 0 0 1-1.72-1.66c-2.04-3.37-5.52-5.45-7.78-4.64-.14.05-.27.1-.4.18zm4.18-7.25c3 1.64 5.44.53 5.44-2.48 0-3-2.43-6.77-5.44-8.41-3-1.64-5.43-.54-5.43 2.47 0 3.01 2.43 6.78 5.43 8.42z" transform="rotate(15 -442.64 123.78)"/>
      <g>
        <path fill="#FFF" d="M168.76 110.89v55.65a1.18 1.18 0 0 1-1.76 1.02L47.7 99.32a2.36 2.36 0 0 1-1.2-2.04V40.8a1.18 1.18 0 0 1 1.77-1.02l119.32 69.06c.72.42 1.17 1.2 1.17 2.04z"/>
        <path stroke="#F98C8F" stroke-linecap="round" stroke-width="3.51" d="M62.16 68.72l81.85 47.64" opacity=".6"/>
        <path stroke="#74BEFC" stroke-linecap="round" stroke-width="3.51" d="M62.16 86.22l49.71 28.76" opacity=".3"/>
      </g>
      <ellipse cx="65.31" cy="221.39" fill="#5D4CF5" opacity=".2" rx="4.55" ry="6.5" transform="scale(1 -1) rotate(30 891.55 0)"/>
    </g>
    <path stroke="#FFF" stroke-linecap="round" stroke-width="1.5" d="M167.81 131.02l42.16-24.36a2 2 0 0 1 3 1.73v90.46a4 4 0 0 0 1.99 3.45l54.1 31.54M398.54 271.04l80.19-44.45a14 14 0 0 1 13.67.05l99.07 55.96a4 4 0 0 1 .33 6.76l-25.48 17.89" opacity=".4"/>
    <path fill="url(#m)" d="M28.47 206.28l151.91 88.24a7.14 7.14 0 0 0 6.4.39l13.95-5.98a5.4 5.4 0 0 0 .6-9.6L49.45 190.17a19.67 19.67 0 0 0-21.93 1.37 8.89 8.89 0 0 0 .95 14.73z" opacity=".06" transform="translate(427.96 .52)"/>
    <path fill="#442959" d="M478.89 194.4c-8.15 6.25-11.87 10.54-11.17 12.84 1.04 3.46 7.3.17 11.9-3.45 3.07-2.41 4.85-3.85 5.35-4.32l3.12-1.06-1.8-7.03-7.4 3.01z"/>
    <path fill="url(#n)" d="M33.7 6.2l1.87 49.39.67 55.71c-2.19.5-3.85.68-4.98.54a31.5 31.5 0 0 1-3.17-.54l-9.58-65.56 2.06 57.85a7.58 7.58 0 0 1-5 1.92c-1.83 0-2.83-.55-3.01-1.65L2.26 35.4C1.13 24.06.64 16.1.81 11.54.98 6.98.98 3.34.8.62L16.16.35h18.05l-.5 5.84z" transform="translate(466.09 89)"/>
    <path fill="#442959" d="M494.14 200.25l1.1 4.1c2.5 7.86 4.66 12.19 6.47 13 2.72 1.2 6.31-1.4 3.6-9.18-1.8-5.19-2.82-7.83-3.02-7.92-1.57.4-2.77.6-3.58.6s-2.34-.2-4.57-.6z"/>
    <path fill="url(#o)" d="M34.55 28.28l-19.03 10.3a4 4 0 0 0-2.07 3.97l6.48 56.04L36.2 78.01l-1.65-49.73z" opacity=".7" transform="translate(466.09 89)"/>
    <path fill="#FFF" d="M485 133.94v74.9a1.2 1.2 0 0 0 1.81 1.05l54.6-31.41a2.42 2.42 0 0 0 1.22-2.1v-75.17a1.2 1.2 0 0 0-1.82-1.05l-54.6 31.69a2.42 2.42 0 0 0-1.21 2.09z"/>
    <path fill="#FFCDB8" d="M499.96 162.2v10.42a3 3 0 0 0 4.48 2.61l11.18-6.32c.21-.11.34-.34.34-.57v-20.5a.33.33 0 0 0-.5-.28l-10.45 5.95a10 10 0 0 0-5.05 8.7z"/>
    <path fill="url(#i)" d="M19 7.87v21.37l7.45-4.28V3.51z" opacity=".7" transform="translate(499.96 137.52)"/>
    <path fill="#FFCDB8" d="M515.87 147.66l-.98-8.42a1.44 1.44 0 0 0-2.16-1.08 4.33 4.33 0 0 0-2.14 3.3l-1.03 9.98 6.3-3.78z"/>
    <g>
      <g transform="translate(428.09 1)">
        <path fill="#FFD4C2" d="M40.17 39.27L22.7 32.4l-2.14-24.1c.76-3.05 1-4.7.71-4.96-.4-.36-1.12.32-2.16 2.06-1.39-1.9-2.57-2.94-3.55-3.13-1.47-.3-2.83 3.67-2.83 4.45 0 .9 1.05 2.2 3.16 3.92-.88 14.2-1 22.48-.33 24.88.66 2.4 6.84 6.77 18.53 13.13l6.08-9.37z"/>
        <path fill="url(#p)" d="M78.4 52.48c1.3 2.13 3.4 9.7 6.32 22.71-3.43 2.92-6.2 4.38-8.3 4.38-2.1 0-3.67-.5-4.72-1.5l.95 35.29c-2.13 2.58-5.79 3.83-10.96 3.77-7.77-.1-15.42-2.83-18.5-4.73-3.1-1.91-4.74-3.7-4.71-6.7.02-2 .02-19.33 0-52l-9.1-6.55 2.94-11.34a4010 4010 0 0 1 27.3 5.85c8.17 1.8 16.84 7.63 18.79 10.82z"/>
        <path fill="#FFC5AC" d="M56.16 37.22a3.49 3.49 0 0 1 3.5 3.5v4.08a3.49 3.49 0 1 1-6.98 0v-4.09a3.49 3.49 0 0 1 3.48-3.49z"/>
        <g transform="translate(43 18.3)">
          <mask id="r" fill="#fff">
            <use xlink:href="#q"/>
          </mask>
          <use fill="#FFD4C2" xlink:href="#q"/>
          <path stroke="#E38775" stroke-linecap="round" stroke-width=".9" d="M5.27 22.2c1.26.66 2.45.5 3.57-.46" mask="url(#r)" transform="rotate(-5 7.06 22.24)"/>
        </g>
        <path fill="url(#s)" d="M40.74 15.3c2.13-2.07 8.88 0 14.65.38 3.85.25 6.79 1.74 8.83 4.47a10.9 10.9 0 0 1 1.57 8.55c-.58 2.93-2.12 6.26-4.6 10a.9.9 0 0 1-1.45.08l-3.03-3.76c1.1-4.2.63-6.64-1.4-7.33-3.06-1.03-9.37.68-12.44-1.85-3.08-2.53-4.25-8.46-2.13-10.53z"/>
        <ellipse cx="58.84" cy="35.98" fill="#FFD4C2" rx="1.7" ry="2.68"/>
        <path fill="#E96F76" d="M71.71 78.2l-3.68-15.16c-3.19 8.43-3.75 16.35-1.69 23.76 2.06 7.42 3.09 17.08 3.09 28.97l5.03-3-2.75-34.58z"/>
        <path fill="#FFD4C2" d="M74.24 79.15l3.12 12.73 1.4 25.89c1 4.67 2.11 7 3.32 7 .6 0 2.1-.98 4.47-2.94.55-1.38.78-2.15.69-2.34-.1-.18-.63.01-1.6.58l-1.76-3.42c.36-16.1.53-24.94.53-26.52 0-1.59-.56-6.04-1.67-13.36-2.29 1.38-3.8 2.17-4.53 2.38-.73.2-2.06.2-3.97 0z"/>
      </g>
    </g>
    <path fill="url(#b)" d="M2.96 341.44l100.25 57.4c1.28.73 2.86.73 4.14-.01l69.74-40.16a2.08 2.08 0 0 0 0-3.6l-99.46-57.6a4.16 4.16 0 0 0-4.15-.02L2.96 337.83a2.08 2.08 0 0 0 0 3.6z" opacity=".1" transform="matrix(-1 0 0 1 608 .52)"/>
    <g>
      <path fill="url(#d)" d="M1.96 70.44l100.25 57.4c1.28.73 2.86.73 4.14-.01l69.74-40.16a2.08 2.08 0 0 0 0-3.6l-99.46-57.6a4.16 4.16 0 0 0-4.15-.02L1.96 66.83a2.08 2.08 0 0 0 0 3.6z" transform="matrix(-1 0 0 1 607 263.52)"/>
      <path stroke="#FFF" stroke-linecap="round" stroke-width="2.5" d="M471.07 339.36l25.7 14.7M461.07 344.36l13.38 7.65" opacity=".2"/>
      <path stroke="#FFF" stroke-linecap="round" stroke-width="2.5" d="M583.78 328.2l6.67 3.81" opacity=".6"/>
      <path fill="url(#t)" d="M67.76 23.23v43.14a1.04 1.04 0 0 0 1.53.91l10.73-5.82a2.08 2.08 0 0 0 1.08-1.83V15.6a4.46 4.46 0 0 0-6.67-3.87 13.24 13.24 0 0 0-6.67 11.5z" transform="matrix(-1 0 0 1 577.82 263.52)"/>
      <path fill="url(#t)" d="M87.52 54.47v22.31a1.04 1.04 0 0 0 1.54.92l10.72-5.83a2.08 2.08 0 0 0 1.09-1.83V46.85a4.46 4.46 0 0 0-6.68-3.87 13.24 13.24 0 0 0-6.67 11.5z" transform="matrix(-1 0 0 1 617.35 263.52)"/>
      <path fill="url(#t)" d="M107.28 12.82V87.2a1.04 1.04 0 0 0 1.54.91l10.72-5.83a2.08 2.08 0 0 0 1.09-1.82V5.2a4.46 4.46 0 0 0-6.67-3.88 13.24 13.24 0 0 0-6.68 11.5z" transform="matrix(-1 0 0 1 656.87 263.52)"/>
    </g>
    <ellipse cx="293.71" cy="54.5" fill="#FFF" opacity=".5" rx="2.5" ry="3.5" transform="scale(1 -1) rotate(30 497.1 0)"/>
    <ellipse cx="542.71" cy="52.5" fill="#FFF" rx="2.5" ry="3.5" transform="scale(1 -1) rotate(30 738.64 0)"/>
    <ellipse cx="596.71" cy="236.5" fill="#FFF" opacity=".1" rx="2.5" ry="3.5" transform="scale(1 -1) rotate(30 1479.34 0)"/>
    <ellipse cx="397" cy="64.5" fill="#FFF" opacity=".2" rx="4" ry="5.5" transform="scale(1 -1) rotate(30 637.72 0)"/>
    <ellipse cx="117" cy="22.5" fill="#FFF" opacity=".2" rx="4" ry="5.5" transform="scale(1 -1) rotate(30 200.97 0)"/>
    <g stroke="#FFF" stroke-linecap="round" stroke-width="2.57">
      <path d="M242.99 65.84l11.19 6.5M248.03 62.26V75.9"/>
    </g>
    <g stroke="#FFF" stroke-linecap="round" stroke-width="2.57" opacity=".5">
      <path d="M277.99 4.84l11.19 6.5M283.03 1.26V14.9"/>
    </g>
    <g stroke="#FFF" stroke-linecap="round" stroke-width="2.57" opacity=".5">
      <path d="M594.99 146.84l11.19 6.5M600.03 143.26v13.64"/>
    </g>
    <g>
      <path fill="url(#b)" d="M1.99 55.08l100.38 57.01c1.28.73 2.85.73 4.12 0l69.83-39.9a2.08 2.08 0 0 0 0-3.6l-99.6-57.22a4.16 4.16 0 0 0-4.12-.01L1.99 51.46a2.08 2.08 0 0 0 0 3.62z" opacity=".1" transform="matrix(-1 0 0 1 273.32 344.98)"/>
      <path fill="url(#u)" d="M1.99 45.08l100.38 57.01c1.28.73 2.85.73 4.12 0l69.83-39.9a2.08 2.08 0 0 0 0-3.6L76.72 1.37a4.16 4.16 0 0 0-4.12-.01L1.99 41.46a2.08 2.08 0 0 0 0 3.62z" transform="matrix(-1 0 0 1 273.32 344.98)"/>
      <path stroke="#FFF" stroke-linecap="round" stroke-width="2.5" d="M146.67 393.13l40.4 23.1" opacity=".5"/>
      <path stroke="#FFF" stroke-linecap="round" stroke-width="2.5" d="M135.22 399.33l25.74 14.6" opacity=".2"/>
      <path fill="url(#v)" d="M156.94 69.47c-.76-27.9-2.85-42.37-6.28-43.42-5.15-1.56-11.15 14.7-18.14 12.3-1.86-.63-6.96-17.26-12.93-19.66-5.46-2.2-8.26 9.06-13.13 3.7-5.85-6.45-13.9-5.23-24.12 3.66l74.6 43.42z" transform="translate(95.01 331.88)"/>
      <path fill="url(#w)" d="M132.2 83.47c-3.57-13.13-6.23-21.3-7.96-24.51-2.6-4.82-7.34.93-11.3-2.13-1.51-1.18-10.87-25.1-16.84-27.5-5.47-2.19-8.54 10.89-13.4 5.52C73.9 25.18 67.2-.8 58.4.75c-2.66.46-2.94 13.57-.82 39.3l74.6 43.42z" transform="translate(95.01 331.88)"/>
    </g>
    <g>
      <g transform="translate(.08 54.55)">
        <path fill="url(#x)" d="M.8 100.57v135.2a3.54 3.54 0 0 0 5.3 3.06l158.86-91.76a7.07 7.07 0 0 0 3.53-6.12v-136a3.54 3.54 0 0 0-5.31-3.05L4.3 94.45a7.07 7.07 0 0 0-3.5 6.12z"/>
        <path fill="url(#a)" d="M73.4 225.17l21.2 11.92c2.24 1.26 5 1.2 7.2-.16l34-21.1a1.77 1.77 0 0 0-.05-3.05l-21.26-12.05-41.08 24.44z" opacity=".2"/>
        <ellipse cx="89.47" cy="175.6" fill="#FFF" opacity=".4" rx="3.31" ry="4.42" transform="rotate(-150 89.47 175.6)"/>
        <mask id="z" fill="#fff">
          <use xlink:href="#y"/>
        </mask>
        <use fill="#FFF" xlink:href="#y"/>
        <path fill="url(#b)" d="M73.75 23.15l2.05 118.5a1.05 1.05 0 0 0 1.6.88l66.73-41.62a2.43 2.43 0 0 0 1.14-2.1l-1.31-119.06a1 1 0 0 0-1.52-.84L75.6 19.75a3.9 3.9 0 0 0-1.86 3.4z" mask="url(#z)" opacity=".1" transform="rotate(1 109.5 60.72)"/>
        <path fill="url(#b)" d="M-16.26 168.15l2.05 118.5a1.05 1.05 0 0 0 1.61.88l66.72-41.62a2.43 2.43 0 0 0 1.14-2.1l-1.29-117.3a2 2 0 0 0-3.04-1.69l-65.32 39.93a3.9 3.9 0 0 0-1.87 3.4z" mask="url(#z)" opacity=".05" transform="rotate(1 19.5 206.1)"/>
        <path fill="url(#A)" d="M51.46 212.64l21.73 12.4a7.07 7.07 0 0 0 7.17-.09l34.85-21.06a1.77 1.77 0 0 0-.04-3.05l-21.74-12.5-41.97 24.3z" opacity=".4"/>
      </g>
      <path fill="url(#B)" d="M1.83 45.7l2.05 118.5a1.05 1.05 0 0 0 1.6.88l66.73-41.62a2.43 2.43 0 0 0 1.14-2.1L72.05 2.3a1 1 0 0 0-1.53-.84L3.69 42.31a3.9 3.9 0 0 0-1.86 3.4z" transform="rotate(1 -2155.39 4858.2)"/>
      <g stroke="#FFF" transform="rotate(-150 82.42 49.3)">
        <ellipse cx="17.5" cy="19" stroke-width="3.2" opacity=".5" rx="11.14" ry="14.96"/>
        <path stroke-linecap="round" stroke-width="4" d="M17.5 33.96c6.15 0 11.14-6.7 11.14-14.96 0-8.26-4.99-14.96-11.14-14.96S6.36 10.74 6.36 19"/>
      </g>
      <path stroke="#FFF" stroke-linecap="round" stroke-width="2" d="M138.1 135.27L109 152.62" opacity=".8"/>
      <path stroke="#FFF" stroke-linecap="round" stroke-width="2" d="M124.1 157.75l-14.87 8.87" opacity=".5"/>
      <path fill="url(#k)" d="M2.37 108.3v4.41a52.49 52.49 0 0 0 14.96 5.98c8.7 2.14 24.28 6.32 31.74 5.78 4.97-.36 7.46 2.4 7.46 8.26v44.54l15.38-9.28-3.97-55.28-4.36-11.03-16.9 9.52-31.47-1.75-12.84-1.14z" opacity=".2" transform="translate(83 39)"/>
      <g>
        <g transform="translate(147.2 94)">
          <mask id="D" fill="#fff">
            <use xlink:href="#C"/>
          </mask>
          <use fill="#FFBFA4" xlink:href="#C"/>
          <path stroke="#7E5951" stroke-linecap="round" stroke-width=".54" d="M-1.92 13.68c1.27.43 2.25.3 2.94-.38" mask="url(#D)"/>
          <mask id="F" fill="#fff">
            <use xlink:href="#E"/>
          </mask>
          <use fill="#414141" xlink:href="#E"/>
          <ellipse cx="12.46" cy="10.76" fill="#FFBFA4" mask="url(#F)" rx="2.63" ry="2.62"/>
          <ellipse cx="-5.8" cy="9.9" fill="#DAA087" mask="url(#F)" rx="1.98" ry="2"/>
        </g>
        <path fill="url(#a)" d="M66.03 183.98l33.3 19.84a7.07 7.07 0 0 0 7.35-.07l33.98-21.09a1.77 1.77 0 0 0-.02-3.02l-35.85-21.46a18 18 0 0 0-18.45-.03l-20.3 12.08a8 8 0 0 0 0 13.75z" opacity=".2" transform="translate(81 99.63)"/>
        <path fill="#414141" d="M156.9 100.03l-1.38 6.08-3.17 1.17c-.47 1.45-.92 2.34-1.37 2.66-.44.32-1.02.27-1.72-.15-.1.7.27 1.3 1.14 1.8a8.8 8.8 0 0 0 5.02 1.1c1.25-.1 2.08-.2 2.48-.25l.17-9.95-.17-2.25-1-.21z"/>
        <path fill="#414141" d="M149.45 105.55l1.81.8 1.34 1.14-1.58-.68-1.49-.38z"/>
        <path fill="url(#G)" d="M3.06 11.31c4.38 3.82 10.27 7.2 12.22 6.88 3.1-.52 3.54-3.78 2.97-6.32C17.82 9.9 8.65 6 3.4 5.04c-1.57-.29-4.71 2.45-.33 6.27z" transform="rotate(-3 4936.84 -2998.28)"/>
        <path fill="#FEB8AA" fill-rule="nonzero" d="M175.23 258.1a2.95 2.95 0 0 1 5.88-.55l.56 6.1a2.95 2.95 0 0 1-5.88.56l-.56-6.1z"/>
        <path fill="url(#H)" d="M2.08.41C-.6 12.7-.6 28.98 2.08 49.31c2.69 20.3 5.12 35.85 7.3 46.62.5 2.59 1.66 4.39 3.48 5.4 2.73 1.51 4.89.78 6.12-1.8 1.24-2.6-3.42-56.56-3.51-69.5-.05-5.77 3.52-21 1.7-24.44C15.94 3.3 10.91 1.58 2.07.41z" transform="translate(163.65 163.65)"/>
        <path stroke="#FFF" stroke-linecap="round" stroke-width=".63" d="M169.79 196.45l6.28 68.02" opacity=".1"/>
        <g>
          <path fill="url(#I)" d="M3.57 12.48c5.1 4.5 11.98 8.5 14.25 8.1 3.63-.6 4.14-4.45 3.47-7.45-.5-2.31-11.2-6.9-17.34-8.04-1.83-.35-5.5 2.88-.38 7.39z" transform="rotate(-3 5084.12 -2584.02)"/>
          <path fill="#FEB8AA" fill-rule="nonzero" d="M156.75 265.83a3.45 3.45 0 1 1 6.88.33l-.33 7.2a3.45 3.45 0 1 1-6.89-.32l.34-7.2z"/>
          <path fill="url(#J)" d="M4.03 7.56c.17 11.86 1.6 27.95 4.29 48.26 2.69 20.32 3.88 35.79 3.58 46.4 0 2 .92 3.66 2.76 5.01 2.76 2.03 6.39-.43 7.07-2.09.68-1.65 2.76-59.31 2.76-72.26 0-3.35 9.35-10.02 12.07-13.03 4.28-4.72 2.5-17.32 1.4-19.4-.75-1.38-12.05.99-33.93 7.11z" transform="translate(142.86 167.43)"/>
          <path stroke="#FFF" stroke-linecap="round" stroke-width="1.07" d="M169.32 183.81l-6.45 3.68" opacity=".2"/>
        </g>
        <g fill="#E8A58A">
          <path d="M158.85 124.07c-.02-.1.83-2.6.96-3 1.08-3.15-2.84-7.38-3.65-6.74-.82.65-.18 3.8-.67 4.48-.54.74-2.36-1.67-2.78-1.23-.69.71.66 2.03.99 4.02.3 1.89.65 3.7.66 3.71 0 .02.27 1.4.74 3.55 1.1 5.05 6.64 9.25 4.62-.86-.3-1.5-.59-2.84-.87-3.93z"/>
        </g>
        <g>
          <g transform="translate(145.68 112.86)">
            <mask id="M" fill="#fff">
              <use xlink:href="#K"/>
            </mask>
            <use fill="#FFF" xlink:href="#K"/>
            <path fill="url(#L)" d="M16.2 17.21c1 9.06-1.11 17.98-6.36 26.74-2.4 4.03-3.93 21.37-6.51 25.07-2.02 2.9-5.5 2.52-10.43-1.14V35.91l9.16-10.2 14.13-8.5z" mask="url(#M)" opacity=".15"/>
          </g>
          <path fill="#FFBFA4" d="M149.36 126.73l-17.24 19.64-38.66-1.27c-2.98-3.46-4.67-5.26-5.07-5.41-1.1-.42.82 3.46 0 3.29-1.68-.35-2.7-.57-3.07-.66-3.64-.88-1.72 2.82-1.36 4.05.4 1.42 2.38 2.81 5.9 4.19 22.65 4.95 36.73 7.03 42.26 6.23 5.52-.8 14.15-6.19 25.87-16.17 3.13-3.12 4.32-6.64 3.57-10.57a7.04 7.04 0 0 0-12.2-3.32z"/>
          <path fill="#FFF" d="M149.27 126.6l-10.75 11.88a9.64 9.64 0 0 0 .62 7.32c1.17 2.38 3.51 4.7 7.03 6.97l11.48-10.79c3.6-3.96 5.04-7.9 4.29-11.84a7.35 7.35 0 0 0-12.67-3.54z"/>
        </g>
      </g>
    </g>
  </g>
</svg>