<?xml version="1.0" standalone="no"?>
<!DOCTYPE svg PUBLIC "-//W3C//DTD SVG 20010904//EN"
 "http://www.w3.org/TR/2001/REC-SVG-20010904/DTD/svg10.dtd">
<svg version="1.0" xmlns="http://www.w3.org/2000/svg"
 width="1856.000000pt" height="1106.000000pt" viewBox="0 0 1856.000000 1106.000000"
 preserveAspectRatio="xMidYMid meet">
<metadata>
Created by potrace 1.16, written by Peter Selinger 2001-2019
</metadata>
<g transform="translate(0.000000,1106.000000) scale(0.100000,-0.100000)"
fill="#000000" stroke="none">
<path d="M2052 9573 c-5 -10 -17 -53 -27 -96 -12 -57 -20 -76 -28 -69 -12 10
-45 15 -80 13 -34 -2 -67 -47 -67 -91 0 -56 34 -90 88 -90 67 0 82 21 117 166
l31 129 102 3 c92 2 102 1 102 -15 0 -21 -36 -163 -43 -169 -2 -3 -17 0 -32 6
-63 24 -125 -21 -125 -89 1 -57 38 -91 100 -91 35 0 76 35 85 72 2 12 21 88
40 167 19 80 32 148 28 152 -5 3 -70 9 -145 13 -125 6 -138 5 -146 -11z"/>
<path d="M6964 9575 c-15 -10 -23 -29 -27 -66 -4 -28 -11 -57 -17 -64 -6 -7
-50 -14 -112 -18 -148 -9 -138 16 -138 -341 0 -248 2 -295 16 -314 l15 -22
503 0 c475 0 504 1 519 18 15 16 17 53 17 316 0 186 -4 305 -10 317 -9 17 -22
19 -108 19 -120 0 -142 11 -142 71 0 41 -14 78 -34 91 -6 4 -112 8 -236 8
-181 0 -230 -3 -246 -15z m350 -142 c67 -24 148 -100 183 -171 38 -81 39 -192
1 -274 -118 -254 -477 -254 -596 0 -36 76 -38 202 -5 274 31 67 108 141 174
166 69 27 175 29 243 5z"/>
<path d="M7119 9336 c-60 -21 -141 -88 -126 -103 4 -3 15 4 26 15 10 12 22 22
26 22 5 0 -2 -11 -15 -25 -13 -14 -29 -24 -35 -21 -29 11 -40 -12 -49 -104 -2
-19 -8 -58 -13 -87 -7 -35 -7 -50 0 -46 6 4 8 0 4 -11 -4 -9 -3 -15 2 -12 5 3
12 -1 15 -10 4 -10 2 -13 -7 -8 -6 4 3 -9 22 -29 19 -20 38 -34 43 -31 5 3 7
0 6 -7 -2 -6 3 -14 11 -17 9 -3 11 0 6 9 -6 9 -2 9 11 -2 10 -9 28 -15 39 -14
11 2 42 5 69 8 27 3 52 11 57 18 7 12 9 12 9 0 0 -10 3 -11 14 -2 11 9 15 9
18 0 5 -16 120 96 144 141 29 54 26 163 -5 217 -53 93 -171 135 -272 99z m147
-75 c110 -50 114 -214 7 -265 -144 -69 -277 84 -189 217 24 36 78 67 116 67
14 0 43 -9 66 -19z"/>
<path d="M16626 9579 c-162 -27 -318 -171 -360 -334 -71 -270 101 -534 377
-577 202 -31 395 72 485 259 36 77 37 80 37 198 0 117 -1 122 -36 196 -66 137
-194 235 -339 258 -73 12 -94 12 -164 0z m185 -95 c331 -97 371 -546 61 -696
-60 -29 -76 -33 -157 -33 -80 0 -97 3 -155 31 -148 71 -228 208 -218 370 15
230 247 393 469 328z"/>
<path d="M2453 9560 c-108 -65 -97 -243 17 -290 l27 -11 -24 -77 c-13 -42 -25
-78 -27 -79 -1 -1 -39 6 -85 17 -45 11 -93 20 -106 20 -28 0 -55 -24 -55 -49
0 -39 25 -52 163 -83 136 -31 138 -31 157 -12 10 10 28 52 40 93 l22 75 18
-24 c10 -14 33 -49 51 -78 l32 -53 -106 -107 c-59 -59 -107 -114 -107 -123 0
-37 27 -51 155 -80 72 -16 137 -29 146 -29 27 0 52 36 45 64 -7 30 -23 39 -96
55 -30 7 -60 14 -67 16 -11 4 166 185 180 185 3 0 22 -51 42 -112 l36 -113 85
-70 c130 -106 132 -108 159 -101 29 7 48 39 40 66 -3 11 -47 54 -98 96 l-92
76 -12 72 c-20 114 -59 207 -145 338 l-80 122 43 37 43 37 59 -47 c127 -101
134 -105 162 -93 27 12 42 52 28 75 -4 9 -57 54 -116 101 -73 58 -117 86 -135
86 -16 0 -46 -18 -83 -50 -32 -27 -60 -50 -63 -50 -3 0 -15 18 -25 39 -11 21
-36 48 -54 60 -45 28 -129 29 -174 1z m158 -69 c41 -42 41 -101 -1 -143 -28
-28 -36 -30 -78 -25 -61 7 -92 41 -92 102 0 36 5 47 31 69 44 37 101 36 140
-3z"/>
<path d="M7781 9559 c-51 -48 -51 -120 1 -164 27 -23 38 -26 77 -21 25 3 59 6
74 6 23 0 27 2 19 16 -6 10 -6 29 1 49 12 42 3 80 -28 111 -32 32 -110 34
-144 3z m129 -24 c69 -74 -26 -187 -109 -129 -15 11 -21 23 -18 35 3 11 1 17
-4 13 -5 -3 -9 11 -9 30 0 69 92 102 140 51z"/>
<path d="M15124 9564 c-16 -9 -32 -21 -36 -27 -4 -7 -8 -122 -8 -257 l0 -245
-36 -29 c-84 -67 -87 -200 -5 -269 112 -94 277 -27 289 119 6 67 -8 102 -59
148 l-39 36 1 246 c1 170 -3 249 -11 259 -21 26 -65 34 -96 19z m54 -56 c9 -9
12 -81 12 -262 l0 -251 29 -17 c41 -23 63 -61 63 -107 -1 -80 -52 -131 -128
-131 -81 0 -145 82 -124 160 10 35 58 90 81 90 5 0 9 105 9 253 0 253 3 277
35 277 6 0 16 -5 23 -12z"/>
<path d="M15442 9163 l3 -408 335 0 335 0 0 405 0 405 -338 3 -337 2 2 -407z
m618 267 l0 -79 -280 -3 -280 -3 0 85 0 85 280 -3 280 -3 0 -79z m-2 -147 l-3
-28 -277 -3 -278 -2 0 30 0 30 281 0 280 0 -3 -27z m0 -350 l-3 -128 -50 0
-50 0 -3 114 c-1 63 0 121 2 128 4 8 23 13 56 13 l51 0 -3 -127z"/>
<path d="M15510 9280 c0 -20 6 -20 244 -20 186 0 246 3 250 13 5 10 7 10 12 0
9 -19 33 -15 30 5 -3 16 -24 17 -269 20 -262 2 -267 2 -267 -18z"/>
<path d="M17223 9550 c-87 -52 -83 -198 6 -245 45 -23 112 -19 152 8 19 13 33
31 33 40 -1 9 2 15 6 12 23 -14 27 92 6 134 -8 15 -22 34 -31 41 -14 12 -18
12 -27 -1 -8 -11 -9 -11 -5 3 11 34 -89 40 -140 8z m140 -40 c63 -49 52 -146
-18 -176 -71 -29 -145 21 -145 98 0 82 98 129 163 78z"/>
<path d="M10245 9521 c-42 -19 -105 -82 -105 -106 0 -7 -3 -21 -7 -31 -4 -11
-3 -15 5 -11 7 5 8 -3 0 -29 -8 -31 -7 -41 11 -65 12 -16 17 -29 12 -29 -18 0
-61 85 -67 133 -6 39 -10 47 -28 46 -16 0 -17 -2 -6 -7 18 -9 25 -52 7 -52
-44 0 -96 -27 -149 -78 -32 -30 -56 -57 -53 -60 3 -3 15 3 27 14 21 17 21 17
-1 -8 -13 -15 -25 -41 -26 -58 -6 -102 -4 -97 -20 -76 -19 25 -19 13 -1 -22
15 -29 68 -80 103 -99 31 -18 41 -16 17 2 -18 13 -16 14 22 15 43 0 70 -24 36
-33 -12 -3 -11 -5 6 -6 12 0 22 4 22 9 0 6 8 14 18 17 9 4 26 15 36 25 24 22
35 23 42 3 4 -10 14 -14 28 -10 15 5 13 1 -9 -14 -16 -12 -39 -21 -49 -21 -11
0 -16 -3 -13 -6 9 -10 265 -11 280 -2 8 5 4 8 -11 8 -34 0 -74 24 -115 69 -59
65 -75 167 -37 241 19 37 19 41 4 74 -31 64 12 136 82 136 28 0 44 -8 71 -35
41 -41 68 -47 58 -12 -11 35 -56 76 -94 87 -47 13 -49 13 -96 -9z m-173 -243
c7 -13 11 -27 10 -31 -4 -12 25 -37 33 -29 4 4 3 -3 -4 -15 -14 -27 -15 -73
-1 -73 19 0 10 -17 -15 -28 -95 -43 -182 58 -128 148 29 50 84 65 105 28z"/>
<path d="M8213 9510 c-22 -9 -23 -14 -23 -143 0 -117 -2 -136 -18 -150 -10
-10 -30 -17 -44 -17 -44 0 -57 27 -60 125 l-3 90 -27 -45 c-38 -65 -48 -112
-48 -227 l0 -103 321 0 322 0 -5 118 c-5 119 -28 203 -65 233 -12 10 -13 0
-11 -75 3 -97 -7 -116 -63 -116 -49 0 -59 29 -59 173 0 123 -1 128 -22 136
-13 5 -26 7 -30 4 -5 -2 -8 -66 -8 -142 0 -121 -2 -140 -18 -154 -26 -24 -68
-21 -86 5 -13 18 -16 52 -16 160 0 76 -3 138 -7 137 -5 0 -18 -4 -30 -9z"/>
<path d="M10367 9326 c-72 -26 -115 -81 -122 -157 -3 -29 -7 -55 -10 -57 -10
-10 38 -79 66 -96 29 -17 109 -28 109 -15 0 4 11 6 24 5 27 -3 61 18 52 33 -4
5 -2 12 3 16 6 3 8 13 5 23 -5 14 -4 14 4 2 8 -10 8 -18 0 -27 -7 -8 -7 -13 0
-13 20 0 35 29 23 44 -9 10 -8 16 4 26 10 9 15 9 15 1 0 -6 -5 -11 -12 -11 -9
0 -9 -3 0 -12 19 -19 34 10 20 36 -10 18 -9 19 4 8 13 -10 17 -10 22 4 15 38
-5 141 -25 128 -5 -3 -6 1 -3 9 6 18 -11 31 -27 21 -8 -4 -7 -9 2 -15 8 -5 9
-9 3 -9 -18 0 -24 13 -13 27 9 10 4 16 -24 28 -44 18 -70 18 -120 1z m126 -56
c57 -45 55 -128 -3 -167 -39 -27 -70 -29 -110 -8 -37 19 -50 43 -50 95 0 84
97 132 163 80z"/>
<path d="M1444 9301 c-44 -20 -78 -57 -99 -108 -11 -25 -20 -33 -40 -33 -34 0
-98 -33 -130 -67 -33 -37 -57 -101 -53 -144 l3 -34 70 -6 c39 -4 114 -7 168
-8 l98 -1 18 43 c38 87 38 87 -13 87 -25 0 -46 2 -46 5 0 3 16 45 36 95 l36
90 69 0 c38 0 69 -4 69 -9 0 -6 -16 -36 -35 -68 -19 -32 -35 -61 -35 -65 0 -5
23 -8 50 -8 28 0 50 -3 50 -6 0 -3 -30 -38 -67 -76 -38 -38 -69 -72 -71 -76
-4 -12 441 -2 455 10 43 36 -25 156 -97 173 -19 4 -30 17 -40 48 -17 48 -67
87 -113 87 -19 0 -36 8 -48 24 -48 61 -157 82 -235 47z"/>
<path d="M11789 9282 c-44 -23 -58 -37 -79 -79 -19 -39 -31 -52 -48 -52 -61
-2 -144 -62 -173 -126 -25 -54 -25 -111 0 -125 11 -5 87 -10 173 -10 l154 0
20 52 c10 29 21 56 22 60 2 4 -14 8 -37 8 -22 0 -42 4 -45 9 -3 4 11 49 31
100 l37 91 68 0 c37 0 68 -4 68 -9 0 -6 -16 -37 -35 -70 -19 -32 -35 -62 -35
-65 0 -3 23 -6 50 -6 28 0 50 -3 50 -8 0 -4 -31 -39 -70 -77 -38 -38 -70 -73
-70 -77 0 -12 428 -10 451 2 53 29 -8 154 -87 180 -22 7 -34 19 -38 36 -15 59
-71 104 -130 104 -14 0 -29 8 -35 18 -16 29 -104 72 -149 72 -24 0 -61 -11
-93 -28z"/>
<path d="M10695 9200 c5 -9 2 -10 -14 -5 -15 4 -21 2 -21 -9 0 -11 8 -13 34
-9 28 4 39 1 60 -20 34 -34 33 -70 0 -96 -35 -28 -71 -26 -97 3 l-21 24 -18
-29 c-30 -49 5 -85 73 -74 42 7 103 50 93 66 -3 5 -1 9 4 9 30 0 14 99 -20
127 -22 19 -83 30 -73 13z"/>
<path d="M11089 9130 c-5 -30 5 -208 13 -217 16 -20 76 -16 87 5 5 10 9 62 8
116 l-2 98 -53 2 c-28 0 -52 -1 -53 -4z"/>
<path d="M7894 9085 c-4 -8 -4 -84 -2 -167 6 -195 22 -244 112 -334 50 -49 73
-64 129 -82 37 -12 81 -22 97 -22 30 0 30 -1 30 -55 l0 -55 -51 0 c-65 0 -89
-13 -89 -48 0 -49 11 -52 190 -52 175 0 190 4 190 46 0 38 -26 54 -86 54 l-55
0 3 52 3 51 61 13 c121 24 201 84 255 191 l34 67 3 179 c3 169 3 179 -15 175
-16 -3 -18 -19 -23 -173 l-5 -170 -34 -63 c-40 -73 -74 -105 -151 -141 -51
-24 -65 -26 -185 -26 -150 1 -192 14 -268 85 -85 77 -106 156 -107 393 0 80
-3 97 -15 97 -9 0 -18 -7 -21 -15z"/>
<path d="M10214 8901 c-106 -48 -137 -182 -61 -268 53 -61 138 -81 201 -48 22
12 37 13 64 5 20 -5 38 -8 40 -6 2 2 -3 17 -12 33 -13 27 -13 34 1 74 29 81
-6 166 -87 207 -54 27 -92 28 -146 3z m134 -41 c39 -24 72 -75 72 -113 0 -129
-166 -188 -242 -86 -29 38 -33 116 -10 155 38 60 120 80 180 44z"/>
<path d="M7994 8843 c13 -101 74 -185 169 -235 35 -19 58 -23 143 -23 92 0
105 2 159 30 92 47 136 114 160 243 l7 32 -323 0 -322 0 7 -47z"/>
<path d="M10850 8799 c-159 -24 -255 -94 -304 -219 -29 -73 -42 -252 -28 -376
23 -208 98 -299 282 -345 71 -18 307 -18 380 0 203 50 286 164 297 411 14 305
-69 459 -281 516 -66 19 -263 26 -346 13z m292 -141 c289 -133 295 -535 10
-675 -51 -25 -68 -28 -157 -28 -89 0 -106 3 -155 27 -169 83 -256 276 -202
445 41 129 143 223 277 257 52 13 171 -1 227 -26z"/>
<path d="M10937 8536 c-26 -7 -66 -28 -90 -47 -52 -42 -103 -99 -99 -112 1 -5
-2 -15 -8 -21 -5 -7 -7 -16 -3 -19 10 -11 11 -59 1 -85 -11 -30 12 -164 31
-178 11 -8 28 -8 67 1 42 10 56 9 78 -2 28 -14 121 -9 132 8 3 5 11 9 17 9 7
0 6 -4 -3 -10 -8 -5 -12 -11 -10 -14 3 -2 25 13 50 35 37 32 42 40 30 48 -11
8 -17 6 -21 -7 -4 -10 -14 -24 -23 -31 -19 -16 -21 -8 -3 11 6 8 17 23 23 33
7 12 22 20 39 20 24 1 33 9 52 44 63 119 -5 276 -136 315 -63 19 -61 19 -124
2z m-19 -104 c9 1 61 -20 115 -45 75 -36 97 -51 97 -67 0 -11 -7 -20 -15 -20
-8 0 -53 -23 -101 -51 -56 -33 -89 -48 -96 -41 -5 5 -11 54 -13 108 -1 55 -5
110 -8 124 -2 14 -2 17 0 8 2 -9 12 -16 21 -16z"/>
<path d="M12200 8762 c0 -24 -7 -31 -49 -49 l-49 -20 -21 20 -21 21 -45 -44
c-49 -49 -52 -56 -30 -80 14 -15 13 -22 -2 -63 -15 -41 -21 -47 -45 -47 -28 0
-28 0 -28 -70 0 -70 0 -70 28 -70 23 0 30 -7 46 -45 17 -42 17 -47 2 -64 -23
-25 -21 -32 27 -79 l44 -43 23 19 c22 17 28 18 55 7 16 -8 38 -16 48 -19 11
-4 17 -16 17 -36 l0 -30 64 0 65 0 3 31 c3 27 9 34 50 49 40 15 49 16 59 4 19
-23 43 -16 82 24 42 43 43 48 21 73 -15 17 -15 22 2 64 16 38 23 45 47 45 27
0 27 0 27 70 0 70 0 70 -28 70 -23 0 -29 6 -44 47 -15 42 -15 49 -3 63 22 24
19 32 -30 80 l-45 44 -21 -21 -21 -20 -49 20 c-42 18 -49 25 -49 49 0 28 0 28
-65 28 -65 0 -65 0 -65 -28z m154 -116 c92 -38 152 -138 143 -237 -6 -63 -23
-102 -63 -143 -113 -112 -283 -91 -372 48 -22 35 -27 52 -27 111 1 104 40 170
131 215 47 23 139 26 188 6z"/>
<path d="M1751 8759 c-72 -14 -182 -72 -244 -129 -104 -95 -157 -221 -157
-374 0 -104 26 -193 77 -267 152 -220 418 -289 663 -172 71 34 178 142 214
215 99 202 64 433 -88 583 -127 125 -297 177 -465 144z m264 -163 c83 -39 145
-102 183 -184 23 -49 27 -70 27 -152 0 -82 -4 -103 -27 -152 -36 -78 -96 -139
-175 -179 -62 -32 -74 -34 -163 -34 -88 0 -101 3 -162 33 -75 37 -142 104
-179 179 -32 65 -34 225 -5 292 l20 43 28 -34 c15 -18 28 -39 28 -46 0 -8 5
-10 12 -6 6 4 -5 -14 -25 -41 -45 -58 -47 -95 -12 -175 13 -30 24 -50 25 -45
0 6 10 -5 21 -23 25 -38 72 -66 98 -57 10 3 37 -2 61 -10 46 -16 123 -12 148
8 9 7 11 5 6 -9 -5 -13 5 -8 31 16 108 98 138 150 137 233 0 67 -16 122 -32
112 -5 -3 -7 0 -4 8 7 19 -45 70 -100 96 -34 17 -59 21 -104 19 l-60 -3 74
-89 c80 -96 91 -131 58 -181 -13 -20 -14 -25 -3 -25 10 0 11 -2 2 -8 -6 -4
-10 -19 -9 -34 2 -19 -1 -25 -10 -21 -8 3 -11 9 -8 14 6 11 -10 12 -20 2 -4
-4 3 -16 16 -26 22 -18 22 -18 1 -8 -28 14 -54 15 -33 1 8 -5 11 -10 5 -10 -5
0 -16 4 -23 9 -10 6 -2 18 30 46 24 20 34 34 23 29 -11 -4 -37 -9 -58 -12 -34
-4 -42 0 -80 39 -89 92 -213 241 -225 270 -18 42 -7 83 30 114 32 27 58 31
104 15 22 -8 40 -7 69 4 23 8 77 15 125 15 77 1 92 -2 155 -33z"/>
<path d="M7386 8640 c-26 -10 -57 -27 -67 -36 -18 -16 -22 -16 -82 2 -86 26
-186 24 -265 -5 l-62 -23 70 -68 c39 -37 70 -74 70 -82 0 -13 8 -15 38 -11 23
3 53 -1 75 -10 33 -14 37 -20 37 -51 0 -53 36 -139 78 -186 l37 -41 208 209
209 209 -47 41 c-81 71 -197 92 -299 52z m213 -53 c48 -32 53 -63 16 -90 -24
-17 -26 -17 -68 8 -50 28 -84 32 -113 10 -27 -21 -51 -18 -68 7 -27 37 -20 57
27 79 61 29 151 22 206 -14z"/>
<path d="M14780 8635 c-107 -30 -200 -110 -247 -210 -25 -53 -28 -71 -28 -160
0 -87 3 -107 26 -155 74 -157 243 -247 410 -221 86 14 157 51 216 114 61 64
87 112 103 190 25 121 -23 272 -111 352 -97 87 -247 124 -369 90z m188 -100
c69 -21 129 -69 166 -135 28 -49 31 -64 31 -135 0 -70 -4 -87 -30 -134 -54
-98 -172 -161 -273 -146 -152 22 -256 137 -255 280 1 61 33 158 41 123 2 -10
8 -18 13 -18 6 0 7 -4 4 -10 -3 -5 1 -10 9 -10 9 0 16 -5 16 -11 0 -5 -5 -7
-12 -3 -7 4 -8 3 -4 -5 4 -6 -2 -24 -14 -41 -18 -25 -19 -35 -11 -67 14 -50
47 -114 55 -106 3 4 6 -1 6 -9 0 -24 36 -33 160 -42 50 -3 69 0 83 12 12 10
14 18 6 22 -7 5 -5 9 6 13 9 4 13 3 10 -3 -3 -6 -2 -10 3 -10 15 0 62 66 77
110 40 113 -53 233 -175 228 -46 -1 -49 -7 -19 -34 44 -40 82 -97 89 -135 4
-21 3 -36 -1 -33 -5 3 -12 -1 -15 -10 -8 -21 -60 -37 -88 -27 -12 5 -47 37
-77 72 -30 35 -69 79 -86 98 -46 51 -58 84 -43 120 15 37 61 58 94 43 18 -8
35 -7 67 3 59 18 105 18 167 0z"/>
<path d="M11592 8593 c-12 -2 -26 -12 -31 -21 -5 -9 -10 -101 -10 -204 -2
-225 -9 -214 137 -205 51 4 97 9 103 12 12 8 12 402 0 410 -12 7 -169 14 -199
8z m168 -103 l0 -61 -82 3 -83 3 -3 58 -3 57 86 0 85 0 0 -60z m-122 -181 c15
-1 39 -1 55 -1 15 0 25 -4 22 -9 -3 -5 1 -6 9 -3 9 3 16 10 16 15 0 5 5 9 10
9 6 0 10 -24 10 -54 l0 -54 -81 -4 c-44 -2 -81 -2 -82 -1 -1 1 0 34 2 75 3 40
6 63 9 51 2 -17 11 -23 30 -24z"/>
<path d="M15921 8531 c-229 -52 -308 -73 -318 -87 -10 -13 -13 -68 -13 -225
l0 -207 -42 15 c-98 34 -211 -12 -260 -106 -79 -152 21 -321 189 -321 72 0
130 25 170 74 49 60 53 88 53 404 l0 292 23 5 c281 63 429 95 437 95 6 0 10
-87 10 -229 l0 -229 -48 15 c-91 29 -190 -5 -246 -85 -41 -57 -49 -158 -18
-218 43 -83 108 -124 197 -124 98 0 160 38 201 125 24 50 24 51 24 443 0 379
-1 393 -20 412 -11 11 -23 20 -27 19 -5 0 -145 -31 -312 -68z m-358 -603 c80
-57 71 -175 -15 -228 -111 -68 -249 56 -193 174 39 82 134 106 208 54z m555
12 c34 -15 47 -29 63 -65 71 -161 -149 -273 -241 -123 -45 74 -6 173 76 198
43 13 55 11 102 -10z"/>
<path d="M16430 8538 c-68 -36 -58 -144 14 -162 19 -5 25 -16 34 -58 9 -49 8
-55 -14 -81 -52 -61 -11 -147 69 -147 56 0 95 60 77 115 -10 30 -8 38 21 79
26 37 37 44 55 40 30 -8 83 22 95 53 32 84 -64 158 -134 103 -30 -24 -43 -70
-27 -100 10 -19 7 -29 -22 -71 -18 -27 -38 -49 -45 -49 -16 0 -29 25 -37 74
-6 32 -4 42 16 63 29 31 31 94 3 123 -26 26 -74 34 -105 18z"/>
<path d="M6677 8338 c-39 -68 -51 -117 -51 -203 0 -58 6 -95 22 -134 l21 -54
-20 -61 c-34 -99 -7 -216 67 -287 l34 -33 205 204 c113 113 204 209 202 215
-7 19 -99 83 -140 95 -22 6 -71 11 -109 11 -65 0 -68 0 -75 26 -4 16 0 45 9
70 9 24 11 43 6 43 -14 0 -109 91 -128 123 l-18 29 -25 -44z m318 -302 c43
-19 87 -61 79 -78 -2 -7 -16 -21 -29 -31 -24 -17 -26 -17 -68 8 -52 30 -74 31
-123 8 -36 -17 -36 -17 -55 6 -31 38 -24 60 24 81 50 23 124 26 172 6z"/>
<path d="M2675 8118 c-92 -100 -98 -110 -84 -141 13 -29 47 -47 71 -38 9 3 53
41 98 85 l81 79 -45 43 c-24 24 -46 44 -49 44 -3 0 -35 -33 -72 -72z"/>
<path d="M12693 8143 c-9 -3 -13 -29 -13 -84 0 -65 -3 -81 -16 -86 -29 -11
-49 12 -54 63 l-5 49 -18 -32 c-11 -22 -17 -54 -17 -103 l0 -70 175 0 175 0 0
70 c0 49 -6 81 -17 103 l-18 32 -5 -55 c-5 -51 -7 -55 -30 -55 -24 0 -25 2
-28 80 -3 74 -13 102 -34 89 -4 -3 -8 -41 -8 -85 0 -64 -3 -81 -16 -86 -35
-13 -49 11 -54 94 -4 58 -8 79 -17 76z"/>
<path d="M8040 8100 c-228 -35 -419 -202 -486 -425 -27 -90 -24 -259 5 -345
34 -98 78 -168 150 -240 117 -116 252 -170 427 -170 171 0 308 61 427 191 115
123 163 259 154 434 -6 118 -30 196 -89 286 -126 196 -362 304 -588 269z m211
-126 c88 -26 150 -63 215 -128 188 -189 188 -482 -1 -671 -187 -187 -469 -190
-665 -8 -46 43 -71 76 -102 141 -37 76 -41 94 -46 177 -6 114 18 202 78 293
113 168 333 251 521 196z"/>
<path d="M8085 7596 c-32 -14 -55 -52 -55 -91 0 -32 44 -82 80 -90 43 -9 51 0
34 40 -24 59 -21 66 27 50 53 -19 49 -20 49 14 0 64 -73 105 -135 77z"/>
<path d="M14172 8043 c-5 -10 -12 -67 -16 -126 l-6 -108 133 3 132 3 -4 80
c-2 44 -6 98 -10 120 l-6 40 -107 3 c-94 2 -108 1 -116 -15z"/>
<path d="M12512 7839 c-4 -91 18 -168 59 -209 34 -34 89 -60 125 -60 20 0 24
-5 24 -30 0 -25 -4 -30 -23 -30 -33 0 -62 -23 -54 -44 6 -14 20 -16 104 -14
93 3 98 4 101 25 3 17 -3 24 -22 29 -14 3 -30 3 -35 -1 -7 -4 -11 7 -11 28 0
32 3 35 38 41 52 8 108 49 134 99 27 52 41 243 17 235 -10 -3 -15 -32 -19
-104 -5 -105 -11 -123 -57 -167 -73 -69 -240 -62 -310 14 -34 37 -43 73 -43
170 0 66 -3 89 -13 89 -9 0 -13 -21 -15 -71z"/>
<path d="M2702 7644 l3 -199 243 -2 243 -2 -7 22 c-13 45 -67 143 -102 186
-74 91 -217 172 -331 187 l-51 7 2 -199z"/>
<path d="M12570 7775 c0 -87 111 -166 208 -149 78 14 142 81 142 149 l0 25
-175 0 -175 0 0 -25z"/>
<path d="M14105 7766 c-25 -25 -25 -27 -25 -186 0 -213 -13 -200 203 -200 89
0 167 4 173 8 28 18 34 56 34 200 0 206 10 196 -199 200 -160 3 -161 3 -186
-22z m257 -48 c133 -75 82 -288 -69 -288 -162 0 -224 203 -87 286 50 30 104
31 156 2z"/>
<path d="M14229 7673 c-37 -23 -50 -47 -51 -99 -1 -74 48 -112 125 -94 55 12
87 51 87 106 0 35 -6 47 -35 73 -41 35 -84 40 -126 14z"/>
<path d="M2318 7725 c-134 -105 -208 -258 -208 -430 0 -159 52 -280 171 -397
43 -43 85 -78 94 -78 13 0 15 55 15 475 0 261 -3 475 -7 475 -5 0 -34 -20 -65
-45z"/>
<path d="M11428 7733 l-38 -39 0 -106 c0 -98 -2 -108 -22 -122 -15 -11 -26
-12 -40 -5 -15 8 -18 22 -18 80 l0 71 -31 -26 c-17 -14 -35 -26 -40 -26 -5 0
-9 -18 -9 -39 0 -45 -22 -73 -48 -64 -23 9 -32 23 -32 52 0 17 -4 22 -16 17
-9 -4 -36 -11 -60 -17 -94 -24 -128 -108 -68 -169 l24 -25 448 0 c423 1 449 2
476 20 16 11 35 34 42 52 19 44 19 203 0 228 -13 19 -17 19 -72 4 l-59 -15 -5
-69 c-5 -64 -7 -70 -28 -73 -39 -6 -52 14 -52 83 0 62 -1 63 -31 74 -18 6 -36
11 -40 11 -5 0 -9 -36 -9 -80 0 -66 -3 -81 -18 -89 -11 -6 -24 -6 -35 0 -14 9
-17 26 -17 117 l0 108 -45 44 -45 44 0 -152 c0 -137 -2 -152 -19 -161 -13 -7
-23 -7 -34 2 -14 10 -17 37 -19 160 l-3 148 -37 -38z"/>
<path d="M7220 7744 c-72 -31 -110 -92 -110 -176 0 -99 64 -169 161 -176 73
-5 99 1 139 34 105 89 89 251 -30 315 -42 23 -112 24 -160 3z m170 -69 c92
-88 31 -235 -97 -235 -47 0 -99 31 -116 67 -6 16 -20 34 -29 41 -23 17 -23 47
0 64 11 7 24 23 31 36 36 68 153 82 211 27z"/>
<path d="M7264 7650 c-39 -15 -36 -28 7 -37 49 -10 70 -34 53 -60 -10 -15 -24
-18 -78 -16 -40 2 -66 -2 -66 -8 0 -6 5 -7 10 -4 6 3 14 -5 20 -19 18 -50 78
-60 135 -23 31 20 35 26 35 69 0 61 -7 76 -41 93 -31 17 -44 18 -75 5z"/>
<path d="M12137 7663 c-10 -9 -8 -315 1 -331 7 -9 49 -12 178 -10 l169 3 3
173 2 172 -173 0 c-96 0 -177 -3 -180 -7z m313 -76 l0 -54 -61 -47 -61 -47
-33 25 c-19 14 -37 26 -40 26 -3 0 -21 -11 -39 -25 -18 -14 -36 -25 -39 -25
-4 0 -7 45 -7 100 l0 100 140 0 140 0 0 -53z"/>
<path d="M1096 7584 c-14 -14 -16 -67 -16 -435 0 -406 1 -420 20 -439 19 -19
33 -20 433 -20 357 0 416 2 435 16 l22 15 0 420 c0 271 -4 427 -10 440 -10 18
-26 19 -440 19 -376 0 -430 -2 -444 -16z m804 -203 c0 -72 -4 -132 -10 -136
-5 -3 -7 -13 -4 -23 4 -12 3 -13 -3 -5 -9 13 -105 -56 -238 -173 l-60 -52 -27
21 c-117 96 -121 98 -111 70 3 -10 3 -15 -1 -11 -4 3 -8 13 -10 21 -2 19 -25
47 -38 47 -19 0 -122 -84 -108 -88 8 -3 16 0 18 7 2 6 8 11 13 11 6 0 7 -5 4
-11 -5 -7 20 -10 79 -8 48 1 90 -1 94 -5 4 -4 -49 -6 -117 -5 -118 2 -124 1
-155 -22 -17 -14 -37 -29 -43 -33 -10 -6 -13 49 -13 258 l0 266 365 0 365 0 0
-129z"/>
<path d="M15330 7435 c0 -22 -9 -30 -33 -26 -4 1 -17 -4 -28 -9 -18 -10 -19
-20 -17 -108 l3 -97 155 0 155 0 3 103 c2 65 -1 102 -8 103 -5 1 -14 3 -20 4
-5 1 -20 3 -31 4 -17 1 -20 6 -17 26 l5 25 -83 0 c-83 0 -84 0 -84 -25z m60
-70 c-11 -13 -9 -15 14 -15 14 0 26 5 26 10 0 6 23 10 50 10 l51 0 -3 -72 -3
-73 -115 1 -115 0 -3 72 -3 72 51 0 c31 0 50 4 50 12 0 6 3 8 6 5 4 -4 1 -13
-6 -22z"/>
<path d="M14157 7248 c9 -157 2 -149 130 -146 l107 3 7 30 c4 17 9 72 12 123
l6 92 -134 0 -134 0 6 -102z"/>
<path d="M6633 7318 c-10 -15 -18 -628 -9 -664 l6 -24 283 2 282 3 3 339 c2
265 -1 341 -10 348 -7 4 -133 8 -280 8 -203 0 -269 -3 -275 -12z m517 -113 l0
-75 -237 2 -238 3 -3 59 c-2 32 -1 65 2 72 4 11 51 14 241 14 l235 0 0 -75z
m0 -420 l0 -105 -45 0 -45 0 0 105 0 105 45 0 45 0 0 -105z"/>
<path d="M13331 7316 c-7 -9 -20 -16 -29 -16 -11 0 -13 -8 -8 -37 3 -21 6 -59
6 -85 l0 -48 65 0 c58 0 65 2 65 20 0 31 -40 129 -64 157 -20 23 -23 24 -35 9z"/>
<path d="M12770 7278 c-13 -23 -29 -66 -36 -95 l-12 -53 69 0 c69 0 69 0 69
28 0 15 3 50 6 77 5 48 4 51 -26 68 -17 9 -35 17 -39 17 -4 0 -18 -19 -31 -42z"/>
<path d="M12926 7261 c-2 -3 -6 -34 -10 -68 l-7 -61 55 -4 c73 -4 86 7 86 69
l0 49 -61 10 c-33 6 -62 8 -63 5z"/>
<path d="M13162 7257 l-53 -10 3 -56 3 -56 68 -3 c65 -3 67 -2 67 21 0 52 -13
117 -24 116 -6 -1 -35 -6 -64 -12z"/>
<path d="M13770 7251 c-128 -40 -202 -135 -208 -271 -4 -69 -1 -80 30 -140 75
-145 234 -197 385 -124 98 47 154 139 155 252 2 165 -127 294 -291 291 -25 0
-57 -4 -71 -8z m178 -103 c55 -34 102 -113 102 -172 0 -116 -120 -221 -229
-201 -88 17 -140 63 -167 149 -18 57 -11 104 25 163 52 85 182 114 269 61z"/>
<path d="M13792 7084 c-73 -37 -114 -133 -75 -176 10 -12 12 -18 4 -13 -10 5
-12 4 -7 -3 4 -7 13 -12 21 -12 7 0 16 -9 20 -19 7 -22 41 -32 98 -29 68 3
148 116 117 165 -11 17 -11 17 -6 0 3 -11 2 -16 -4 -12 -6 4 -30 -15 -53 -40
l-42 -47 -52 43 c-29 24 -53 52 -53 61 0 11 -5 15 -15 12 -8 -4 -12 -10 -9
-15 3 -5 0 -9 -5 -9 -14 0 -14 17 -1 25 31 19 61 14 96 -17 l36 -32 39 44 c21
25 39 49 39 54 0 5 -3 6 -7 3 -3 -4 -11 0 -17 9 -17 23 -85 28 -124 8z"/>
<path d="M14946 7242 l-58 -3 3 -113 c4 -127 13 -146 64 -146 51 0 56 14 53
146 l-3 119 -59 -3z"/>
<path d="M11885 7218 c-3 -7 -6 -49 -7 -93 l-3 -80 -98 -5 c-145 -7 -137 12
-137 -326 l0 -273 24 -28 24 -28 429 1 c235 0 441 3 456 7 51 14 57 47 57 326
0 162 -4 259 -11 274 -17 37 -45 47 -139 49 l-85 3 -3 93 -3 92 -250 0 c-191
0 -251 -3 -254 -12z m430 -123 l0 -50 -177 -3 -178 -2 0 55 0 55 178 -2 177
-3 0 -50z m-277 -161 c17 -5 22 -14 22 -40 l0 -34 75 0 75 0 0 40 0 40 133 0
c90 0 137 -4 145 -12 9 -9 12 -71 12 -219 0 -179 -2 -208 -16 -213 -9 -3 -168
-6 -354 -6 -186 0 -345 3 -354 6 -14 5 -16 34 -16 219 0 161 3 215 13 218 17
8 238 8 265 1z"/>
<path d="M11990 6808 c-44 -58 -36 -100 21 -112 22 -4 34 -15 44 -41 9 -20 28
-41 46 -50 36 -19 62 -13 52 11 -4 12 -3 15 5 10 16 -9 15 7 0 22 -9 9 -9 15
-1 23 12 12 33 4 33 -13 0 -7 -6 -6 -15 2 -10 8 -15 9 -15 2 0 -6 7 -15 16
-20 11 -6 13 -11 5 -16 -6 -4 -11 -12 -11 -18 0 -6 8 -3 19 6 13 12 18 31 18
66 0 27 6 56 13 65 10 12 -2 15 -92 17 l-103 3 -5 38 -5 39 -25 -34z"/>
<path d="M2640 7188 c-33 -50 -35 -54 -17 -39 9 7 17 10 17 7 0 -4 8 -2 18 3
19 10 42 -2 42 -23 0 -5 -6 -2 -13 9 -10 12 -16 14 -21 7 -4 -6 2 -17 14 -24
19 -12 20 -22 20 -200 l0 -187 33 5 c191 33 342 143 422 308 19 40 35 76 35
79 0 3 -90 6 -200 7 l-201 1 7 -28 c4 -15 11 -39 16 -52 5 -13 7 -25 6 -27 -2
-1 -37 38 -78 87 -40 49 -76 89 -80 89 -3 0 -12 -10 -20 -22z"/>
<path d="M15298 7099 c-101 -15 -188 -82 -231 -178 -31 -67 -30 -189 1 -249
32 -61 272 -384 283 -380 18 6 269 362 285 403 23 61 16 184 -14 242 -60 117
-192 183 -324 162z m174 -115 c55 -37 98 -119 98 -184 0 -57 -38 -138 -80
-169 -36 -26 -102 -51 -138 -51 -116 0 -222 110 -222 230 0 48 44 135 85 166
46 35 79 44 152 41 50 -2 71 -9 105 -33z"/>
<path d="M12947 7073 l-37 -4 6 -57 c4 -31 7 -58 8 -59 1 -1 29 1 64 4 l62 6
0 33 c0 26 5 33 23 37 21 4 21 4 1 6 -11 0 -29 10 -39 21 -10 11 -25 19 -34
18 -9 -1 -33 -3 -54 -5z"/>
<path d="M12725 7038 c10 -44 44 -125 59 -137 8 -7 24 -5 50 7 36 17 37 18 32
61 -4 24 -6 57 -6 72 l0 29 -71 0 -71 0 7 -32z"/>
<path d="M13114 7058 c-5 -7 -9 -20 -8 -28 1 -8 2 -27 3 -41 1 -24 5 -27 63
-33 34 -3 63 -5 64 -3 2 2 6 29 10 60 l7 57 -65 0 c-41 0 -69 -5 -74 -12z"/>
<path d="M13300 7026 c0 -24 -2 -56 -5 -72 -5 -25 -1 -32 29 -51 26 -17 37
-19 44 -10 22 27 52 98 58 136 l7 41 -67 0 -66 0 0 -44z"/>
<path d="M14450 7017 l0 -43 -55 -18 c-156 -49 -266 -229 -238 -392 21 -121
83 -209 185 -265 60 -33 67 -34 168 -34 92 0 112 3 160 26 140 66 225 229 200
382 -10 62 -24 97 -63 155 -28 42 -28 44 -11 63 17 19 18 19 39 -1 16 -15 24
-17 33 -8 20 20 14 31 -42 87 -50 49 -54 51 -70 35 -16 -16 -16 -18 4 -39 20
-21 20 -22 1 -39 -18 -17 -22 -16 -90 16 -68 32 -70 34 -73 73 l-3 40 -72 3
-73 3 0 -44z m178 -158 c168 -82 209 -301 80 -431 -125 -125 -337 -94 -421 61
-99 180 26 391 232 391 46 0 78 -6 109 -21z"/>
<path d="M14452 6765 c-18 -8 -52 -35 -75 -60 l-43 -46 -2 -84 c-2 -81 -1 -86
27 -117 29 -33 30 -33 121 -33 l92 -1 49 54 c59 65 76 116 59 178 -14 49 -57
98 -101 113 l-31 11 6 -78 c3 -42 6 -86 6 -97 2 -30 -11 -88 -23 -103 -15 -19
-35 3 -30 33 3 14 -1 31 -11 40 -19 20 -20 35 -3 58 12 18 12 147 -1 147 -4
-1 -22 -7 -40 -15z"/>
<path d="M8460 6654 c-107 -24 -237 -53 -288 -65 -51 -11 -99 -27 -107 -36
-12 -12 -15 -51 -15 -220 0 -192 -1 -205 -17 -197 -10 4 -47 10 -83 12 -54 3
-73 -1 -110 -21 -129 -68 -150 -256 -38 -351 118 -101 309 -41 347 110 7 26
11 153 11 317 l0 275 78 17 c42 10 142 32 222 50 80 18 147 31 150 30 3 -2 4
-103 2 -225 -3 -205 -4 -221 -20 -214 -30 13 -124 17 -162 5 -74 -22 -139
-116 -140 -201 0 -66 39 -142 89 -176 113 -74 257 -39 316 79 l25 51 0 386 c0
362 -1 388 -18 403 -10 10 -25 17 -33 16 -8 0 -102 -20 -209 -45z m-433 -611
c95 -70 44 -231 -74 -235 -50 -2 -92 19 -121 62 -50 73 -6 181 79 199 47 10
78 3 116 -26z m557 6 c91 -71 64 -210 -46 -240 -32 -8 -46 -6 -82 10 -99 43
-114 164 -30 230 19 15 41 21 79 21 38 0 60 -6 79 -21z"/>
<path d="M2806 6657 c-6 -32 -9 -34 -64 -43 l-57 -9 -3 -149 c-2 -113 1 -151
10 -158 7 -4 117 -8 244 -8 185 0 234 3 243 14 8 9 11 60 9 157 l-3 144 -50 5
c-64 7 -75 14 -75 51 l0 29 -124 0 -124 0 -6 -33z m194 -42 c74 -38 106 -130
72 -207 -63 -144 -270 -108 -296 52 -10 62 33 134 94 159 37 15 97 13 130 -4z"/>
<path d="M2875 6561 c-46 -28 -62 -52 -69 -105 -5 -45 -4 -50 27 -81 30 -30
37 -32 77 -28 32 4 54 14 77 36 18 16 30 34 27 39 -3 4 0 8 5 8 6 0 11 20 11
46 0 27 -4 43 -10 39 -5 -3 -7 0 -4 9 7 19 -50 56 -86 56 -14 0 -38 -8 -55
-19z m105 -24 c16 -1 20 -14 21 -64 1 -34 -4 -60 -16 -70 -4 -4 -5 -2 -1 5 8
14 -10 17 -19 2 -22 -35 -105 16 -105 65 0 39 44 79 78 70 15 -3 34 -7 42 -8z"/>
<path d="M2228 6636 c-103 -37 -123 -77 -123 -241 0 -109 2 -123 24 -159 37
-60 93 -81 216 -81 127 0 185 25 225 96 22 39 25 55 25 149 0 89 -4 111 -22
147 -40 75 -105 103 -233 103 -41 -1 -92 -7 -112 -14z m195 -60 c39 -17 92
-71 106 -109 46 -121 -47 -257 -176 -257 -164 0 -256 178 -158 305 51 68 151
94 228 61z"/>
<path d="M2314 6509 c-47 -13 -103 -75 -102 -113 0 -17 -1 -35 -2 -41 -5 -21
0 -36 11 -29 8 4 8 0 0 -15 -8 -14 -8 -21 -1 -21 5 0 10 -7 10 -16 0 -10 6
-14 18 -10 9 2 28 8 41 11 16 5 21 4 17 -4 -5 -8 5 -10 36 -5 138 20 161 217
28 246 -14 3 -39 2 -56 -3z"/>
<path d="M12966 6614 c-14 -13 -16 -53 -16 -279 0 -226 2 -266 16 -279 13 -14
64 -16 408 -16 453 0 426 -6 426 93 0 31 4 57 8 57 5 0 54 -22 109 -50 107
-53 127 -58 140 -36 4 8 6 117 3 243 -4 202 -7 228 -22 231 -9 2 -66 -22 -127
-53 l-111 -55 0 63 c0 103 28 97 -428 97 -342 0 -393 -2 -406 -16z m299 -112
c57 -29 85 -78 85 -150 0 -108 -98 -184 -203 -157 -81 20 -127 81 -127 166 0
125 129 200 245 141z m357 18 c141 -39 174 -216 58 -302 -91 -67 -229 -13
-260 101 -12 46 -6 82 21 127 27 45 67 69 139 83 3 0 22 -4 42 -9z m386 -188
c3 -192 10 -185 -123 -120 l-85 42 0 82 0 81 88 41 c48 23 94 41 102 39 12 -2
15 -29 18 -165z"/>
<path d="M13140 6463 c-20 -7 -90 -75 -90 -87 0 -5 10 0 23 12 25 24 37 28 37
12 0 -5 -7 -10 -16 -10 -9 0 -12 -5 -8 -12 4 -7 4 -10 -1 -6 -12 11 -38 -22
-40 -51 -4 -56 42 -101 101 -99 22 1 46 -2 54 -7 9 -5 11 -4 6 3 -4 7 -1 12 7
12 19 0 63 49 77 85 34 90 -58 181 -150 148z m64 -24 c-5 -9 2 -10 22 -6 16 3
23 4 16 1 -9 -4 -7 -12 8 -31 27 -34 25 -69 -5 -98 -34 -35 -86 -34 -114 1
-37 47 -20 104 38 128 45 19 44 18 35 5z"/>
<path d="M13535 6461 c-26 -12 -103 -91 -88 -91 7 0 8 -12 2 -37 -6 -29 -4
-44 8 -63 26 -40 45 -49 100 -50 48 0 54 3 92 42 61 65 62 127 3 181 -23 21
-88 31 -117 18z m89 -37 c15 -6 17 -4 11 7 -5 8 -5 11 1 6 5 -5 10 -13 10 -18
3 -22 5 -23 12 -12 5 7 8 -14 8 -46 -1 -33 -3 -58 -5 -56 -2 3 -13 -2 -25 -10
-51 -37 -126 -1 -126 60 0 34 14 56 45 74 20 11 33 10 69 -5z"/>
<path d="M1094 6477 c-2 -7 -3 -114 -2 -237 l3 -225 329 -3 c234 -2 333 1 342
9 9 7 14 32 14 65 l0 54 94 -47 c55 -27 100 -44 110 -40 14 6 16 30 16 197 0
167 -2 191 -16 197 -10 4 -55 -13 -110 -40 l-94 -47 0 53 c0 29 -5 58 -12 65
-18 18 -667 17 -674 -1z m242 -86 c31 -14 47 -30 64 -65 28 -59 21 -104 -23
-153 -57 -61 -143 -56 -207 12 -21 22 -25 37 -25 85 0 48 4 63 25 85 28 30 74
54 105 54 11 0 38 -8 61 -18z m306 9 c20 -6 50 -26 67 -46 25 -28 31 -43 31
-82 0 -84 -56 -142 -137 -142 -75 0 -134 61 -135 140 -1 51 28 96 77 120 46
23 48 23 97 10z m312 -26 c10 -25 7 -238 -4 -254 -8 -12 -22 -8 -89 25 l-81
39 0 67 0 66 78 36 c90 42 88 42 96 21z"/>
<path d="M1201 6325 c-36 -33 -38 -39 -36 -82 5 -61 29 -86 90 -88 42 -1 49 3
81 37 45 50 47 97 5 139 -42 42 -89 40 -140 -6z"/>
<path d="M1556 6348 c-25 -14 -66 -61 -59 -68 2 -3 13 6 23 20 11 14 20 20 20
13 0 -6 -11 -20 -24 -31 -18 -14 -24 -27 -22 -52 3 -41 49 -85 80 -75 12 3 31
7 44 9 29 4 66 42 56 58 -4 6 -3 8 4 4 6 -3 13 6 17 23 7 34 -15 85 -44 101
-25 13 -71 12 -95 -2z"/>
<path d="M6850 6400 l0 -90 -89 0 c-82 0 -92 -2 -120 -26 l-31 -26 0 -279 0
-280 25 -24 24 -25 440 0 440 0 28 24 28 24 0 281 c0 343 8 324 -141 329 l-96
4 4 86 3 87 -257 3 -258 2 0 -90z m440 -40 l0 -50 -180 0 -180 0 0 50 0 50
180 0 180 0 0 -50z m-260 -200 l-7 -40 78 0 79 0 0 40 0 41 143 -3 142 -3 0
-215 0 -215 -365 0 -365 0 -3 205 c-1 112 0 210 2 217 4 10 43 13 154 13 l149
0 -7 -40z"/>
<path d="M6959 6071 c-27 -35 -35 -98 -11 -93 6 1 12 -2 12 -8 0 -5 8 -10 18
-10 23 0 52 -30 52 -53 0 -19 48 -47 80 -47 11 0 20 5 20 12 0 6 3 8 6 5 4 -3
15 -2 25 4 14 7 19 21 19 56 l0 47 -21 -23 c-12 -12 -23 -20 -26 -18 -2 3 13
21 33 41 l37 36 -95 0 c-104 0 -114 5 -120 55 l-3 30 -26 -34z"/>
<path d="M7744 6288 c5 -89 10 -116 23 -125 22 -17 45 -16 68 0 15 12 19 31
21 125 l4 112 -62 0 -61 0 7 -112z"/>
<path d="M12655 6341 c-11 -5 -29 -19 -40 -31 -19 -20 -20 -39 -23 -249 -4
-245 3 -290 43 -317 29 -19 83 -21 114 -5 48 26 52 54 49 312 l-3 241 -33 29
c-33 29 -67 36 -107 20z m104 -47 c25 -32 27 -61 5 -92 -48 -70 -144 -36 -144
52 0 63 98 92 139 40z"/>
<path d="M12384 6220 c-12 -5 -31 -21 -43 -36 -20 -25 -21 -38 -21 -210 l0
-184 28 -30 c22 -26 35 -31 71 -32 38 0 49 4 73 31 l28 31 0 185 0 185 -27 30
c-29 32 -72 44 -109 30z"/>
<path d="M2485 6107 l-220 -112 -110 -5 -110 -5 0 -255 0 -255 110 -5 110 -5
223 -113 c150 -76 230 -111 243 -107 50 16 49 5 49 485 l0 449 -26 20 c-15 12
-32 21 -38 20 -6 0 -110 -50 -231 -112z m183 -374 c2 -261 0 -322 -11 -326 -8
-3 -102 35 -211 84 -177 80 -203 89 -257 89 l-59 0 0 150 0 150 58 0 c52 0 80
10 258 90 109 49 204 88 209 87 6 -2 11 -122 13 -324z"/>
<path d="M2976 6129 l-26 -20 0 -234 0 -233 -39 -39 c-50 -49 -68 -110 -51
-168 15 -49 62 -101 108 -116 103 -34 222 53 222 163 0 42 -35 112 -65 132
l-25 16 0 219 c0 234 -6 271 -46 290 -35 16 -47 14 -78 -10z m62 -41 c9 -9 12
-78 12 -249 l0 -237 33 -21 c89 -55 72 -188 -28 -221 -130 -43 -218 152 -100
221 l35 21 0 237 c0 227 4 261 30 261 3 0 11 -5 18 -12z"/>
<path d="M14484 6139 c-42 -12 -100 -77 -108 -122 -10 -54 10 -116 51 -154 19
-18 41 -33 49 -33 18 0 18 -8 -7 -94 l-21 -73 -101 23 c-91 21 -104 22 -124 8
-25 -16 -30 -51 -10 -76 18 -23 272 -81 297 -68 12 6 28 38 41 83 13 39 26 76
29 80 6 7 100 -124 100 -140 0 -5 -47 -53 -105 -108 -151 -144 -147 -160 57
-205 146 -33 170 -31 183 10 12 39 -18 66 -88 80 -35 6 -69 15 -75 19 -7 4 25
40 84 95 70 65 98 86 104 76 4 -7 21 -56 36 -108 l28 -95 89 -76 c124 -106
139 -114 170 -100 29 13 40 44 26 70 -5 10 -48 50 -97 90 l-87 72 -17 86 c-28
140 -50 189 -160 354 -32 48 -58 90 -58 92 0 6 73 74 80 75 3 0 44 -31 92 -70
55 -44 96 -70 112 -70 42 0 70 43 48 77 -13 21 -234 193 -248 193 -7 0 -39
-21 -71 -47 -32 -25 -64 -50 -70 -56 -9 -6 -15 -4 -20 9 -14 41 -48 77 -87 95
-45 20 -74 22 -122 8z m129 -89 c39 -44 37 -92 -7 -136 -53 -53 -127 -40 -159
29 -51 106 87 195 166 107z"/>
<path d="M12078 6091 l-33 -29 -3 -129 c-2 -113 -1 -132 17 -160 26 -42 80
-58 128 -38 53 22 65 64 61 207 l-3 120 -33 29 c-44 39 -90 39 -134 0z m95 -3
c31 -16 46 -39 47 -70 0 -40 -9 -57 -41 -74 -63 -32 -142 44 -108 105 13 23
52 50 72 51 5 0 18 -5 30 -12z"/>
<path d="M13015 5911 c-83 -39 -136 -123 -136 -216 0 -133 100 -234 234 -235
138 0 237 97 237 235 0 99 -55 183 -142 219 -51 22 -143 20 -193 -3z m185 -70
c96 -50 118 -179 45 -260 -32 -35 -33 -39 -19 -59 8 -12 11 -22 5 -22 -5 0
-13 9 -16 21 -5 14 -12 18 -23 14 -136 -55 -280 65 -242 201 12 44 59 100 95
115 37 15 119 10 155 -10z"/>
<path d="M13072 5783 c-6 -3 -9 -10 -6 -15 4 -7 2 -8 -5 -4 -6 4 -18 2 -26 -4
-18 -15 -20 -34 -3 -24 7 4 8 3 4 -5 -4 -6 -2 -19 6 -28 7 -10 8 -14 1 -10 -6
4 -14 1 -17 -5 -4 -9 -5 -8 -5 2 3 36 -1 43 -15 31 -16 -13 -7 -81 15 -108 12
-15 12 -16 -1 -9 -8 4 -6 0 4 -8 11 -9 31 -17 45 -17 14 -1 37 -3 51 -4 27 -4
70 27 89 64 11 19 9 21 -13 21 -13 0 -38 -8 -54 -17 -28 -16 -31 -16 -56 0
-30 20 -33 43 -10 75 18 26 15 71 -4 65z"/>
<path d="M1434 5735 c-185 -40 -322 -191 -343 -376 -5 -42 -6 -92 -2 -113 l6
-37 40 40 c23 25 48 41 62 41 20 0 23 5 23 38 0 97 77 210 175 256 43 21 69
26 132 26 92 0 158 -26 218 -85 40 -41 85 -126 85 -162 0 -13 3 -23 8 -23 4 0
31 22 61 49 l55 48 -14 34 c-56 142 -185 243 -340 268 -79 13 -89 13 -166 -4z"/>
<path d="M8415 5644 c-90 -23 -150 -67 -188 -138 -28 -55 -30 -166 -3 -215 33
-61 219 -302 230 -298 14 4 188 237 218 292 17 31 22 56 22 110 1 79 -18 128
-68 177 -51 51 -153 86 -211 72z m111 -83 c144 -65 136 -270 -11 -327 -157
-60 -298 112 -212 258 46 80 137 108 223 69z"/>
<path d="M12320 5549 c-19 -12 -37 -25 -40 -29 -3 -5 -37 -8 -76 -8 -52 0 -82
-6 -112 -21 -44 -23 -62 -41 -38 -41 8 0 30 -15 49 -33 30 -28 41 -32 76 -29
40 4 41 3 61 -42 20 -47 61 -96 79 -96 11 0 201 262 201 277 0 17 -71 43 -118
43 -30 0 -59 -8 -82 -21z"/>
<path d="M6617 5543 c-4 -3 -7 -21 -7 -40 l0 -33 240 0 240 0 0 28 c0 50 -7
52 -245 52 -122 0 -225 -3 -228 -7z"/>
<path d="M13795 5521 c-45 -20 -85 -62 -104 -108 -10 -25 -20 -32 -53 -36 -82
-11 -156 -89 -172 -179 -5 -30 -3 -41 14 -58 19 -19 30 -20 176 -18 l156 3 19
50 c26 68 25 71 -21 67 -50 -5 -50 -1 -7 109 l33 84 72 3 c40 2 72 -1 72 -5
-1 -4 -19 -37 -40 -73 l-40 -65 50 -3 c28 -2 50 -6 50 -9 0 -3 -29 -38 -65
-78 -36 -40 -65 -75 -65 -78 0 -11 420 -8 440 3 14 8 20 21 20 46 0 65 -48
125 -110 139 -23 5 -30 12 -30 29 0 46 -69 106 -123 106 -13 0 -34 12 -48 26
-58 62 -147 80 -224 45z"/>
<path d="M1471 5488 c-47 -16 -152 -114 -144 -135 4 -11 2 -14 -5 -9 -8 4 -10
2 -6 -7 3 -8 -9 -32 -27 -53 l-33 -39 40 38 c43 40 68 46 95 21 17 -15 21 -14
54 15 20 17 41 31 47 31 6 0 40 -31 76 -70 36 -38 68 -70 73 -70 5 0 27 19 49
43 36 37 40 47 36 79 -13 114 -143 193 -255 156z"/>
<path d="M7576 5415 c-145 -37 -285 -151 -349 -285 -100 -210 -67 -441 88
-608 111 -120 228 -171 391 -172 74 0 120 5 165 20 192 59 333 217 375 420 52
252 -97 516 -345 608 -84 31 -236 39 -325 17z m297 -183 c78 -39 148 -111 185
-190 22 -47 26 -71 27 -142 0 -107 -20 -168 -83 -245 -140 -174 -403 -186
-558 -27 -143 147 -148 369 -12 518 83 90 169 125 295 121 67 -3 92 -9 146
-35z"/>
<path d="M7625 5106 c-68 -31 -123 -82 -107 -98 9 -9 18 -9 37 0 32 15 32 9 1
-12 -23 -14 -26 -14 -41 0 -15 15 -17 15 -31 -2 -27 -35 -35 -54 -24 -54 6 0
8 -4 5 -10 -7 -12 -14 -40 -22 -91 -4 -29 -1 -41 16 -58 12 -12 19 -27 15 -34
-4 -7 -4 -9 1 -5 5 5 13 -2 20 -15 6 -12 17 -21 23 -20 7 2 9 -4 5 -14 -5 -12
-2 -15 10 -10 9 3 19 2 22 -3 3 -4 -1 -11 -7 -13 -7 -3 -3 -6 9 -6 12 -1 25
-5 28 -11 3 -5 21 -10 38 -11 18 0 26 -3 20 -6 -7 -2 -13 -9 -13 -14 0 -6 4
-8 9 -5 5 3 31 8 57 10 27 2 58 7 68 12 16 6 18 4 12 -12 -5 -14 1 -11 25 11
52 47 58 58 48 77 -5 10 -8 18 -7 19 2 0 14 2 27 3 22 3 23 2 6 -10 -10 -8
-15 -17 -12 -21 8 -8 5 -11 50 55 21 31 39 71 43 97 7 51 -6 118 -21 107 -6
-4 -48 -51 -94 -104 -46 -54 -88 -98 -93 -98 -5 0 -51 35 -103 78 -83 67 -94
81 -92 106 3 47 29 55 74 23 21 -14 53 -40 71 -57 18 -16 37 -30 41 -30 4 0
41 40 83 88 l76 88 -32 22 c-84 57 -160 66 -241 28z"/>
<path d="M1905 5370 c-27 -27 -54 -50 -61 -50 -6 0 -11 -18 -11 -44 -1 -47
-29 -120 -63 -164 -31 -39 -108 -91 -153 -103 -93 -25 -206 -2 -284 57 -31 23
-93 107 -93 124 0 4 11 12 24 18 22 10 25 8 28 -11 2 -18 10 -22 36 -22 25 0
36 -6 45 -24 7 -15 29 -31 57 -40 25 -9 50 -19 56 -23 5 -4 32 -5 58 -4 41 3
55 10 93 47 42 41 93 110 93 126 0 4 -18 -12 -39 -35 -22 -23 -45 -42 -52 -42
-7 0 -43 33 -80 72 l-67 73 -42 -34 -42 -33 -28 21 -29 21 -36 -35 c-40 -40
-64 -44 -90 -15 -26 28 -35 26 -83 -23 l-42 -43 15 -43 c20 -57 81 -142 130
-182 22 -17 69 -46 105 -63 61 -29 72 -31 180 -31 112 0 117 1 190 37 94 46
168 121 213 215 27 58 32 82 35 163 2 52 0 105 -5 118 -8 21 -10 20 -58 -28z"/>
<path d="M6602 5355 c2 -14 6 -25 11 -25 4 0 113 0 242 0 l235 0 0 25 0 25
-246 0 -245 0 3 -25z"/>
<path d="M12958 5165 c-2 -108 -1 -199 1 -201 2 -2 112 -4 243 -4 l239 0 -7
23 c-56 185 -233 335 -436 371 l-37 7 -3 -196z"/>
<path d="M11928 5302 c-20 -47 -14 -142 11 -190 17 -33 21 -53 16 -82 -4 -25
-1 -51 10 -76 16 -38 61 -94 76 -94 8 0 65 74 162 211 l47 67 -28 18 c-20 14
-46 19 -102 19 l-75 1 0 39 c0 34 -4 42 -27 52 -16 7 -39 23 -53 37 l-26 26
-11 -28z"/>
<path d="M12590 5256 c-175 -129 -259 -342 -215 -550 29 -141 108 -265 219
-344 l46 -33 0 480 c0 265 -1 481 -2 481 -2 0 -23 -15 -48 -34z"/>
<path d="M2400 5245 c-8 -10 -11 -31 -7 -58 3 -23 3 -34 0 -24 -4 16 -13 18
-81 13 -43 -2 -83 -5 -89 -5 -7 -1 -22 -10 -33 -21 -18 -18 -20 -33 -20 -145
l0 -125 515 0 515 0 0 119 c0 112 -2 122 -24 147 -21 25 -30 28 -92 28 -65 1
-69 2 -66 23 5 37 -15 63 -49 63 -40 0 -59 -37 -39 -78 8 -15 16 -31 19 -36 2
-5 -1 -6 -7 -2 -6 3 -13 -2 -16 -11 -3 -10 -4 -4 -3 13 l3 31 -201 -3 c-111
-2 -210 -1 -221 2 -14 4 -21 15 -22 36 -1 17 -5 35 -8 39 -9 15 -61 10 -74 -6z"/>
<path d="M6608 5234 c-4 -3 -4 -126 -2 -272 3 -147 5 -318 4 -379 l0 -113 240
0 240 0 -2 383 -3 382 -236 3 c-129 1 -238 0 -241 -4z"/>
<path d="M14723 5182 c-100 -36 -169 -112 -193 -214 -64 -266 236 -467 462
-310 41 30 61 52 88 106 30 59 34 77 34 139 -1 87 -26 149 -82 205 -80 80
-206 111 -309 74z m183 -91 c91 -41 139 -149 109 -246 -41 -140 -193 -191
-318 -109 -46 30 -87 110 -87 169 1 146 161 247 296 186z"/>
<path d="M14772 5020 c-13 -5 -39 -25 -59 -44 -44 -41 -55 -102 -26 -144 9
-15 17 -34 15 -42 -1 -11 0 -11 4 -2 5 10 11 8 28 -7 15 -14 40 -23 73 -26 47
-4 52 -2 85 33 46 48 58 72 58 119 l0 37 -40 -39 c-41 -42 -51 -61 -24 -51 9
3 12 2 9 -4 -4 -6 -14 -9 -23 -8 -9 2 -17 -2 -17 -7 0 -16 -41 -65 -48 -58 -4
3 5 15 19 26 25 19 25 21 7 31 -51 29 -104 81 -101 100 5 31 23 29 63 -6 l38
-33 43 50 c41 46 42 49 24 62 -25 18 -99 25 -128 13z"/>
<path d="M8663 5032 c-24 -4 -63 -46 -63 -68 0 -8 -6 -14 -14 -14 -24 0 -66
-41 -66 -65 0 -12 -7 -28 -16 -36 -23 -19 -44 -64 -44 -96 0 -38 33 -89 68
-107 19 -10 31 -26 35 -44 3 -15 14 -38 24 -50 19 -24 89 -53 109 -45 9 3 14
37 16 105 l3 101 -32 14 c-42 17 -43 17 -43 -12 0 -30 -4 -31 -69 -4 -50 21
-51 22 -51 65 0 24 2 44 5 44 3 0 23 -11 45 -25 l40 -25 0 30 c0 16 3 30 7 30
4 0 27 -19 50 -42 l43 -42 0 141 c0 149 -1 153 -47 145z"/>
<path d="M13620 4920 l0 -91 143 3 142 3 3 88 3 87 -146 0 -145 0 0 -90z"/>
<path d="M14020 4796 c-315 -88 -466 -434 -319 -728 26 -52 131 -162 185 -193
112 -65 241 -87 364 -61 109 23 175 59 258 142 82 82 115 143 139 260 52 254
-112 511 -368 579 -65 18 -197 18 -259 1z m285 -150 c142 -65 237 -224 222
-370 -14 -139 -110 -269 -232 -316 -70 -27 -176 -32 -245 -12 -104 30 -211
133 -247 237 -27 77 -23 187 10 257 22 49 24 62 15 92 -23 73 29 133 104 122
63 -9 69 -9 123 8 71 22 179 15 250 -18z"/>
<path d="M14117 4531 l-29 -6 52 -60 c71 -82 80 -91 80 -79 0 5 -13 24 -29 42
-20 21 -25 32 -15 32 8 0 19 -12 24 -26 6 -16 14 -23 22 -18 7 4 10 4 6 -1 -4
-4 -3 -17 3 -28 9 -15 8 -18 -2 -12 -9 6 -10 3 -4 -11 25 -59 11 -106 -43
-137 -23 -14 -42 -17 -67 -13 -33 7 -45 18 -252 256 -22 25 -22 25 -20 3 1
-13 7 -23 13 -23 12 0 29 -28 25 -43 -1 -5 3 -6 9 -2 20 13 9 -13 -24 -55 -48
-61 -44 -106 19 -200 26 -38 56 -75 67 -81 11 -6 45 -12 76 -14 32 -2 62 -4
67 -4 6 -1 3 -6 -5 -11 -11 -8 -9 -9 10 -5 14 2 49 7 79 9 39 3 60 11 75 27
17 18 18 21 4 16 -10 -3 -20 -2 -22 2 -10 15 6 20 27 10 16 -9 25 -5 54 28 93
105 99 244 12 333 -57 59 -137 86 -212 71z"/>
<path d="M11579 4770 c-78 -23 -119 -85 -119 -180 l0 -60 36 0 35 0 -6 44 c-8
53 14 108 51 125 30 14 94 14 128 1 16 -6 27 -6 31 0 4 6 13 10 21 10 13 0 24
-19 65 -119 10 -23 11 -23 46 28 44 63 94 91 160 91 76 -1 113 -41 113 -124 0
-44 1 -46 30 -46 30 0 30 1 30 55 0 113 -65 180 -175 180 -66 -1 -143 -32
-175 -72 l-18 -23 -36 35 c-55 51 -150 76 -217 55z"/>
<path d="M2290 4735 c-24 -25 -16 -36 10 -12 8 6 6 2 -4 -10 -18 -21 -18 -22
3 -20 12 1 21 5 21 10 0 5 7 1 16 -7 8 -9 21 -16 27 -16 8 0 8 3 -1 8 -7 5
127 9 298 10 212 0 308 -3 304 -10 -4 -5 6 -2 22 8 28 19 23 19 -315 24 -320
5 -344 6 -350 23 -6 16 -9 16 -31 -8z"/>
<path d="M12899 4713 c-8 -10 -21 -27 -29 -38 -14 -20 -14 -20 6 -2 20 16 22
17 28 1 5 -14 9 -14 23 -3 14 12 16 12 8 0 -6 -10 -4 -13 6 -9 12 4 14 -27 14
-197 l0 -203 35 5 c51 7 128 32 182 60 74 37 180 142 221 221 58 111 71 103
-150 103 -106 0 -195 -1 -197 -1 -3 0 2 -20 11 -46 8 -25 13 -47 11 -49 -2 -3
-21 17 -41 43 -21 26 -54 66 -75 90 -36 40 -39 42 -53 25z"/>
<path d="M1490 4693 c-14 -2 -58 -20 -98 -40 -128 -61 -220 -174 -257 -318
-60 -236 74 -482 311 -566 117 -42 301 -24 397 40 28 18 29 18 133 -12 63 -18
108 -27 114 -21 5 5 -11 44 -39 95 l-48 86 25 49 c78 153 68 334 -26 480 -50
77 -109 128 -202 173 -70 33 -82 36 -180 38 -58 1 -116 -1 -130 -4z m273 -141
c77 -38 137 -101 176 -182 22 -47 26 -69 26 -150 0 -88 -3 -101 -32 -161 -141
-286 -558 -275 -674 17 -18 47 -23 79 -24 154 0 85 3 101 28 148 77 146 191
214 348 209 74 -3 96 -8 152 -35z"/>
<path d="M2299 4553 c-24 -28 -34 -47 -20 -39 6 4 17 3 24 -2 7 -5 26 -9 44
-7 18 1 31 -1 29 -4 -2 -3 127 -4 287 -3 161 2 300 4 309 4 9 -1 22 6 29 14
10 12 -35 14 -330 14 -336 0 -342 0 -349 21 -8 19 -8 19 -23 2z"/>
<path d="M12006 4470 c-16 -3 -31 -12 -34 -20 -4 -12 -2 -13 9 -2 13 12 109
18 109 6 0 -3 -14 -24 -31 -45 -32 -41 -112 -100 -184 -137 l-40 -20 -60 30
c-79 39 -156 98 -178 137 l-19 32 36 -3 c19 -1 38 1 42 5 4 4 -8 7 -27 7 -19
0 -58 3 -86 6 -67 8 -69 -4 -13 -75 53 -66 137 -132 227 -177 l72 -35 75 37
c99 49 177 111 231 185 25 34 45 65 45 70 0 5 -18 9 -40 9 -22 0 -40 -4 -40
-9 0 -5 -15 -6 -32 -2 -18 4 -46 5 -62 1z"/>
<path d="M15072 4327 c-61 -62 -82 -89 -82 -109 0 -34 44 -71 74 -62 12 3 57
43 102 87 l81 82 -47 42 -46 42 -82 -82z"/>
<path d="M2297 4362 c-16 -17 -16 -20 -2 -32 18 -15 14 -15 383 -18 186 -1
281 -5 277 -12 -12 -20 12 -9 35 15 l23 25 -342 0 c-336 0 -342 0 -349 21 -8
20 -8 20 -25 1z"/>
<path d="M8340 4351 c-93 -29 -190 -135 -190 -210 0 -16 -12 -21 -87 -31 -49
-6 -127 -17 -174 -24 l-86 -12 -19 34 c-40 75 -142 132 -234 132 -93 0 -195
-67 -236 -154 -45 -97 -25 -221 46 -295 56 -57 94 -74 182 -79 64 -4 84 -1
122 18 26 12 51 18 58 14 7 -5 67 -53 133 -108 91 -75 119 -104 117 -120 -17
-141 -16 -154 17 -220 48 -99 126 -146 240 -146 97 0 195 62 237 149 26 53 30
152 9 208 -22 57 -75 117 -129 146 -59 31 -185 31 -239 0 l-38 -23 -135 113
c-143 119 -140 114 -115 179 8 22 21 25 177 47 124 17 169 20 172 12 2 -7 18
-31 36 -54 96 -126 298 -131 408 -9 125 138 61 375 -116 427 -53 16 -115 18
-156 6z m155 -114 c85 -47 109 -165 50 -243 -89 -117 -276 -66 -292 79 -7 59
1 88 34 128 52 61 137 76 208 36z m-865 -117 c55 -28 83 -72 88 -139 3 -46 0
-62 -20 -91 -37 -55 -83 -80 -143 -80 -170 0 -227 230 -77 310 48 25 103 25
152 0z m688 -567 c48 -36 72 -81 72 -138 0 -90 -61 -155 -152 -162 -180 -14
-247 229 -86 311 44 22 129 17 166 -11z"/>
<path d="M13167 4223 c-13 -21 -36 -58 -52 -83 -15 -25 -29 -47 -31 -49 -2 -2
-17 8 -34 23 -46 38 -93 35 -136 -8 -45 -45 -47 -92 -5 -138 25 -28 36 -33 74
-33 58 0 70 11 158 152 39 63 76 112 83 110 6 -2 53 -19 104 -37 50 -18 92
-36 92 -41 0 -5 -25 -47 -55 -93 l-55 -85 -24 24 c-52 52 -154 22 -172 -49
-16 -64 32 -126 98 -126 22 0 47 4 57 10 25 13 224 327 218 344 -4 10 -81 41
-284 113 -6 3 -23 -13 -36 -34z"/>
<path d="M12056 4144 c-14 -14 -16 -75 -16 -528 0 -385 3 -515 12 -524 9 -9
110 -12 394 -12 339 0 383 2 388 16 3 9 6 246 6 528 0 385 -3 515 -12 524 -9
9 -108 12 -384 12 -325 0 -375 -2 -388 -16z m341 -94 c14 -11 33 -20 43 -20
10 0 29 9 43 20 22 18 40 20 166 20 l141 0 0 -105 0 -105 -347 2 -348 3 -3
103 -3 102 142 0 c126 0 144 -2 166 -20z m46 -460 c17 0 38 6 46 14 12 11 53
15 159 18 l142 3 0 -102 0 -103 -344 0 c-193 0 -347 4 -350 9 -3 5 -3 50 1
100 l6 90 131 3 c112 3 134 0 155 -14 13 -10 37 -18 54 -18z m-46 -200 c14
-11 36 -20 48 -20 12 0 34 9 48 20 22 18 40 20 161 20 l136 0 0 -105 0 -105
-350 0 -350 0 0 98 c0 54 3 102 7 105 3 4 67 7 141 7 119 0 137 -2 159 -20z"/>
<path d="M2695 4075 c-25 -24 -25 -26 -25 -210 0 -184 0 -186 25 -210 27 -28
71 -33 101 -11 17 13 19 31 24 202 5 194 0 234 -35 248 -33 12 -66 6 -90 -19z"/>
<path d="M6618 4081 c-122 -40 -216 -122 -268 -234 -126 -269 35 -577 330
-629 187 -32 387 77 473 259 30 64 32 75 32 178 0 90 -4 120 -23 165 -45 112
-143 209 -252 251 -79 31 -216 35 -292 10z m246 -131 c257 -97 276 -460 29
-582 -131 -64 -275 -38 -373 68 -62 68 -85 124 -85 215 0 67 4 84 35 145 74
146 241 211 394 154z"/>
<path d="M6771 3785 c2 -49 6 -60 35 -89 27 -27 41 -33 85 -35 l52 -2 -6 35
c-10 63 -70 122 -140 140 l-28 7 2 -56z"/>
<path d="M6655 3811 c-16 -10 -48 -37 -70 -60 l-40 -42 1 -93 c1 -95 18 -146
50 -146 8 0 14 -4 14 -9 0 -13 82 -31 145 -31 53 0 59 3 107 48 42 39 78 93
78 117 0 3 -24 5 -52 5 -43 0 -57 -5 -76 -24 -46 -49 -124 -38 -151 22 -16 34
-3 89 25 111 20 16 24 28 24 70 0 57 -8 62 -55 32z"/>
<path d="M15142 4088 c-9 -9 -12 -110 -12 -395 0 -368 1 -383 19 -393 13 -6
154 -10 390 -10 323 0 372 2 385 16 14 13 16 63 16 393 0 280 -3 380 -12 389
-17 17 -769 17 -786 0z m717 -185 l0 -118 -71 -55 c-39 -30 -102 -81 -140
-113 l-68 -57 -32 22 c-18 13 -43 32 -56 43 -25 22 -77 32 -66 13 4 -7 2 -8
-5 -4 -17 11 -2 29 18 21 11 -4 10 0 -6 16 l-22 22 -39 -26 c-21 -15 -48 -36
-60 -47 -12 -11 -24 -20 -27 -20 -4 0 -22 -12 -41 -26 l-34 -26 0 236 0 236
325 0 325 0 -1 -117z"/>
<path d="M11052 4078 c-7 -7 -12 -37 -12 -68 0 -55 1 -57 35 -73 20 -9 38 -17
40 -17 2 0 5 21 7 48 l3 47 330 0 330 0 3 -57 3 -58 40 20 40 21 -3 72 -3 72
-400 3 c-303 2 -404 -1 -413 -10z"/>
<path d="M2970 3790 l0 -260 195 0 195 0 0 260 0 260 -195 0 -195 0 0 -260z
m195 212 c6 0 47 2 93 5 l82 5 0 -51 0 -51 -172 2 -171 3 -2 48 -1 48 81 -5
c44 -2 85 -4 90 -4z m-13 -223 c14 -8 23 -8 31 0 6 6 44 11 84 11 l73 0 0 -45
c0 -29 -4 -45 -12 -46 -10 0 -10 -2 0 -6 7 -3 12 -25 12 -58 l0 -53 -169 -2
c-93 0 -171 3 -174 7 -2 4 -2 52 1 106 l4 97 65 0 c35 0 74 -5 85 -11z"/>
<path d="M2503 3998 c-37 -18 -45 -56 -41 -198 3 -124 4 -133 27 -151 30 -24
72 -24 102 0 23 19 24 24 24 166 l0 147 -28 24 c-30 26 -50 29 -84 12z"/>
<path d="M2279 3901 c-28 -28 -29 -34 -29 -116 0 -99 16 -141 57 -151 36 -9
75 6 90 36 16 31 17 180 2 213 -11 25 -47 47 -75 47 -9 0 -29 -13 -45 -29z"/>
<path d="M11042 3712 l3 -197 410 0 410 0 3 188 c1 104 -1 187 -6 185 -4 -1
-92 -45 -194 -97 l-186 -94 -54 22 c-29 13 -128 61 -221 106 l-167 84 2 -197z
m123 112 c19 -16 19 -16 -5 -10 -14 3 -19 3 -11 0 11 -5 11 -8 0 -16 -10 -6
-7 -7 9 -3 13 4 22 2 22 -4 0 -6 8 -11 17 -11 9 0 24 -7 33 -15 9 -8 26 -16
38 -18 12 -2 25 -6 28 -10 11 -10 36 -8 30 2 -4 5 4 7 15 4 20 -6 20 -7 -7
-20 -23 -10 -24 -12 -6 -9 12 2 25 -2 30 -9 7 -12 56 -25 95 -26 17 0 80 27
172 75 129 66 150 74 158 60 4 -7 6 -60 5 -116 l-3 -103 -327 -3 -328 -2 0
125 c0 69 3 125 8 125 4 0 16 -8 27 -16z"/>
<path d="M14828 3854 c-54 -29 -58 -50 -58 -321 0 -228 2 -251 20 -280 42 -70
154 -63 185 11 22 52 22 504 0 546 -28 54 -94 74 -147 44z m117 -46 c32 -38
29 -81 -11 -115 -29 -27 -54 -29 -93 -8 -75 38 -43 155 43 155 26 0 40 -7 61
-32z"/>
<path d="M14544 3731 c-12 -5 -31 -22 -43 -37 -20 -25 -21 -38 -21 -225 0
-197 0 -197 26 -228 32 -39 80 -49 127 -26 19 9 39 27 46 41 7 16 11 95 11
219 l0 195 -27 30 c-30 33 -82 46 -119 31z"/>
<path d="M3449 3701 c-44 -44 -40 -83 17 -159 25 -34 48 -62 50 -62 2 0 24 27
49 61 47 64 56 101 33 142 -18 34 -40 46 -81 47 -29 0 -45 -7 -68 -29z m116
-16 c30 -30 31 -54 4 -89 -40 -50 -119 -21 -119 44 0 64 70 91 115 45z"/>
<path d="M7712 3614 c-50 -35 -52 -50 -52 -395 l0 -321 -44 -39 c-60 -53 -86
-110 -86 -185 1 -138 100 -238 235 -237 102 0 180 49 221 138 46 97 27 192
-53 273 l-53 53 0 315 c0 338 -3 364 -51 398 -30 20 -88 21 -117 0z m79 -64
c18 -10 19 -25 19 -359 l0 -349 29 -12 c113 -47 137 -212 42 -293 -70 -59
-167 -56 -232 7 -86 83 -75 212 24 274 l44 27 6 215 c4 118 7 274 7 347 0 115
2 133 18 142 21 13 20 13 43 1z"/>
<path d="M14214 3589 c-29 -30 -29 -32 -32 -162 -3 -155 9 -192 71 -216 45
-17 81 -8 118 29 l29 28 0 137 c0 183 -17 215 -112 215 -36 0 -50 -6 -74 -31z
m117 1 c50 -27 57 -105 11 -140 -45 -36 -100 -22 -128 31 -36 70 46 147 117
109z"/>
<path d="M1680 3541 c-88 -27 -164 -91 -201 -169 -34 -74 -45 -210 -23 -292 3
-12 17 -14 68 -12 l65 4 -7 31 c-4 18 -7 66 -7 107 0 94 28 149 95 188 39 23
56 27 125 27 60 -1 92 -6 127 -22 47 -22 48 -22 58 -2 12 22 62 26 78 7 5 -7
26 -61 47 -120 55 -156 50 -154 119 -59 32 45 78 99 103 121 128 112 340 100
406 -23 18 -35 22 -58 22 -140 l0 -98 60 3 60 3 6 50 c9 67 -6 175 -32 229
-51 108 -151 168 -291 174 -139 6 -234 -28 -336 -122 l-59 -55 -44 45 c-88 90
-198 135 -332 133 -45 0 -93 -4 -107 -8z"/>
<path d="M7287 3524 c-4 -4 -7 -20 -7 -36 0 -25 -3 -28 -33 -28 -18 0 -38 -5
-45 -12 -18 -18 -16 -222 2 -237 15 -13 334 -15 354 -2 9 5 12 41 10 127 l-3
119 -37 3 c-37 3 -53 21 -46 53 2 11 -19 15 -92 17 -53 1 -99 0 -103 -4z m173
-44 c0 -17 -7 -20 -46 -20 -35 0 -45 -3 -41 -14 3 -7 -1 -23 -9 -35 -14 -20
-14 -21 15 -21 21 0 31 5 31 15 0 13 11 15 58 13 l57 -3 0 -85 0 -85 -140 0
-140 0 -3 88 -3 87 61 0 c53 0 60 2 60 20 0 15 -7 20 -25 20 -18 0 -25 5 -25
20 0 18 7 20 75 20 68 0 75 -2 75 -20z"/>
<path d="M11645 3445 c-63 -22 -121 -90 -135 -158 -17 -84 -1 -124 110 -276
52 -72 98 -130 101 -131 12 0 193 255 205 290 20 53 16 110 -10 165 -27 59
-46 77 -106 104 -52 24 -109 26 -165 6z m153 -64 c108 -55 107 -223 -2 -275
-107 -51 -225 24 -226 144 0 114 123 185 228 131z"/>
<path d="M3072 3428 c-7 -7 -12 -35 -12 -64 0 -49 2 -53 36 -73 19 -12 38 -21
42 -21 4 0 7 21 7 47 l0 48 328 3 327 2 0 -55 c0 -30 4 -55 10 -55 5 0 25 8
45 17 l36 17 -3 71 -3 70 -400 3 c-303 2 -404 -1 -413 -10z"/>
<path d="M16103 3300 c-76 -18 -116 -75 -111 -158 3 -44 5 -47 32 -50 28 -4
29 -3 23 34 -7 44 12 98 41 113 26 14 87 14 112 1 13 -7 21 -7 25 0 15 24 34
6 55 -50 12 -33 24 -60 26 -60 2 0 17 20 33 44 52 75 143 99 197 52 23 -19 28
-33 30 -72 2 -44 4 -49 25 -49 21 0 24 5 27 45 3 57 -22 108 -66 133 -60 35
-165 20 -219 -32 l-22 -21 -51 35 c-29 19 -62 35 -75 35 -13 0 -29 2 -37 4 -7
2 -28 0 -45 -4z"/>
<path d="M5727 3242 l-37 -38 0 -98 c0 -103 -9 -136 -38 -136 -31 0 -42 22
-42 87 l0 63 -40 -28 c-33 -23 -39 -33 -40 -62 0 -40 -15 -60 -42 -60 -19 0
-38 28 -38 58 0 20 -2 19 -67 -4 -38 -12 -76 -33 -85 -45 -27 -32 -23 -94 7
-124 l24 -25 447 0 c495 0 487 -1 519 66 16 34 22 208 7 231 -11 17 -33 18
-89 3 l-53 -14 0 -61 c0 -63 -11 -85 -42 -85 -25 0 -36 27 -35 90 0 53 -1 56
-34 72 -19 9 -37 17 -41 18 -4 0 -9 -39 -10 -87 l-3 -88 -30 0 -30 0 -5 111
c-5 109 -5 110 -41 152 -20 23 -39 42 -42 42 -4 0 -7 -67 -7 -149 0 -95 -4
-152 -11 -156 -5 -4 -21 -4 -35 -1 l-25 7 3 149 c2 83 1 150 -2 150 -3 0 -23
-17 -43 -38z"/>
<path d="M10656 3248 c-9 -12 -16 -42 -16 -65 0 -71 -20 -83 -140 -83 -151 0
-140 28 -140 -359 l0 -320 27 -21 c26 -20 31 -20 550 -18 506 3 525 4 539 22
11 16 14 79 14 338 0 386 11 358 -140 358 -122 0 -140 11 -140 88 0 83 2 82
-288 82 -248 0 -251 0 -266 -22z m361 -133 c114 -34 208 -134 239 -255 31
-122 -9 -245 -109 -337 -230 -209 -597 -25 -575 289 16 216 236 365 445 303z"/>
<path d="M10837 3008 c-44 -12 -163 -117 -179 -158 -6 -14 -12 -50 -14 -80 -2
-30 -6 -77 -8 -103 -3 -41 1 -54 23 -80 14 -17 19 -27 11 -22 -9 5 -8 1 4 -13
10 -12 22 -19 27 -17 4 3 11 0 14 -5 18 -30 107 -45 145 -25 16 8 51 15 79 15
47 0 53 3 110 58 70 67 100 127 101 196 0 68 -18 120 -57 166 -31 36 -64 56
-47 28 4 -7 3 -8 -5 -4 -6 4 -9 11 -6 15 16 27 -131 48 -198 29z m184 -104
c47 -44 62 -80 57 -134 -8 -85 -71 -140 -158 -140 -159 0 -213 205 -76 291 48
31 136 22 177 -17z"/>
<path d="M3060 3073 c0 -134 4 -193 12 -201 13 -13 522 -15 713 -3 l100 6 3
183 c1 100 0 182 -2 182 -3 0 -87 -41 -188 -91 -100 -50 -192 -91 -204 -91
-12 0 -111 44 -220 98 -110 54 -202 100 -206 102 -5 2 -8 -81 -8 -185z m103
85 c-2 -5 8 -3 24 3 22 8 26 8 16 -2 -10 -10 -5 -16 25 -31 20 -9 43 -17 50
-18 7 0 10 -5 6 -11 -4 -8 1 -9 16 -4 12 4 20 3 17 -1 -3 -5 6 -10 19 -10 13
-1 21 2 18 7 -3 5 2 6 11 3 14 -6 14 -8 -2 -20 -17 -13 -17 -14 0 -8 9 3 17 1
17 -5 0 -5 18 -15 40 -21 22 -6 40 -14 40 -19 0 -4 70 27 156 70 86 44 161 76
167 72 5 -3 7 -1 3 5 -3 6 -2 13 3 16 14 9 16 -24 13 -142 l-3 -102 -322 2
-322 3 -2 130 c-1 75 2 122 6 110 5 -11 7 -23 4 -27z"/>
<path d="M4145 3216 c-60 -17 -109 -66 -125 -128 -19 -67 -9 -226 16 -268 31
-54 93 -83 187 -88 214 -13 297 68 284 274 -6 108 -33 160 -100 193 -60 29
-188 38 -262 17z m195 -68 c98 -50 135 -153 92 -251 -23 -52 -83 -101 -137
-111 -53 -10 -134 16 -173 57 -149 153 29 401 218 305z"/>
<path d="M4210 3084 c-8 -4 -34 -24 -57 -47 -35 -34 -40 -43 -33 -63 6 -14 5
-26 0 -29 -6 -4 -4 -20 5 -41 9 -22 10 -34 3 -34 -6 0 -6 -6 3 -16 12 -15 31
-14 75 3 12 4 15 3 10 -5 -10 -17 64 -15 87 3 103 78 82 221 -33 231 -25 2
-52 1 -60 -2z"/>
<path d="M1981 3153 c-22 -46 -22 -47 -1 -25 21 23 36 30 25 12 -3 -5 -1 -10
4 -10 6 0 11 -7 11 -16 0 -8 -4 -12 -10 -9 -5 3 -10 1 -10 -4 0 -6 4 -11 10
-11 5 0 7 -7 3 -15 -3 -10 -1 -15 7 -13 9 2 14 -10 14 -38 1 -26 5 -40 12 -37
7 2 14 -13 18 -40 4 -25 15 -52 26 -62 10 -9 16 -23 14 -30 -7 -18 15 -95 26
-95 6 0 10 5 10 10 0 6 -4 10 -9 10 -5 0 -11 11 -13 25 -3 14 -2 25 1 25 11 0
29 -59 24 -78 -2 -10 5 -41 16 -69 11 -28 17 -54 14 -57 -10 -9 10 -7 27 4 9
6 17 5 22 -3 5 -9 12 -7 25 6 16 16 16 17 -5 17 -12 0 -28 10 -36 23 -7 12
-50 123 -95 247 -45 124 -87 238 -94 253 l-12 28 -24 -48z"/>
<path d="M4695 3160 c-19 -21 -23 -58 -40 -337 l-7 -113 257 0 257 0 -6 63
c-6 59 -26 329 -26 355 0 6 -9 21 -20 32 -19 19 -33 20 -208 20 -176 0 -190
-1 -207 -20z"/>
<path d="M14570 3084 c-74 -47 -144 -94 -154 -104 -18 -18 -16 -23 114 -227
73 -114 141 -217 151 -227 20 -22 12 -23 100 22 4 1 9 -30 13 -70 8 -85 14
-108 27 -108 15 0 269 169 269 180 0 5 -34 29 -75 52 -41 24 -74 45 -75 48 0
3 16 15 35 28 19 12 35 30 35 40 0 23 -274 446 -291 450 -8 1 -75 -36 -149
-84z m148 -41 c31 -19 53 -74 46 -112 -9 -41 -66 -91 -105 -91 -45 0 -89 27
-105 65 -22 53 -17 75 7 28 17 -35 27 -44 56 -49 70 -13 122 31 107 91 -15 60
-109 79 -150 31 -14 -15 -24 -21 -24 -13 0 7 12 25 28 39 41 40 90 43 140 11z
m152 -232 c33 -33 45 -69 36 -107 -4 -15 -20 -39 -36 -55 -23 -24 -37 -29 -75
-29 -38 0 -52 5 -76 29 -19 19 -29 39 -29 58 l1 28 14 -32 c25 -59 128 -64
154 -7 6 14 11 33 11 42 -1 37 -48 72 -96 72 -30 0 -74 -35 -74 -58 0 -9 -3
-13 -6 -9 -10 10 8 49 34 74 38 35 104 32 142 -6z m94 -215 c30 -19 57 -39 60
-44 8 -14 -173 -127 -184 -116 -5 5 -12 38 -15 74 l-7 65 44 27 c24 15 44 28
46 28 2 0 27 -15 56 -34z"/>
<path d="M15027 3164 c-16 -16 -7 -73 13 -84 18 -10 20 -8 20 20 l0 30 185 0
185 0 0 -35 0 -35 26 16 c20 14 24 24 22 53 l-3 36 -221 3 c-121 1 -223 -1
-227 -4z"/>
<path d="M6414 3127 c-2 -7 -3 -87 -2 -177 l3 -165 178 -3 177 -2 0 180 0 180
-175 0 c-134 0 -177 -3 -181 -13z m326 -77 c0 -33 -4 -60 -9 -60 -5 0 -34 -21
-65 -46 l-57 -46 -35 31 -35 31 -37 -30 c-20 -16 -40 -30 -44 -30 -5 0 -8 47
-8 105 l0 105 145 0 145 0 0 -60z"/>
<path d="M6897 3113 c-4 -3 -7 -78 -7 -165 l0 -158 235 0 c181 0 235 3 236 13
1 6 2 24 2 40 1 15 5 27 9 27 5 0 36 -14 69 -30 33 -17 64 -28 69 -25 6 4 10
64 10 136 0 102 -3 131 -14 135 -8 3 -41 -8 -75 -25 -33 -17 -63 -31 -65 -31
-3 0 -4 12 -2 28 6 62 8 62 -238 62 -122 0 -226 -3 -229 -7z m182 -80 c31 -29
34 -38 32 -86 -1 -38 -45 -77 -87 -77 -41 0 -89 39 -97 80 -18 88 86 144 152
83z m232 -2 c21 -22 29 -39 29 -66 0 -74 -91 -122 -146 -77 -52 41 -58 100
-15 143 22 21 39 29 66 29 27 0 44 -8 66 -29z m177 -79 c3 -105 2 -106 -73
-70 -44 22 -45 23 -45 70 0 47 1 48 48 72 26 14 52 24 57 22 6 -1 11 -44 13
-94z"/>
<path d="M6971 3004 c-34 -28 -39 -58 -16 -91 23 -32 61 -35 96 -6 36 30 39
73 7 103 -29 27 -50 25 -87 -6z"/>
<path d="M7215 3020 c-12 -4 -27 -16 -35 -26 -9 -11 -10 -15 -2 -10 6 4 12 2
12 -3 0 -6 -4 -11 -10 -11 -12 0 -13 -40 -2 -57 13 -21 61 -34 83 -23 19 11
49 59 49 80 0 16 -47 60 -62 59 -7 0 -22 -4 -33 -9z"/>
<path d="M15020 2955 l0 -105 228 2 227 3 3 98 c1 53 -1 97 -6 97 -5 0 -52
-22 -105 -50 -53 -27 -101 -50 -107 -50 -6 0 -61 25 -123 55 -61 30 -113 55
-114 55 -2 0 -3 -47 -3 -105z m74 45 c-6 12 -3 11 12 -2 22 -19 120 -58 147
-58 10 0 43 13 75 29 103 52 102 52 102 -18 l0 -61 -179 0 c-99 0 -182 4 -185
8 -3 5 -2 34 1 65 5 51 7 55 20 39 9 -10 11 -11 7 -2z"/>
<path d="M16430 3034 c0 -10 4 -12 13 -7 6 4 29 8 49 9 32 1 36 -1 28 -16 -16
-29 -104 -103 -158 -133 l-51 -28 -61 31 c-67 34 -146 100 -155 131 -5 14 -16
19 -46 19 l-40 0 18 -31 c30 -51 136 -142 209 -178 l68 -34 72 37 c40 21 94
56 120 79 46 41 104 112 104 129 0 4 -38 8 -85 8 -70 0 -85 -3 -85 -16z"/>
<path d="M11995 2978 c-3 -8 -4 -124 -3 -258 l3 -245 210 0 210 0 0 255 0 255
-208 3 c-162 2 -209 0 -212 -10z m393 -79 l-3 -51 -177 -1 -178 -2 0 53 0 52
181 0 180 0 -3 -51z"/>
<path d="M2435 2940 l-17 -35 25 25 c23 24 30 25 117 22 81 -3 91 -5 86 -20
-4 -9 3 -6 14 8 30 39 24 4 -9 -43 -73 -107 -254 -250 -409 -323 l-74 -35 -84
40 c-108 52 -224 129 -293 195 -54 52 -131 142 -131 154 0 4 24 5 52 2 l53 -4
-40 -7 c-40 -7 -34 -6 75 3 8 0 23 7 34 14 15 10 -12 13 -158 13 -97 0 -176
-3 -176 -8 0 -5 23 -45 52 -88 102 -154 275 -295 492 -399 l114 -55 65 26
c161 65 341 187 460 314 71 76 157 201 157 229 0 8 -52 11 -194 9 l-194 -2
-17 -35z"/>
<path d="M3735 2788 c-2 -7 -5 -22 -7 -32 -2 -11 -16 -24 -33 -29 -127 -42
-198 -181 -161 -311 55 -189 297 -243 430 -96 44 49 71 134 62 198 -3 25 -19
69 -36 98 -23 41 -26 55 -17 63 8 6 18 6 27 1 45 -29 39 7 -10 55 -34 33 -40
36 -46 21 -4 -11 -1 -21 7 -27 12 -7 12 -11 -1 -23 -13 -14 -21 -13 -68 11
-45 22 -52 30 -52 54 0 28 -2 29 -45 29 -28 0 -47 -5 -50 -12z m137 -141 c49
-30 75 -65 87 -118 21 -94 -22 -176 -111 -214 -92 -38 -195 5 -239 100 -24 51
-24 99 0 150 32 71 88 105 171 105 39 0 65 -6 92 -23z"/>
<path d="M3714 2581 c-17 -10 -41 -31 -53 -47 -19 -24 -21 -35 -15 -79 4 -27
8 -58 8 -67 0 -9 3 -16 6 -15 3 1 15 -4 27 -11 30 -16 115 -10 148 12 15 10
36 38 47 62 24 55 13 100 -33 139 -47 39 -53 33 -47 -42 6 -80 -2 -125 -21
-131 -10 -3 -13 2 -9 22 3 14 2 26 -2 26 -14 0 -20 31 -10 50 10 19 3 100 -9
100 -3 0 -20 -9 -37 -19z"/>
<path d="M15167 2763 c-4 -3 -7 -21 -7 -40 l0 -33 240 0 240 0 0 24 c0 58 7
56 -239 56 -125 0 -231 -3 -234 -7z"/>
<path d="M15725 2758 c-3 -8 -4 -139 -3 -293 l3 -280 215 -2 c118 -2 225 -1
238 2 l22 5 -2 288 -3 287 -233 3 c-182 2 -234 0 -237 -10z m435 -88 l0 -60
-200 0 -200 0 0 60 0 60 200 0 200 0 0 -60z"/>
<path d="M16403 2730 c-58 -14 -97 -44 -122 -94 -21 -41 -25 -64 -25 -145 0
-54 5 -112 12 -133 30 -84 123 -125 261 -115 170 11 221 70 221 251 0 135 -39
203 -134 231 -52 16 -159 18 -213 5z m184 -71 c81 -39 126 -135 102 -222 -23
-86 -132 -158 -212 -142 -51 11 -113 52 -137 90 -32 52 -37 131 -12 181 53
102 160 141 259 93z"/>
<path d="M16422 2570 c-46 -34 -51 -45 -52 -110 -2 -95 11 -118 58 -102 17 6
35 6 43 1 51 -32 149 50 149 125 0 29 -19 76 -32 76 -11 0 -10 -17 2 -25 6 -3
9 -16 9 -28 -1 -20 -2 -21 -6 -2 -3 11 -9 25 -14 31 -5 6 -7 19 -3 28 4 11 -2
19 -21 26 -47 18 -89 12 -133 -20z"/>
<path d="M6674 2701 c-97 -44 -131 -181 -65 -262 l19 -24 121 120 c67 66 120
126 119 134 -5 22 -69 51 -113 51 -22 0 -58 -9 -81 -19z"/>
<path d="M7265 2705 c-67 -31 -69 -25 65 -160 69 -69 128 -125 133 -125 14 0
47 84 47 120 0 41 -29 108 -56 132 -51 45 -133 59 -189 33z"/>
<path d="M2885 2691 c-23 -5 -35 -17 -57 -61 -53 -109 -51 -115 48 -126 l54
-7 0 102 c0 55 -3 100 -7 100 -5 -1 -21 -4 -38 -8z"/>
<path d="M3010 2601 c0 -115 -6 -109 93 -90 31 7 57 17 57 23 0 6 -16 44 -35
84 -29 60 -38 72 -59 72 -13 0 -31 3 -40 6 -14 5 -16 -7 -16 -95z"/>
<path d="M5902 2679 c-13 -5 -21 -13 -17 -19 3 -5 0 -7 -7 -5 -7 3 -34 -16
-58 -41 -25 -26 -39 -44 -33 -40 9 5 11 2 7 -8 -3 -9 -11 -13 -16 -10 -6 4 -8
1 -6 -7 3 -8 11 -13 17 -11 14 3 14 -11 -1 -26 -18 -18 -14 -99 7 -122 10 -11
13 -20 7 -20 -27 0 -89 151 -75 186 4 10 -3 14 -23 14 -18 0 -24 -3 -17 -8 7
-4 14 -19 15 -32 3 -20 -3 -25 -42 -35 -62 -16 -78 -26 -134 -83 -51 -52 -50
-50 -60 -179 -2 -28 -7 -56 -10 -62 -8 -13 43 -73 56 -64 7 3 8 1 4 -5 -4 -6
6 -18 23 -27 41 -20 48 -19 20 4 -24 19 -24 19 31 5 30 -8 63 -14 73 -14 11 0
15 -5 11 -11 -10 -16 23 3 70 40 40 32 51 38 42 22 -12 -19 6 -42 28 -36 21 6
21 6 1 -10 -11 -9 -32 -19 -47 -22 -69 -14 -15 -23 135 -22 122 0 156 3 137
11 -129 53 -180 120 -187 243 -4 61 -1 77 21 120 14 28 22 51 16 53 -5 2 -14
19 -20 38 -23 69 27 144 97 144 42 0 88 -25 102 -57 11 -25 51 -32 51 -9 0 25
-45 81 -80 98 -38 19 -101 22 -138 7z m-196 -283 c1 -14 11 -38 22 -53 14 -20
18 -34 11 -44 -13 -21 -11 -46 7 -64 15 -15 15 -17 -2 -30 -11 -8 -40 -15 -66
-15 -38 0 -52 5 -76 29 -37 38 -46 81 -26 129 19 48 50 72 94 72 30 0 35 -3
36 -24z"/>
<path d="M4592 2643 c-18 -9 -43 -30 -55 -47 -22 -30 -22 -37 -22 -328 0 -284
1 -298 21 -324 11 -15 33 -37 48 -48 26 -20 40 -21 321 -21 281 0 295 1 321
21 15 11 37 33 48 48 20 26 21 40 21 319 0 334 -2 343 -78 378 -38 17 -68 19
-317 19 -233 0 -280 -3 -308 -17z m433 -102 c24 -11 64 -38 88 -60 156 -144
100 -416 -101 -492 -193 -72 -402 73 -402 280 0 217 218 359 415 272z"/>
<path d="M4860 2471 c-117 -36 -170 -119 -157 -247 9 -90 89 -164 176 -164
138 0 232 83 230 206 -1 100 -53 173 -142 199 -55 16 -69 17 -107 6z"/>
<path d="M11636 2651 c-7 -11 -13 -64 -21 -178 l-5 -83 150 0 151 0 -5 33 c-3
17 -8 70 -11 117 -9 130 2 120 -135 120 -65 0 -121 -4 -124 -9z"/>
<path d="M6915 2622 c-108 -40 -188 -112 -232 -209 -108 -235 36 -511 288
-553 271 -46 497 178 458 452 -18 119 -105 236 -218 290 -56 27 -79 32 -156
35 -69 3 -102 -1 -140 -15z m149 -110 c4 -11 23 -23 49 -29 51 -14 121 -72
146 -122 64 -124 12 -274 -114 -336 -89 -43 -218 -15 -286 62 -44 51 -59 92
-59 163 0 69 14 110 55 158 29 35 112 82 144 82 10 0 21 9 24 20 6 25 34 26
41 2z"/>
<path d="M6975 2382 c-52 -33 -95 -84 -97 -116 -4 -74 15 -171 32 -161 5 3 10
1 12 -5 3 -10 39 -17 119 -24 36 -4 51 0 74 18 24 19 26 25 16 44 -7 12 -8 21
-2 20 5 -2 17 6 25 17 14 18 15 18 16 3 0 -10 -4 -18 -9 -18 -5 0 -11 -7 -14
-14 -12 -31 20 -4 37 31 l17 36 -96 -7 c-94 -6 -95 -6 -106 18 -8 18 -8 29 2
47 13 23 21 129 10 129 -4 0 -19 -8 -36 -18z"/>
<path d="M15160 2575 l0 -25 240 0 240 0 0 25 0 25 -240 0 -240 0 0 -25z"/>
<path d="M10080 2425 l0 -145 85 0 85 0 0 145 0 145 -85 0 -85 0 0 -145z"/>
<path d="M16932 2553 c-7 -3 -19 -18 -27 -33 -12 -24 -15 -81 -15 -309 l0
-280 -30 -21 c-36 -26 -75 -92 -84 -142 -21 -117 82 -238 204 -238 46 0 100
21 137 53 99 87 96 231 -6 319 l-41 35 0 287 0 287 -25 24 c-23 24 -77 33
-113 18z m76 -65 c9 -9 12 -91 12 -307 l0 -296 39 -22 c99 -57 94 -205 -10
-261 -74 -39 -145 -18 -196 58 -45 66 -20 166 50 205 l37 20 0 288 c0 180 4
296 10 308 12 21 40 25 58 7z"/>
<path d="M3287 2502 c-34 -23 -38 -30 -32 -57 3 -16 9 -65 12 -107 l6 -78 83
0 c81 0 84 1 84 23 0 41 -30 126 -66 187 -19 33 -38 60 -42 59 -4 -1 -24 -13
-45 -27z"/>
<path d="M2564 2475 c-29 -51 -64 -154 -64 -191 0 -24 2 -24 89 -24 l88 0 6
88 c3 48 8 95 12 104 5 13 -5 23 -44 42 -28 14 -53 26 -55 26 -3 0 -17 -20
-32 -45z"/>
<path d="M6040 2459 c-20 -8 -22 -12 -10 -20 12 -9 12 -10 -3 -5 -11 4 -31 -2
-47 -14 -23 -16 -28 -27 -25 -50 3 -23 0 -28 -12 -23 -12 5 -14 3 -8 -7 6 -9
4 -11 -5 -5 -10 6 -10 11 3 20 19 14 22 25 7 25 -16 0 -30 -36 -35 -90 -3 -29
-7 -55 -9 -59 -3 -4 0 -26 6 -49 15 -60 65 -102 121 -102 24 0 48 5 55 12 9 9
12 9 12 -1 0 -10 4 -11 13 -3 7 6 25 12 40 14 60 8 136 115 137 191 0 48 -25
111 -41 101 -8 -5 -9 -3 -5 5 16 25 -73 71 -133 70 -20 0 -47 -5 -61 -10z
m156 -85 c34 -35 34 -37 32 -117 -3 -77 -5 -83 -33 -108 -16 -15 -32 -25 -35
-23 -2 3 2 9 10 14 8 5 11 12 7 16 -4 4 -13 2 -19 -4 -7 -7 -16 -12 -21 -12
-5 0 2 9 16 20 27 22 42 26 32 10 -10 -16 11 -12 25 5 10 12 10 15 -1 15 -10
0 -10 3 -1 12 25 25 10 28 -19 4 -45 -38 -115 -37 -157 2 -42 40 -50 88 -22
141 24 47 46 59 109 60 38 1 48 -4 77 -35z"/>
<path d="M15160 2075 l0 -385 240 0 240 0 0 385 0 385 -240 0 -240 0 0 -385z"/>
<path d="M2767 2443 c-3 -5 -9 -48 -13 -96 l-7 -87 74 0 c100 1 109 9 109 97
l0 70 -63 6 c-34 3 -70 9 -79 12 -9 4 -18 2 -21 -2z"/>
<path d="M3115 2440 c-16 -4 -47 -8 -67 -9 l-38 -1 0 -73 c0 -43 5 -78 12 -85
7 -7 44 -12 96 -12 l84 0 -6 68 c-13 131 -12 129 -81 112z"/>
<path d="M11574 2348 c-38 -18 -44 -51 -44 -223 0 -159 1 -165 24 -192 l24
-28 169 -3 c250 -4 247 -7 241 257 l-3 153 -28 24 c-27 23 -33 24 -195 23 -93
0 -176 -5 -188 -11z m244 -53 c74 -31 112 -86 112 -160 0 -96 -61 -165 -153
-173 -189 -14 -262 239 -93 323 58 29 83 31 134 10z"/>
<path d="M11692 2230 c-37 -23 -52 -54 -52 -108 0 -44 20 -76 60 -97 37 -19
66 -19 74 0 3 8 11 15 18 15 9 0 8 -3 -2 -10 -12 -8 -11 -10 7 -10 24 0 70 49
79 87 4 14 1 42 -5 63 -21 72 -111 102 -179 60z"/>
<path d="M6377 2313 c-4 -3 -7 -14 -7 -24 0 -15 4 -16 31 -6 25 10 35 9 59 -5
21 -12 30 -13 33 -5 4 12 8 -22 9 -77 1 -64 -91 -91 -132 -38 -22 26 -23 26
-34 7 -21 -37 -97 -104 -127 -110 -65 -15 -36 -25 70 -25 61 0 111 2 111 5 0
3 -15 11 -32 18 -18 8 -39 22 -47 31 -12 14 -7 13 22 -4 l37 -22 40 20 39 19
-11 -20 c-8 -16 -1 -13 29 11 50 39 77 93 69 135 -9 44 -35 80 -52 73 -8 -3
-13 -2 -10 3 11 18 -81 31 -97 14z"/>
<path d="M17222 2245 c-34 -25 -62 -52 -62 -61 0 -24 173 -274 190 -274 23 0
150 90 150 106 0 8 -39 73 -87 144 -64 94 -94 129 -108 130 -12 0 -49 -20 -83
-45z"/>
<path d="M2880 2235 c-1 -11 -2 -26 -1 -32 1 -9 -17 -13 -65 -13 l-67 0 7 -77
c4 -42 9 -80 12 -84 2 -4 21 -3 41 2 21 5 57 9 79 9 l41 0 7 50 c4 28 11 48
16 45 6 -3 18 -1 27 5 17 11 17 11 -1 6 -29 -10 -84 37 -89 77 -2 18 -5 24 -7
12z"/>
<path d="M3952 2228 c-9 -9 -12 -109 -12 -389 0 -330 2 -380 16 -393 13 -14
47 -16 213 -16 179 0 199 2 214 18 15 17 17 58 17 389 0 346 -1 371 -18 386
-16 15 -46 17 -218 17 -142 0 -203 -3 -212 -12z m373 -178 l0 -105 -155 0
-155 0 -3 108 -3 108 158 -3 158 -3 0 -105z m3 -443 l-3 -92 -157 -3 -158 -3
0 29 c0 69 14 182 22 182 5 0 6 -5 2 -11 -5 -8 12 -10 60 -7 36 2 66 1 66 -2
0 -4 23 -4 50 0 56 7 65 4 48 -19 -6 -9 4 -1 22 16 45 43 52 30 48 -90z"/>
<path d="M16491 2150 c-177 -88 -182 -90 -254 -90 -39 0 -78 -4 -85 -8 -9 -7
-12 -55 -10 -208 l3 -199 90 -5 c89 -5 91 -6 262 -93 95 -48 179 -87 186 -87
8 0 21 8 30 18 15 17 17 57 17 375 l0 356 -22 15 c-12 9 -25 16 -29 16 -4 0
-88 -40 -188 -90z m147 -303 c2 -210 0 -257 -11 -257 -7 0 -83 32 -167 70
-122 56 -163 70 -202 70 l-48 0 0 120 0 120 48 0 c46 0 104 22 312 119 25 11
50 19 55 17 6 -1 11 -99 13 -259z"/>
<path d="M2500 2163 c0 -38 42 -154 69 -191 l21 -30 53 29 54 29 -8 47 c-4 27
-8 69 -8 96 l-1 47 -90 0 -90 0 0 -27z"/>
<path d="M3019 2173 c-10 -13 -13 -34 -8 -78 3 -33 6 -57 7 -54 2 6 73 -3 134
-16 29 -7 31 -3 43 108 l6 57 -84 0 c-68 0 -87 -3 -98 -17z"/>
<path d="M3266 2113 c-4 -43 -9 -88 -12 -99 -4 -17 4 -27 41 -48 34 -20 50
-25 59 -17 22 18 76 145 82 194 l7 47 -85 0 -85 0 -7 -77z"/>
<path d="M9813 2160 c-62 -38 -87 -108 -59 -173 8 -20 20 -37 26 -37 15 0 190
172 190 187 0 18 -54 43 -92 43 -18 0 -47 -9 -65 -20z"/>
<path d="M10273 2165 c-18 -8 -33 -18 -33 -22 0 -5 45 -53 99 -107 l99 -99 16
31 c64 123 -55 252 -181 197z"/>
<path d="M10025 2107 c-62 -21 -86 -36 -138 -85 -60 -59 -87 -127 -87 -221 0
-115 63 -215 173 -273 61 -33 203 -33 264 0 94 50 143 111 168 210 18 69 10
142 -22 210 -25 52 -95 119 -150 143 -60 26 -156 33 -208 16z m102 -91 c4 -7
24 -19 45 -25 77 -25 133 -112 126 -197 -18 -218 -321 -235 -378 -22 -13 47 1
109 37 156 24 32 89 72 117 72 7 0 16 7 20 15 7 19 22 19 33 1z"/>
<path d="M10015 1879 c-38 -36 -45 -47 -45 -80 0 -22 5 -39 11 -39 5 0 8 -4 4
-9 -9 -16 16 -59 39 -65 85 -20 112 -18 145 9 17 15 39 41 47 57 l16 30 -79
-3 -78 -4 -3 33 c-2 18 1 32 7 32 6 0 11 18 11 40 0 52 -17 52 -75 -1z"/>
<path d="M11015 2005 c-5 -2 -26 -6 -46 -9 -47 -8 -122 -73 -142 -125 -14 -34
-20 -39 -59 -45 -48 -7 -116 -47 -148 -88 -45 -58 -66 -158 -38 -186 8 -8 66
-12 193 -12 l182 0 25 64 c14 36 23 67 20 70 -3 4 -25 6 -49 6 -23 0 -43 4
-43 10 0 5 17 52 37 105 l37 95 78 0 c44 0 78 -4 78 -10 0 -5 -18 -39 -40 -75
-22 -36 -40 -70 -40 -75 0 -6 25 -10 55 -10 30 0 55 -3 55 -7 0 -4 -37 -45
-82 -90 l-83 -83 256 0 c275 0 279 1 279 52 0 67 -65 149 -129 163 -23 5 -31
12 -31 28 0 58 -67 117 -133 117 -25 0 -38 7 -55 29 -30 41 -138 87 -177 76z"/>
<path d="M3597 1984 c-4 -4 -7 -15 -7 -23 0 -22 -59 -45 -77 -30 -9 9 -20 7
-38 -5 -32 -21 -41 -42 -26 -59 16 -20 -8 -75 -34 -79 -17 -3 -20 -10 -20 -48
0 -38 3 -45 20 -48 27 -4 50 -59 33 -79 -17 -21 44 -82 65 -65 20 17 75 -6 79
-33 3 -17 10 -20 48 -20 39 0 45 3 48 22 4 27 58 49 79 31 21 -17 82 44 65 65
-17 20 9 82 35 82 15 0 18 8 18 45 0 38 -3 45 -20 48 -28 4 -48 57 -32 83 10
16 7 23 -16 46 -23 23 -30 26 -46 16 -26 -16 -79 4 -83 32 -2 16 -12 21 -43
23 -23 2 -44 0 -48 -4z m124 -107 c77 -52 101 -140 58 -217 -43 -76 -150 -104
-220 -57 -58 39 -81 84 -77 145 10 123 142 194 239 129z"/>
<path d="M15752 1968 c-17 -17 -17 -449 0 -466 18 -18 242 -16 257 2 8 9 11
82 9 242 l-3 229 -125 3 c-89 2 -129 -1 -138 -10z m226 -102 l3 -66 -96 0 -95
0 0 68 0 67 92 -2 93 -1 3 -66z m-158 -206 c7 11 10 12 10 2 0 -10 13 -13 50
-10 41 2 49 0 45 -12 -4 -8 4 -5 18 8 13 12 26 22 30 22 4 0 7 -29 7 -65 l0
-65 -95 0 -95 0 0 68 c0 47 3 63 10 52 9 -13 11 -13 20 0z"/>
<path d="M2845 1965 c-5 -2 -22 -6 -37 -9 l-27 -6 19 -56 c24 -68 60 -134 74
-134 6 0 21 -3 34 -6 22 -6 22 -6 22 105 l0 111 -37 -1 c-21 0 -42 -2 -48 -4z"/>
<path d="M3008 1859 l3 -110 32 6 c18 4 37 11 43 16 13 11 60 112 69 150 6 24
3 27 -39 38 -25 6 -60 11 -78 11 l-33 0 3 -111z"/>
<path d="M6580 1952 c0 -4 5 -13 12 -20 9 -9 9 -12 0 -12 -7 0 -12 5 -12 11 0
6 -12 9 -27 7 -24 -3 -28 -8 -31 -40 l-3 -38 136 0 136 0 -3 37 c-2 29 -8 39
-23 42 -11 2 -24 8 -28 15 -6 8 -10 8 -14 -1 -6 -16 -123 -18 -123 -3 0 6 -4
10 -10 10 -5 0 -10 -4 -10 -8z"/>
<path d="M5500 1921 c0 -24 -5 -31 -27 -36 -45 -10 -105 -57 -135 -105 -109
-177 10 -391 216 -390 55 0 126 27 165 63 52 49 74 98 79 177 4 69 1 80 -27
134 -24 45 -29 62 -20 72 9 11 15 12 26 3 9 -8 17 -9 23 -3 13 13 -64 89 -79
80 -7 -5 -7 -13 1 -26 9 -14 10 -22 1 -31 -8 -8 -24 -5 -62 12 -43 20 -51 28
-51 51 0 27 -2 28 -55 28 -54 0 -55 0 -55 -29z m138 -112 c104 -51 136 -198
60 -285 -42 -48 -83 -67 -143 -67 -60 0 -101 19 -143 67 -135 154 40 374 226
285z"/>
<path d="M5495 1741 c-62 -38 -79 -66 -76 -127 3 -69 16 -92 61 -103 72 -17
127 -3 110 28 -10 19 -4 31 14 31 7 0 7 -3 -1 -8 -8 -5 -9 -13 -3 -22 8 -12
12 -11 30 7 51 55 53 122 6 169 -19 19 -39 34 -44 34 -17 0 -25 -76 -10 -99
10 -16 10 -23 0 -33 -6 -6 -12 -22 -12 -35 0 -14 -6 -23 -16 -23 -10 0 -14 5
-10 16 3 8 -1 25 -9 37 -9 15 -11 27 -5 37 11 18 13 110 3 110 -5 0 -21 -8
-38 -19z"/>
<path d="M5988 1838 c-2 -46 -2 -89 0 -95 3 -10 44 -13 158 -13 l154 0 0 95 0
95 -154 0 -154 0 -4 -82z"/>
<path d="M17360 1855 c-6 -15 -10 -30 -10 -35 0 -5 -24 -10 -52 -12 l-53 -3 0
-150 0 -150 224 -3 c156 -2 228 1 237 9 19 16 20 271 1 287 -7 6 -33 12 -57
14 -41 3 -45 6 -50 33 l-5 30 -113 3 -112 3 -10 -26z m188 -55 c45 -28 72 -76
72 -130 0 -147 -193 -200 -271 -74 -27 44 -26 123 3 159 50 64 133 83 196 45z"/>
<path d="M17432 1763 c-6 -2 -10 -9 -7 -14 4 -5 0 -6 -7 -4 -25 10 -62 -42
-64 -90 -3 -36 2 -51 22 -75 34 -40 74 -40 116 0 17 17 33 28 36 26 2 -3 -9
-16 -24 -30 -16 -14 -24 -26 -18 -26 15 0 70 63 79 90 11 36 -4 88 -32 110
-24 19 -71 25 -101 13z m100 -54 c27 -36 15 -76 -28 -97 -32 -15 -36 -15 -62
5 -34 25 -42 76 -16 104 26 28 81 22 106 -12z"/>
<path d="M11616 1778 c4 -51 10 -111 13 -133 l7 -40 124 0 125 0 6 55 c4 30 9
90 12 133 l5 77 -149 0 -149 0 6 -92z"/>
<path d="M4650 1803 c1 -56 30 -411 35 -425 4 -9 13 -19 21 -22 20 -8 376 -9
396 -1 9 4 19 14 23 23 5 14 34 363 35 425 0 16 -19 17 -255 17 -236 0 -255
-1 -255 -17z"/>
<path d="M9520 1781 c0 -5 -12 -11 -27 -13 -24 -3 -28 -8 -31 -40 l-3 -38 140
0 141 0 0 35 c0 25 -5 37 -17 41 -10 3 -26 10 -35 15 -12 6 -18 6 -18 -1 0 -6
-28 -10 -65 -10 -37 0 -65 4 -65 10 0 6 -4 10 -10 10 -5 0 -10 -4 -10 -9z"/>
<path d="M6011 1645 c-16 -14 -33 -36 -37 -48 -4 -12 -15 -28 -24 -34 -20 -14
-35 -62 -23 -73 12 -11 146 14 151 28 2 6 -8 23 -22 37 -30 30 -32 40 -11 49
12 4 13 11 7 23 -5 10 -7 24 -5 31 7 18 -2 15 -36 -13z"/>
</g>
</svg>
