<?xml version="1.0" encoding="utf-8"?>
<!-- Generator: Adobe Illustrator 17.0.0, SVG Export Plug-In . SVG Version: 6.00 Build 0)  -->
<!DOCTYPE svg PUBLIC "-//W3C//DTD SVG 1.1//EN" "http://www.w3.org/Graphics/SVG/1.1/DTD/svg11.dtd">
<svg version="1.1" id="Isolation_Mode" xmlns="http://www.w3.org/2000/svg" xmlns:xlink="http://www.w3.org/1999/xlink" x="0px"
	 y="0px" width="2925px" height="2769px" viewBox="0 0 2925 2769" enable-background="new 0 0 2925 2769" xml:space="preserve">
<g>
	<g>
		
			<line fill="none" stroke="#BDE3F8" stroke-width="0.9984" stroke-linecap="round" stroke-miterlimit="10" x1="1057.749" y1="2306.59" x2="1057.749" y2="124.615"/>
		
			<line fill="none" stroke="#BDE3F8" stroke-width="0.9984" stroke-linecap="round" stroke-miterlimit="10" x1="512.987" y1="1738.385" x2="512.987" y2="571.027"/>
		
			<line fill="none" stroke="#BDE3F8" stroke-width="0.9984" stroke-linecap="round" stroke-miterlimit="10" x1="1180.12" y1="2015.019" x2="1180.12" y2="283.108"/>
		
			<line fill="none" stroke="#BDE3F8" stroke-width="0.9984" stroke-linecap="round" stroke-miterlimit="10" x1="1700.632" y1="2015.019" x2="1700.632" y2="301.663"/>
		
			<line fill="none" stroke="#BDE3F8" stroke-width="0.9984" stroke-linecap="round" stroke-miterlimit="10" x1="2206.91" y1="2347.188" x2="2206.91" y2="342.261"/>
		
			<circle fill="none" stroke="#BDE3F8" stroke-width="0.9984" stroke-linecap="round" stroke-miterlimit="10" cx="512.986" cy="552.472" r="18.554"/>
		
			<circle fill="none" stroke="#BDE3F8" stroke-width="0.9984" stroke-linecap="round" stroke-miterlimit="10" cx="1057.749" cy="106.061" r="18.554"/>
		
			<circle fill="none" stroke="#BDE3F8" stroke-width="0.9984" stroke-linecap="round" stroke-miterlimit="10" cx="1180.12" cy="264.554" r="18.554"/>
		
			<circle fill="none" stroke="#BDE3F8" stroke-width="0.9984" stroke-linecap="round" stroke-miterlimit="10" cx="2206.91" cy="320.217" r="18.554"/>
		<g>
			
				<line fill="none" stroke="#BDE3F8" stroke-width="0.9984" stroke-linecap="round" stroke-miterlimit="10" x1="2445.949" y1="1230.836" x2="2445.949" y2="476.159"/>
			
				<circle fill="none" stroke="#BDE3F8" stroke-width="0.9984" stroke-linecap="round" stroke-miterlimit="10" cx="2445.949" cy="454.753" r="18.554"/>
		</g>
		<g>
			
				<line fill="none" stroke="#BDE3F8" stroke-width="0.9984" stroke-linecap="round" stroke-miterlimit="10" x1="2736.075" y1="2014.303" x2="2736.075" y2="966.597"/>
			
				<circle fill="none" stroke="#BDE3F8" stroke-width="0.9984" stroke-linecap="round" stroke-miterlimit="10" cx="2736.075" cy="945.192" r="18.554"/>
		</g>
		<g>
			
				<line fill="none" stroke="#BDE3F8" stroke-width="0.9984" stroke-linecap="round" stroke-miterlimit="10" x1="244.679" y1="1964.558" x2="244.679" y2="916.852"/>
			
				<circle fill="none" stroke="#BDE3F8" stroke-width="0.9984" stroke-linecap="round" stroke-miterlimit="10" cx="244.678" cy="895.447" r="18.554"/>
		</g>
		
			<circle fill="none" stroke="#BDE3F8" stroke-width="0.9984" stroke-linecap="round" stroke-miterlimit="10" cx="1700.632" cy="283.108" r="18.554"/>
	</g>
	<g>
		<path fill="none" stroke="#8AB7CE" stroke-width="0.9984" stroke-miterlimit="10" d="M2625.314,1300.042v-213.904
			c0-19.29-14.97-35.269-34.219-36.526l-94.802-6.192c-12.816-47.213-31.556-91.955-55.356-133.455l62.709-71.474
			c12.723-14.5,12.009-36.384-1.632-50.024l-151.252-151.252c-13.64-13.64-35.524-14.354-50.024-1.632l-71.475,62.71
			c-41.498-23.8-86.239-42.541-133.454-55.357l-6.191-94.802c-1.257-19.248-17.237-34.219-36.527-34.219h-213.904
			c-19.29,0-35.269,14.97-36.526,34.219l-6.193,94.802c-47.213,12.816-91.953,31.557-133.454,55.357l-71.474-62.71
			c-14.5-12.722-36.384-12.008-50.024,1.632l-151.252,151.252c-13.64,13.64-14.354,35.524-1.632,50.024l62.71,71.474
			c-23.799,41.5-42.541,86.241-55.357,133.455l-94.802,6.192c-19.249,1.257-34.219,17.237-34.219,36.526v213.904
			c0,19.29,14.97,35.269,34.219,36.526l94.802,6.192c12.815,47.212,31.558,91.954,55.357,133.454l-62.71,71.473
			c-12.722,14.5-12.008,36.384,1.632,50.025l151.252,151.252c13.64,13.64,35.524,14.354,50.024,1.632l71.474-62.71
			c41.5,23.799,86.241,42.541,133.454,55.357l6.193,94.802c1.258,19.249,17.237,34.219,36.526,34.219h213.904
			c19.29,0,35.27-14.97,36.527-34.219l6.191-94.801c47.215-12.816,91.955-31.557,133.454-55.357l71.475,62.71
			c14.5,12.722,36.384,12.008,50.025-1.632l151.252-151.252c13.64-13.64,14.354-35.524,1.632-50.025l-62.71-71.473
			c23.8-41.5,42.541-86.242,55.356-133.454l94.802-6.192C2610.344,1335.311,2625.314,1319.332,2625.314,1300.042z
			 M1980.558,1528.645c-213.306,21.129-391.1-156.669-369.971-369.976c15.635-157.839,143.305-285.507,301.145-301.135
			c213.299-21.12,391.084,156.665,369.964,369.963C2266.067,1385.339,2138.399,1513.009,1980.558,1528.645z"/>
		<path fill="none" stroke="#8AB7CE" stroke-width="0.9984" stroke-miterlimit="10" d="M1241,1567.09V1421
			c0-13.174-10.224-24.088-23.37-24.946l-64.746-4.229c-8.753-32.245-21.552-62.802-37.807-91.145l42.829-48.815
			c8.688-9.903,8.201-24.849-1.115-34.165l-103.301-103.301c-9.316-9.315-24.262-9.803-34.165-1.114l-48.815,42.829
			c-28.342-16.254-58.899-29.054-91.145-37.807l-4.228-64.746c-0.859-13.146-11.772-23.371-24.946-23.371h-146.09
			c-13.174,0-24.088,10.224-24.946,23.37l-4.229,64.747c-32.245,8.752-62.801,21.552-91.145,37.807l-48.815-42.829
			c-9.903-8.689-24.849-8.201-34.165,1.114L397.499,1217.7c-9.315,9.315-9.803,24.262-1.114,34.165l42.829,48.815
			c-16.253,28.343-29.053,58.9-37.807,91.145l-64.746,4.229c-13.146,0.859-23.37,11.772-23.37,24.946v146.09
			c0,13.174,10.224,24.088,23.37,24.946l64.746,4.229c8.753,32.245,21.554,62.802,37.807,91.145l-42.829,48.814
			c-8.689,9.903-8.201,24.849,1.114,34.165L500.8,1873.69c9.316,9.316,24.262,9.804,34.165,1.115l48.815-42.829
			c28.344,16.254,58.9,29.054,91.145,37.807l4.229,64.746c0.859,13.146,11.772,23.37,24.946,23.37h146.09
			c13.174,0,24.088-10.224,24.946-23.37l4.228-64.746c32.246-8.753,62.803-21.553,91.145-37.807l48.815,42.829
			c9.904,8.689,24.849,8.201,34.165-1.115l103.301-103.301c9.315-9.316,9.803-24.262,1.115-34.165l-42.829-48.814
			c16.254-28.343,29.053-58.9,37.807-91.145l64.746-4.229C1230.776,1591.178,1241,1580.264,1241,1567.09z M800.652,1723.218
			c-145.682,14.43-267.109-107-252.678-252.682c10.678-107.799,97.872-194.992,205.672-205.666
			c145.676-14.424,267.099,106.997,252.674,252.674C995.646,1625.345,908.452,1712.54,800.652,1723.218z"/>
	</g>
	<polygon opacity="0.1" fill="#B7C0C4" points="2670.602,2683.883 244.679,2683.883 717.082,2315.944 2198.198,2315.944 	"/>
	<g>
		<rect x="717.082" y="1230.836" fill="#F4F4F4" width="1481.116" height="860.604"/>
		<g>
			<rect x="760.736" y="1256.201" fill="#1B1B1C" width="1393.808" height="809.873"/>
			<g>
				<path fill="#EF3C3B" d="M1159.348,1432.347H846.745c-6.392,0-11.622-5.23-11.622-11.622l0,0c0-6.392,5.23-11.622,11.622-11.622
					h312.603c6.392,0,11.622,5.23,11.622,11.622l0,0C1170.97,1427.117,1165.74,1432.347,1159.348,1432.347z"/>
				<path fill="#EF3C3B" d="M1527.092,1432.347H1214.49c-6.392,0-11.622-5.23-11.622-11.622l0,0c0-6.392,5.23-11.622,11.622-11.622
					h312.602c6.392,0,11.622,5.23,11.622,11.622l0,0C1538.714,1427.117,1533.484,1432.347,1527.092,1432.347z"/>
				<path fill="#8AABDA" d="M1675.008,1432.347h-85.759c-6.392,0-11.622-5.23-11.622-11.622l0,0c0-6.392,5.23-11.622,11.622-11.622
					h85.759c6.392,0,11.622,5.23,11.622,11.622l0,0C1686.63,1427.117,1681.4,1432.347,1675.008,1432.347z"/>
			</g>
			<path fill="#FBAE2F" d="M1259.713,1652.305H846.745c-6.392,0-11.622-5.229-11.622-11.621l0,0c0-6.392,5.23-11.622,11.622-11.622
				h412.968c6.392,0,11.622,5.23,11.622,11.622l0,0C1271.334,1647.076,1266.105,1652.305,1259.713,1652.305z"/>
			<path fill="#8AABDA" d="M1569.187,1652.305h-246.279c-6.392,0-11.622-5.229-11.622-11.621l0,0c0-6.392,5.23-11.622,11.622-11.622
				h246.279c6.392,0,11.622,5.23,11.622,11.622l0,0C1580.809,1647.076,1575.579,1652.305,1569.187,1652.305z"/>
			<g>
				<path fill="#8AABDA" d="M997.79,1505.667H846.745c-6.392,0-11.622-5.23-11.622-11.622l0,0c0-6.392,5.23-11.622,11.622-11.622
					H997.79c6.392,0,11.622,5.23,11.622,11.622l0,0C1009.412,1500.437,1004.182,1505.667,997.79,1505.667z"/>
				<path fill="#EF3C3B" d="M1307.264,1505.667H1040.2c-6.392,0-11.622-5.23-11.622-11.622l0,0c0-6.392,5.23-11.622,11.622-11.622
					h267.064c6.392,0,11.622,5.23,11.622,11.622l0,0C1318.886,1500.437,1313.656,1505.667,1307.264,1505.667z"/>
			</g>
			<path fill="#EF3C3B" d="M1122.118,1359.028H846.745c-6.392,0-11.622-5.23-11.622-11.622l0,0c0-6.392,5.23-11.622,11.622-11.622
				h275.373c6.392,0,11.622,5.23,11.622,11.622l0,0C1133.74,1353.798,1128.51,1359.028,1122.118,1359.028z"/>
			<path fill="#8AABDA" d="M1821.755,1359.028h-641.728c-6.392,0-11.622-5.23-11.622-11.622l0,0c0-6.392,5.23-11.622,11.622-11.622
				h641.728c6.392,0,11.622,5.23,11.622,11.622l0,0C1833.377,1353.798,1828.147,1359.028,1821.755,1359.028z"/>
			<path fill="#FFFFFF" d="M1675.008,1578.986h-136.95c-6.392,0-11.622-5.23-11.622-11.622l0,0c0-6.392,5.23-11.622,11.622-11.622
				h136.95c6.392,0,11.622,5.23,11.622,11.622l0,0C1686.63,1573.756,1681.4,1578.986,1675.008,1578.986z"/>
			<path fill="#FBAE2F" d="M1488.473,1578.986H846.745c-6.392,0-11.622-5.23-11.622-11.622l0,0c0-6.392,5.23-11.622,11.622-11.622
				h641.728c6.392,0,11.622,5.23,11.622,11.622l0,0C1500.095,1573.756,1494.865,1578.986,1488.473,1578.986z"/>
			<path fill="#EF3C3B" d="M1159.348,1798.944H846.745c-6.392,0-11.622-5.23-11.622-11.622l0,0c0-6.392,5.23-11.621,11.622-11.621
				h312.603c6.392,0,11.622,5.229,11.622,11.621l0,0C1170.97,1793.714,1165.74,1798.944,1159.348,1798.944z"/>
			<path fill="#EF3C3B" d="M1527.092,1798.944H1214.49c-6.392,0-11.622-5.23-11.622-11.622l0,0c0-6.392,5.23-11.621,11.622-11.621
				h312.602c6.392,0,11.622,5.229,11.622,11.621l0,0C1538.714,1793.714,1533.484,1798.944,1527.092,1798.944z"/>
			<path fill="#FFFFFF" d="M1675.008,1798.944h-85.759c-6.392,0-11.622-5.23-11.622-11.622l0,0c0-6.392,5.23-11.621,11.622-11.621
				h85.759c6.392,0,11.622,5.229,11.622,11.621l0,0C1686.63,1793.714,1681.4,1798.944,1675.008,1798.944z"/>
			<path fill="#EF3C3B" d="M1259.713,2018.902H846.745c-6.392,0-11.622-5.23-11.622-11.622l0,0c0-6.392,5.23-11.622,11.622-11.622
				h412.968c6.392,0,11.622,5.23,11.622,11.622l0,0C1271.334,2013.672,1266.105,2018.902,1259.713,2018.902z"/>
			<path fill="#8AABDA" d="M1569.187,2018.902h-246.279c-6.392,0-11.622-5.23-11.622-11.622l0,0c0-6.392,5.23-11.622,11.622-11.622
				h246.279c6.392,0,11.622,5.23,11.622,11.622l0,0C1580.809,2013.672,1575.579,2018.902,1569.187,2018.902z"/>
			<path fill="#FFFFFF" d="M997.79,1872.264H846.745c-6.392,0-11.622-5.23-11.622-11.622l0,0c0-6.392,5.23-11.622,11.622-11.622
				H997.79c6.392,0,11.622,5.23,11.622,11.622l0,0C1009.412,1867.034,1004.182,1872.264,997.79,1872.264z"/>
			<path fill="#FBAE2F" d="M1307.264,1872.264H1040.2c-6.392,0-11.622-5.23-11.622-11.622l0,0c0-6.392,5.23-11.622,11.622-11.622
				h267.064c6.392,0,11.622,5.23,11.622,11.622l0,0C1318.886,1867.034,1313.656,1872.264,1307.264,1872.264z"/>
			<path fill="#EF3C3B" d="M1122.118,1725.625H846.745c-6.392,0-11.622-5.23-11.622-11.622l0,0c0-6.392,5.23-11.622,11.622-11.622
				h275.373c6.392,0,11.622,5.23,11.622,11.622l0,0C1133.74,1720.395,1128.51,1725.625,1122.118,1725.625z"/>
			<path fill="#FFFFFF" d="M1757.634,1725.625h-578.187c-6.073,0-11.042-4.969-11.042-11.042v-1.159
				c0-6.073,4.969-11.042,11.042-11.042h578.187c6.073,0,11.042,4.969,11.042,11.042v1.159
				C1768.676,1720.656,1763.707,1725.625,1757.634,1725.625z"/>
			<path fill="#8AABDA" d="M1675.008,1945.583h-136.95c-6.392,0-11.622-5.23-11.622-11.622l0,0c0-6.392,5.23-11.622,11.622-11.622
				h136.95c6.392,0,11.622,5.23,11.622,11.622l0,0C1686.63,1940.353,1681.4,1945.583,1675.008,1945.583z"/>
			<path fill="#FBAE2F" d="M1488.473,1945.583H846.745c-6.392,0-11.622-5.23-11.622-11.622l0,0c0-6.392,5.23-11.622,11.622-11.622
				h641.728c6.392,0,11.622,5.23,11.622,11.622l0,0C1500.095,1940.353,1494.865,1945.583,1488.473,1945.583z"/>
			<polygon fill="#F4F4F4" points="2670.602,2459.378 244.679,2459.378 717.082,2091.439 2198.198,2091.439 			"/>
			<g>
				
					<line fill="none" stroke="#8AB7CE" stroke-width="0.9984" stroke-linecap="round" stroke-miterlimit="10" x1="610.392" y1="2114.372" x2="675.581" y2="2065.26"/>
				
					<line fill="none" stroke="#8AB7CE" stroke-width="0.9984" stroke-linecap="round" stroke-miterlimit="10" x1="376.029" y1="2290.94" x2="586.794" y2="2132.151"/>
				<path fill="none" stroke="#8AB7CE" stroke-width="0.9984" stroke-linecap="round" stroke-miterlimit="10" d="M494.425,2539.065
					H186.812c-44.998,0-64.148-57.243-28.207-84.319l67.518-50.868"/>
				
					<line fill="none" stroke="#8AB7CE" stroke-width="0.9984" stroke-linecap="round" stroke-miterlimit="10" x1="1793.218" y1="2539.065" x2="717.08" y2="2539.065"/>
				
					<line fill="none" stroke="#8AB7CE" stroke-width="0.9984" stroke-linecap="round" stroke-miterlimit="10" x1="2507.768" y1="2539.065" x2="1988.001" y2="2539.065"/>
				
					<line fill="none" stroke="#8AB7CE" stroke-width="0.9984" stroke-linecap="round" stroke-miterlimit="10" x1="2489.185" y1="2260.268" x2="2582.252" y2="2330.384"/>
				
					<line fill="none" stroke="#8AB7CE" stroke-width="0.9984" stroke-linecap="round" stroke-miterlimit="10" x1="2292.7" y1="2112.238" x2="2470.74" y2="2246.371"/>
			</g>
			<g>
				<polygon fill="#D1D2D1" points="868.245,2125.919 787.611,2125.919 817.033,2102.822 894.126,2102.822 				"/>
				<polygon fill="#D1D2D1" points="822.191,2168.845 732.93,2168.845 767.227,2141.921 852.263,2141.921 				"/>
				<polygon fill="#D1D2D1" points="958.206,2168.845 868.946,2168.845 896.806,2141.921 981.842,2141.921 				"/>
				<polygon fill="#D1D2D1" points="1094.223,2168.845 1004.962,2168.845 1026.385,2141.921 1111.421,2141.921 				"/>
				<polygon fill="#D1D2D1" points="1230.239,2168.845 1140.978,2168.845 1155.964,2141.921 1241,2141.921 				"/>
				<polygon fill="#D1D2D1" points="1366.254,2168.845 1276.994,2168.845 1285.543,2141.921 1370.579,2141.921 				"/>
				<polygon fill="#D1D2D1" points="1502.271,2168.845 1413.01,2168.845 1415.122,2141.921 1500.158,2141.921 				"/>
				<polygon fill="#D1D2D1" points="1638.286,2168.845 1549.026,2168.845 1544.701,2141.921 1629.737,2141.921 				"/>
				<polygon fill="#D1D2D1" points="1774.302,2168.845 1685.042,2168.845 1674.28,2141.921 1759.316,2141.921 				"/>
				<polygon fill="#D1D2D1" points="1910.318,2168.845 1821.058,2168.845 1803.859,2141.921 1888.895,2141.921 				"/>
				<polygon fill="#D1D2D1" points="2046.334,2168.845 1957.074,2168.845 1933.438,2141.921 2018.474,2141.921 				"/>
				<polygon fill="#D1D2D1" points="2182.35,2168.845 2093.089,2168.845 2063.017,2141.921 2148.053,2141.921 				"/>
				<polygon fill="#D1D2D1" points="771.905,2213.866 675.581,2213.866 715.372,2182.629 806.795,2182.629 				"/>
				<polygon fill="#D1D2D1" points="918.685,2213.866 822.361,2213.866 854.683,2182.629 946.106,2182.629 				"/>
				<polygon fill="#D1D2D1" points="1065.464,2213.866 969.14,2213.866 993.994,2182.629 1085.418,2182.629 				"/>
				<polygon fill="#D1D2D1" points="1212.243,2213.866 1115.919,2213.866 1133.306,2182.629 1224.729,2182.629 				"/>
				<polygon fill="#D1D2D1" points="1359.023,2213.866 1262.698,2213.866 1272.617,2182.629 1364.04,2182.629 				"/>
				<polygon fill="#D1D2D1" points="1505.802,2213.866 1409.478,2213.866 1411.929,2182.629 1503.351,2182.629 				"/>
				<polygon fill="#D1D2D1" points="1652.582,2213.866 1556.258,2213.866 1551.24,2182.629 1642.663,2182.629 				"/>
				<polygon fill="#D1D2D1" points="1799.361,2213.866 1703.037,2213.866 1690.551,2182.629 1781.974,2182.629 				"/>
				<polygon fill="#D1D2D1" points="1946.14,2213.866 1849.816,2213.866 1829.862,2182.629 1921.286,2182.629 				"/>
				<polygon fill="#D1D2D1" points="2092.92,2213.866 1996.595,2213.866 1969.174,2182.629 2060.597,2182.629 				"/>
				<polygon fill="#D1D2D1" points="2239.699,2213.866 2143.375,2213.866 2108.486,2182.629 2199.908,2182.629 				"/>
				<polygon fill="#D1D2D1" points="709.868,2269.408 604.829,2269.408 651.929,2232.433 751.166,2232.433 				"/>
				<polygon fill="#D1D2D1" points="869.926,2269.408 764.888,2269.408 803.148,2232.433 902.385,2232.433 				"/>
				<polygon fill="#D1D2D1" points="1827.775,2269.408 924.946,2269.408 954.366,2232.433 1807.333,2232.433 				"/>
				<polygon fill="#D1D2D1" points="1990.334,2269.408 1885.296,2269.408 1861.677,2232.433 1960.914,2232.433 				"/>
				<polygon fill="#D1D2D1" points="2150.392,2269.408 2045.354,2269.408 2012.896,2232.433 2112.133,2232.433 				"/>
				<polygon fill="#D1D2D1" points="2310.451,2269.408 2205.412,2269.408 2164.114,2232.433 2263.352,2232.433 				"/>
				<polygon fill="#D1D2D1" points="1031.433,2125.919 950.799,2125.919 973.055,2102.822 1050.148,2102.822 				"/>
				<polygon fill="#D1D2D1" points="1146.624,2125.919 1065.99,2125.919 1083.188,2102.822 1160.281,2102.822 				"/>
				<polygon fill="#D1D2D1" points="1261.815,2125.919 1181.181,2125.919 1193.321,2102.822 1270.414,2102.822 				"/>
				<polygon fill="#D1D2D1" points="1377.006,2125.919 1296.373,2125.919 1303.453,2102.822 1380.547,2102.822 				"/>
				<polygon fill="#D1D2D1" points="1492.198,2125.919 1411.564,2125.919 1413.587,2102.822 1490.68,2102.822 				"/>
				<polygon fill="#D1D2D1" points="1607.388,2125.919 1526.755,2125.919 1523.72,2102.822 1600.813,2102.822 				"/>
				<polygon fill="#D1D2D1" points="1726.42,2125.919 1645.786,2125.919 1637.524,2102.822 1714.617,2102.822 				"/>
				<polygon fill="#D1D2D1" points="1908.806,2125.919 1828.172,2125.919 1811.901,2102.822 1888.994,2102.822 				"/>
				<polygon fill="#D1D2D1" points="2018.237,2125.919 1937.603,2125.919 1916.528,2102.822 1993.621,2102.822 				"/>
				<polygon fill="#D1D2D1" points="2127.669,2125.919 2047.035,2125.919 2021.155,2102.822 2098.248,2102.822 				"/>
				<polygon fill="#E0E0E0" points="1734.199,2409.488 1181.081,2409.488 1224.729,2306.59 1690.551,2306.59 				"/>
			</g>
			<path fill="#E0E0E0" d="M2634.657,2499.914H280.623c-19.852,0-35.945-16.093-35.945-35.945v-4.591h2425.924v4.591
				C2670.602,2483.821,2654.509,2499.914,2634.657,2499.914z"/>
		</g>
	</g>
	<g>
		<path fill="#6F66AE" d="M716.448,1361.082H462.321c-44.344,0-80.292-35.948-80.292-80.293v-254.127
			c0-44.344,35.948-80.292,80.292-80.292h254.127c44.344,0,80.293,35.948,80.293,80.292v254.127
			C796.741,1325.134,760.793,1361.082,716.448,1361.082z"/>
		<path fill="none" stroke="#968EC4" stroke-width="0.9984" stroke-miterlimit="10" d="M731.495,1385.636H447.275
			c-49.595,0-89.8-40.205-89.8-89.8v-284.219c0-49.595,40.205-89.8,89.8-89.8h284.219c49.595,0,89.8,40.205,89.8,89.8v284.219
			C821.295,1345.431,781.09,1385.636,731.495,1385.636z"/>
		<g>
			<path fill="#E2F4FD" d="M440.743,1101.122h41.556c23.23,0,42.505,7.427,42.505,33.969c0,26.231-17.85,34.288-41.391,34.288
				h-18.014v43.611h-24.656V1101.122z M465.399,1148.525h16.434c8.687,0,17.375-3.005,17.375-13.433
				c0-11.533-11.693-13.114-21.175-13.114h-12.634V1148.525z"/>
			<path fill="#E2F4FD" d="M540.289,1101.122h24.656v41.711h47.877v-41.711h24.646v111.869h-24.646v-48.352h-47.877v48.352h-24.656
				V1101.122z"/>
			<path fill="#E2F4FD" d="M660.225,1101.122h41.555c23.231,0,42.506,7.427,42.506,33.969c0,26.231-17.85,34.288-41.392,34.288
				H684.88v43.611h-24.655V1101.122z M684.88,1148.525h16.434c8.688,0,17.375-3.005,17.375-13.433
				c0-11.533-11.693-13.114-21.175-13.114H684.88V1148.525z"/>
		</g>
	</g>
	<g>
		<path fill="#2F5B9C" d="M2408.923,1909.736h-254.127c-44.344,0-80.292-35.948-80.292-80.292v-254.127
			c0-44.344,35.948-80.292,80.292-80.292h254.127c44.344,0,80.292,35.948,80.292,80.292v254.127
			C2489.216,1873.788,2453.268,1909.736,2408.923,1909.736z"/>
		<path fill="none" stroke="#8AABDA" stroke-width="0.9984" stroke-miterlimit="10" d="M2423.969,1934.291H2139.75
			c-49.595,0-89.801-40.205-89.801-89.8v-284.22c0-49.595,40.206-89.8,89.801-89.8h284.219c49.595,0,89.8,40.205,89.8,89.8v284.22
			C2513.77,1894.086,2473.565,1934.291,2423.969,1934.291z"/>
		<g>
			<path fill="#E2F4FD" d="M2212.928,1660.415c-5.125-6.112-12.552-9.578-22.134-9.578c-19.486,0-33.855,15.854-33.855,37.655
				c0,21.796,14.369,37.651,33.033,37.651c10.405,0,18.827-4.623,24.107-12.552l21.467,16.023
				c-9.738,13.871-26.254,20.312-42.277,20.312c-36.495,0-63.078-23.948-63.078-61.434c0-37.49,26.583-61.434,63.078-61.434
				c13.054,0,29.562,4.458,39.473,17.174L2212.928,1660.415z"/>
			<path fill="#E2F4FD" d="M2247.45,1686.51h34.841v-34.846h20.81v34.846h34.842v20.805h-34.842v34.846h-20.81v-34.846h-34.841
				V1686.51z"/>
			<path fill="#E2F4FD" d="M2357.437,1686.51h34.841v-34.846h20.81v34.846h34.841v20.805h-34.841v34.846h-20.81v-34.846h-34.841
				V1686.51z"/>
		</g>
	</g>
	<g>
		<path fill="#F05123" d="M2187.79,1341.62h-180.171c-31.44,0-56.926-25.487-56.926-56.926v-180.171
			c0-31.44,25.487-56.926,56.926-56.926h180.171c31.439,0,56.926,25.487,56.926,56.926v180.171
			C2244.716,1316.134,2219.229,1341.62,2187.79,1341.62z"/>
		<path fill="none" stroke="#F89B49" stroke-width="0.9984" stroke-miterlimit="10" d="M2198.457,1359.028h-201.506
			c-35.162,0-63.667-28.505-63.667-63.666v-201.505c0-35.162,28.505-63.667,63.667-63.667h201.506
			c35.162,0,63.666,28.505,63.666,63.667v201.505C2262.124,1330.524,2233.619,1359.028,2198.457,1359.028z"/>
		<g>
			<path fill="#E2F4FD" d="M1988.784,1161.689h13.575v22.979h26.366v-22.979h13.581v61.619h-13.581v-26.632h-26.366v26.632h-13.575
				V1161.689z"/>
			<path fill="#E2F4FD" d="M2066.782,1173.701h-17.577v-12.011h48.736v12.011h-17.577v49.607h-13.581V1173.701z"/>
			<path fill="#E2F4FD" d="M2104.832,1161.689h20.544l14.184,40.21h0.175l14.274-40.21h20.446v61.619h-13.575v-47.257h-0.174
				l-16.185,47.257h-10.356l-15.576-47.257h-0.175v47.257h-13.582V1161.689z"/>
			<path fill="#E2F4FD" d="M2187.545,1161.689h13.575v49.087h25.156v12.532h-38.731V1161.689z"/>
		</g>
	</g>
	<g>
		<path fill="#F2692B" d="M1204.548,899.478H950.421c-44.345,0-80.293-35.948-80.293-80.292V565.059
			c0-44.344,35.948-80.293,80.293-80.293h254.127c44.344,0,80.292,35.949,80.292,80.293v254.127
			C1284.84,863.53,1248.892,899.478,1204.548,899.478z"/>
		<path fill="none" stroke="#F68C58" stroke-width="0.9984" stroke-miterlimit="10" d="M1219.594,924.032H935.374
			c-49.595,0-89.8-40.205-89.8-89.8V550.012c0-49.595,40.205-89.8,89.8-89.8h284.219c49.595,0,89.8,40.205,89.8,89.8v284.219
			C1309.394,883.827,1269.189,924.032,1219.594,924.032z"/>
		<g>
			<path fill="#E2F4FD" d="M981.077,703.328c0,15.649-4.056,30.466-26.995,30.466c-13.383,0-23.185-6.212-25.925-19.714l17.083-4.18
				c0.475,4.061,4.302,7.404,8.358,7.404c8.724,0,8.843-9.674,8.843-16.009v-54.24h18.636V703.328z"/>
			<path fill="#E2F4FD" d="M1024.934,647.056h15.411l36.797,84.586h-21.03l-7.29-17.918h-32.85l-7.053,17.918h-20.545
				L1024.934,647.056z M1032.106,671.67l-10.277,26.281h20.664L1032.106,671.67z"/>
			<path fill="#E2F4FD" d="M1069.87,647.056h21.266l20.911,55.437h0.238l21.266-55.437h19.951l-34.887,84.586h-14.936
				L1069.87,647.056z"/>
			<path fill="#E2F4FD" d="M1182.781,647.056h15.411l36.796,84.586h-21.029l-7.29-17.918h-32.85l-7.053,17.918h-20.545
				L1182.781,647.056z M1189.951,671.67l-10.277,26.281h20.664L1189.951,671.67z"/>
		</g>
	</g>
	<g>
		<path fill="#0E63B0" d="M1920.548,909.478h-254.127c-44.345,0-80.293-35.948-80.293-80.292V575.059
			c0-44.344,35.948-80.293,80.293-80.293h254.127c44.344,0,80.292,35.949,80.292,80.293v254.127
			C2000.84,873.53,1964.892,909.478,1920.548,909.478z"/>
		<path fill="none" stroke="#F68C58" stroke-width="0.9984" stroke-miterlimit="10" d="M1935.594,934.032h-284.219
			c-49.595,0-89.8-40.205-89.8-89.8V560.012c0-49.595,40.205-89.8,89.8-89.8h284.219c49.595,0,89.8,40.205,89.8,89.8v284.219
			C2025.394,893.827,1985.189,934.032,1935.594,934.032z"/>
		<text transform="matrix(1 0 0 1 1645 747.8091)" fill="#FFFFFF" font-family="'SFProDisplay-Medium'" font-size="139.8609">.NET</text>
	</g>
	<g>
		<path fill="#F7AD1A" d="M915.178,1891.595H727.411c-32.765,0-59.326-26.561-59.326-59.326v-187.767
			c0-32.765,26.561-59.326,59.326-59.326h187.767c32.765,0,59.326,26.561,59.326,59.326v187.767
			C974.504,1865.034,947.943,1891.595,915.178,1891.595z"/>
		<path fill="none" stroke="#F8BE3C" stroke-width="0.9984" stroke-miterlimit="10" d="M926.295,1909.736H716.294
			c-36.645,0-66.351-29.706-66.351-66.351v-210.001c0-36.644,29.706-66.351,66.351-66.351h210.001
			c36.644,0,66.351,29.706,66.351,66.351v210.001C992.646,1880.03,962.94,1909.736,926.295,1909.736z"/>
		<g>
			<path fill="#E2F4FD" d="M800.983,1750.847c0,21.967-5.704,42.759-37.899,42.759c-18.785,0-32.534-8.717-36.388-27.667
				l23.975-5.869c0.675,5.7,6.041,10.398,11.745,10.398c12.237,0,12.406-13.584,12.406-22.474v-76.13h26.162V1750.847z"/>
			<path fill="#E2F4FD" d="M882.12,1700.875c-4.191-5.366-12.574-7.88-18.946-7.88c-7.377,0-17.61,3.354-17.61,12.241
				c0,21.632,54.665,7.715,54.665,49.299c0,26.496-21.295,39.071-45.776,39.071c-15.261,0-28.673-4.526-39.91-14.923l18.615-20.458
				c5.366,7.043,14.086,11.235,22.8,11.235c8.552,0,18.116-4.023,18.116-12.41c0-21.798-55.678-10.06-55.678-49.633
				c0-25.322,21.97-38.568,45.277-38.568c13.418,0,26.331,3.52,36.387,12.409L882.12,1700.875z"/>
		</g>
	</g>
	<circle fill="none" stroke="#97C1E7" stroke-width="1.3313" stroke-miterlimit="10" cx="2507.77" cy="2014.212" r="18.554"/>
	<circle fill="none" stroke="#97C1E7" stroke-width="1.3313" stroke-miterlimit="10" cx="2239.699" cy="810.173" r="18.554"/>
	<circle fill="#F68C58" cx="2390.655" cy="1262.088" r="12.028"/>
	<circle fill="#F68C58" cx="552.276" cy="1957.9" r="12.028"/>
	<circle fill="#F68C58" cx="702.255" cy="810.173" r="12.028"/>
	<circle fill="#F68C58" cx="2310.451" cy="2056.01" r="12.028"/>
	<circle fill="none" stroke="#97C1E7" stroke-width="1.3313" stroke-miterlimit="10" cx="1009.412" cy="1011.635" r="18.554"/>
	<circle fill="none" stroke="#97C1E7" stroke-width="1.3313" stroke-miterlimit="10" cx="357.475" cy="2007.28" r="18.554"/>
	<circle fill="none" stroke="#97C1E7" stroke-width="1.3313" stroke-miterlimit="10" cx="570.83" cy="810.173" r="18.554"/>
</g>
</svg>
