<svg width="133" height="133" viewBox="0 0 133 133" fill="none" xmlns="http://www.w3.org/2000/svg">
<g style="mix-blend-mode:hard-light">
<path d="M132.739 0.0195312V32.7146C129.894 32.8391 127.077 33.3323 124.359 34.1819C117.452 36.3016 111.407 40.5899 107.113 46.415C102.82 52.2401 100.504 59.2942 100.509 66.5384H67.9259C67.9033 55.213 70.7811 44.0716 76.2836 34.1819C76.5537 33.6853 76.8388 33.1886 77.1314 32.677C82.8611 22.9351 90.9763 14.8221 100.708 9.10701C110.439 3.39188 121.465 0.263905 132.739 0.0195312V0.0195312Z" fill="#00BDFF"/>
</g>
<path d="M132.741 1.7529e-06V32.68H66.4196C57.5095 32.6799 48.9617 36.2181 42.6451 42.5211C36.3285 48.8241 32.7571 57.3791 32.7115 66.3157V66.4887C32.7055 70.9306 33.5733 75.33 35.2651 79.4349C36.9569 83.5399 39.4395 87.2698 42.5707 90.411C45.7018 93.5522 49.4201 96.043 53.5125 97.7408C57.6049 99.4385 61.991 100.31 66.4196 100.305C67.9884 100.305 69.5553 100.195 71.1086 99.9739C72.664 99.7647 74.2014 99.4377 75.7076 98.9957H124.271C118.57 109.168 110.314 117.667 100.323 123.647C98.6474 124.65 96.9268 125.578 95.1613 126.431C85.0529 131.306 73.8767 133.53 62.6784 132.894C51.4801 132.258 40.6256 128.783 31.1306 122.794C21.6356 116.806 13.8104 108.499 8.38713 98.6519C2.96388 88.8046 0.119835 77.7384 0.121094 66.4887V66.3157C0.164804 48.7098 7.16956 31.8403 19.5986 19.408C32.0277 6.97571 48.8661 -0.00403831 66.4196 1.7529e-06H132.741Z" fill="#0017FF"/>
<g style="mix-blend-mode:hard-light">
<path d="M132.739 0.0195312V32.7146C129.894 32.8391 127.077 33.3323 124.359 34.1819C117.452 36.3016 111.407 40.5899 107.113 46.415C102.82 52.2401 100.504 59.2942 100.509 66.5384H67.9259C67.9033 55.213 70.7811 44.0716 76.2836 34.1819C76.5537 33.6853 76.8388 33.1886 77.1314 32.677C82.8611 22.9351 90.9763 14.8221 100.708 9.10701C110.439 3.39188 121.465 0.263905 132.739 0.0195312V0.0195312Z" fill="#00BDFF"/>
</g>
<g style="mix-blend-mode:hard-light">
<path d="M132.741 66.4902C132.762 77.8154 129.884 88.9565 124.383 98.8467L124.293 99.0122H76.3752L76.2852 98.8467C83.1879 96.7206 89.2292 92.4308 93.5219 86.6071C97.8145 80.7834 100.132 73.7327 100.135 66.4902H132.741Z" fill="#00BDFF"/>
</g>
<g style="mix-blend-mode:hard-light">
<path d="M132.741 66.4902C132.762 77.8154 129.884 88.9565 124.383 98.8467L124.293 99.0122H76.3752L76.2852 98.8467C83.1879 96.7206 89.2292 92.4308 93.5219 86.6071C97.8145 80.7834 100.132 73.7327 100.135 66.4902H132.741Z" fill="#00BDFF"/>
</g>
</svg>
